%TF.GenerationSoftware,Altium Limited,Altium Designer,23.0.1 (38)*%
G04 Layer_Color=16711935*
%FSLAX45Y45*%
%MOMM*%
%TF.SameCoordinates,0946520A-43BC-435E-BA57-7B8340C501A0*%
%TF.FilePolarity,Negative*%
%TF.FileFunction,Soldermask,Bot*%
%TF.Part,Single*%
G01*
G75*
%TA.AperFunction,ViaPad*%
%ADD40C,0.60960*%
%ADD42C,1.27000*%
%TA.AperFunction,ComponentPad*%
%ADD58C,2.00320*%
%ADD59C,7.54000*%
%ADD60C,6.20320*%
%ADD61C,3.90640*%
%TA.AperFunction,ViaPad*%
%ADD62C,0.81280*%
D40*
X2921000Y11569700D02*
D03*
X2768600Y11557000D02*
D03*
X3225800Y11569700D02*
D03*
X3454400D02*
D03*
X3835400Y787400D02*
D03*
X3289300Y1422400D02*
D03*
X2857500Y1498600D02*
D03*
X1701800Y10642600D02*
D03*
X4445000Y4838700D02*
D03*
X4193308Y4812130D02*
D03*
X4343400Y4762500D02*
D03*
X2794000Y4076700D02*
D03*
X2895600Y3873500D02*
D03*
Y3975100D02*
D03*
Y4076700D02*
D03*
X3606800Y12395200D02*
D03*
X3238500Y10972800D02*
D03*
X1676400Y11303000D02*
D03*
X1600200Y10693400D02*
D03*
X596900Y11493500D02*
D03*
Y11607800D02*
D03*
Y11734800D02*
D03*
X165100Y11442700D02*
D03*
X330200D02*
D03*
X431800D02*
D03*
Y11798300D02*
D03*
X317500D02*
D03*
X165100D02*
D03*
X1828800Y12306300D02*
D03*
X1701800D02*
D03*
X1562100D02*
D03*
X1422400D02*
D03*
X1295400D02*
D03*
X1181100D02*
D03*
X3302000Y12192000D02*
D03*
X3200400D02*
D03*
X3111500D02*
D03*
X1651000Y11480800D02*
D03*
D42*
X2974998Y9721595D02*
D03*
X2771798Y9518395D02*
D03*
D58*
X901700Y8343900D02*
D03*
X4089400Y304800D02*
D03*
X901700Y8851900D02*
D03*
X3835400Y304800D02*
D03*
X901700Y9359900D02*
D03*
X4597400Y304800D02*
D03*
X901700Y8597900D02*
D03*
Y9105900D02*
D03*
X2044700Y6858000D02*
D03*
Y7112000D02*
D03*
Y7366000D02*
D03*
Y7620000D02*
D03*
X3162300Y6858000D02*
D03*
Y7112000D02*
D03*
Y7366000D02*
D03*
Y7620000D02*
D03*
Y5435600D02*
D03*
Y5689600D02*
D03*
Y5943600D02*
D03*
Y6197600D02*
D03*
X6629400Y304800D02*
D03*
X6375400Y304800D02*
D03*
X6121400D02*
D03*
X5867400D02*
D03*
X5613400D02*
D03*
X5359400Y304800D02*
D03*
X5105400Y304800D02*
D03*
X4851400D02*
D03*
X4343400Y304800D02*
D03*
X3581400Y304800D02*
D03*
X3327400D02*
D03*
X3073400Y304800D02*
D03*
X2819400Y304800D02*
D03*
X2565400D02*
D03*
X2311400D02*
D03*
X2057400Y304800D02*
D03*
Y2844799D02*
D03*
X2311400Y2844800D02*
D03*
X2565400D02*
D03*
X2819400D02*
D03*
X3073400Y2844799D02*
D03*
X3327400Y2844800D02*
D03*
X3581400D02*
D03*
X3835400D02*
D03*
X4089400D02*
D03*
X4343400Y2844799D02*
D03*
X4597400Y2844800D02*
D03*
X4851400D02*
D03*
X5105400D02*
D03*
X5359400Y2844799D02*
D03*
X5613400Y2844800D02*
D03*
X5867400D02*
D03*
X6121400D02*
D03*
X6375400D02*
D03*
X6629400Y2844799D02*
D03*
X2044700Y6197600D02*
D03*
Y5943600D02*
D03*
Y5689600D02*
D03*
Y5435600D02*
D03*
X1638300Y9359900D02*
D03*
Y8343900D02*
D03*
Y8597900D02*
D03*
Y8851900D02*
D03*
Y9105900D02*
D03*
X2044700Y3924300D02*
D03*
Y4178300D02*
D03*
Y4432300D02*
D03*
Y4686300D02*
D03*
X6553200Y9093200D02*
D03*
Y8839199D02*
D03*
Y8585200D02*
D03*
Y8331200D02*
D03*
X6502400Y4724400D02*
D03*
Y4470400D02*
D03*
Y4216400D02*
D03*
Y3962400D02*
D03*
X1282700Y4572000D02*
D03*
Y4318000D02*
D03*
Y4064000D02*
D03*
Y3810000D02*
D03*
Y4826000D02*
D03*
X1270000Y9105900D02*
D03*
Y8851900D02*
D03*
Y8597900D02*
D03*
Y8343900D02*
D03*
Y9359900D02*
D03*
X901700Y4076700D02*
D03*
Y4330700D02*
D03*
Y4584700D02*
D03*
Y4838700D02*
D03*
Y3822700D02*
D03*
X4140200Y9372600D02*
D03*
X4394200D02*
D03*
X4648200D02*
D03*
X4902200D02*
D03*
X5156200D02*
D03*
X5410200D02*
D03*
X5664200D02*
D03*
X5918200D02*
D03*
Y8102600D02*
D03*
X5664200Y8102600D02*
D03*
X5410200Y8102600D02*
D03*
X5156200D02*
D03*
X4902200D02*
D03*
X4648200Y8102600D02*
D03*
X4394200Y8102600D02*
D03*
X4140200D02*
D03*
X4089400Y3708400D02*
D03*
X4343400D02*
D03*
X4597400D02*
D03*
X4851400D02*
D03*
X5105400D02*
D03*
X5359400D02*
D03*
X5613400D02*
D03*
X5867400D02*
D03*
Y4978400D02*
D03*
X5613400D02*
D03*
X5359399Y4978400D02*
D03*
X5105400D02*
D03*
X4851400Y4978400D02*
D03*
X4597400D02*
D03*
X4343400Y4978400D02*
D03*
X4089400D02*
D03*
D59*
X5092700Y1765300D02*
D03*
X3378200Y10363200D02*
D03*
D60*
X6477000Y11582400D02*
D03*
Y12382400D02*
D03*
D61*
X5778500Y12598400D02*
D03*
X5278500D02*
D03*
D62*
X2428400Y11362200D02*
D03*
X2538401Y11362200D02*
D03*
X2428400Y11252200D02*
D03*
X2538400D02*
D03*
X2428400Y11142200D02*
D03*
X2538400D02*
D03*
%TF.MD5,207562880ca50cc906cbaa052df89199*%
M02*
