%TF.GenerationSoftware,Altium Limited,Altium Designer,23.0.1 (38)*%
G04 Layer_Physical_Order=1*
G04 Layer_Color=255*
%FSLAX45Y45*%
%MOMM*%
%TF.SameCoordinates,0946520A-43BC-435E-BA57-7B8340C501A0*%
%TF.FilePolarity,Positive*%
%TF.FileFunction,Copper,L1,Top,Signal*%
%TF.Part,Single*%
G01*
G75*
%TA.AperFunction,Conductor*%
%ADD10C,0.76200*%
%TA.AperFunction,SMDPad,CuDef*%
%AMCUSTOMSHAPE11*
4,1,6,-0.35060,0.47500,0.35060,0.47500,0.50000,0.32560,0.50000,-0.47500,-0.50000,-0.47500,-0.50000,0.32560,-0.35060,0.47500,0.0*%
%ADD11CUSTOMSHAPE11*%

%AMCUSTOMSHAPE12*
4,1,6,-0.50000,0.47500,0.50000,0.47500,0.50000,-0.32560,0.35060,-0.47500,-0.35060,-0.47500,-0.50000,-0.32560,-0.50000,0.47500,0.0*%
%ADD12CUSTOMSHAPE12*%

%ADD13R,2.00000X4.10000*%
%ADD14R,3.20000X3.25000*%
%ADD15R,4.10000X2.00000*%
%AMCUSTOMSHAPE16*
4,1,6,0.64200,-0.57501,-0.64200,-0.57500,-0.90000,-0.31700,-0.90000,0.57500,0.90000,0.57500,0.90000,-0.31700,0.64200,-0.57501,0.0*%
%ADD16CUSTOMSHAPE16*%

%AMCUSTOMSHAPE17*
4,1,6,0.90000,-0.57500,-0.90000,-0.57500,-0.90000,0.31700,-0.64200,0.57500,0.64201,0.57500,0.90000,0.31700,0.90000,-0.57500,0.0*%
%ADD17CUSTOMSHAPE17*%

%AMCUSTOMSHAPE18*
4,1,6,0.35060,-0.47500,-0.35060,-0.47500,-0.50000,-0.32560,-0.50000,0.47500,0.50000,0.47500,0.50000,-0.32560,0.35060,-0.47500,0.0*%
%ADD18CUSTOMSHAPE18*%

%AMCUSTOMSHAPE19*
4,1,6,0.50000,-0.47500,-0.50000,-0.47500,-0.50000,0.32560,-0.35060,0.47500,0.35060,0.47500,0.50000,0.32560,0.50000,-0.47500,0.0*%
%ADD19CUSTOMSHAPE19*%

%AMCUSTOMSHAPE20*
4,1,6,0.47500,0.35060,0.47500,-0.35060,0.32560,-0.50000,-0.47500,-0.50000,-0.47500,0.50000,0.32560,0.50000,0.47500,0.35060,0.0*%
%ADD20CUSTOMSHAPE20*%

%AMCUSTOMSHAPE21*
4,1,6,0.47500,0.50000,0.47500,-0.50000,-0.32560,-0.50000,-0.47500,-0.35060,-0.47500,0.35060,-0.32560,0.50000,0.47500,0.50000,0.0*%
%ADD21CUSTOMSHAPE21*%

%ADD22R,2.07000X2.06000*%
%AMCUSTOMSHAPE23*
4,1,6,-0.47500,-0.50000,-0.47500,0.50000,0.32560,0.50000,0.47500,0.35060,0.47500,-0.35060,0.32560,-0.50000,-0.47500,-0.50000,0.0*%
%ADD23CUSTOMSHAPE23*%

%AMCUSTOMSHAPE24*
4,1,6,-0.47500,-0.35060,-0.47500,0.35060,-0.32560,0.50000,0.47500,0.50000,0.47500,-0.50000,-0.32560,-0.50000,-0.47500,-0.35060,0.0*%
%ADD24CUSTOMSHAPE24*%

%AMCUSTOMSHAPE25*
4,1,6,0.72500,-0.50000,-0.72500,-0.50000,-0.72500,0.30620,-0.53120,0.50000,0.53120,0.50000,0.72500,0.30620,0.72500,-0.50000,0.0*%
%ADD25CUSTOMSHAPE25*%

%AMCUSTOMSHAPE26*
4,1,6,0.53120,-0.50000,-0.53120,-0.50000,-0.72500,-0.30620,-0.72500,0.50000,0.72500,0.50000,0.72500,-0.30620,0.53120,-0.50000,0.0*%
%ADD26CUSTOMSHAPE26*%

%AMCUSTOMSHAPE27*
4,1,6,-0.72500,0.50000,0.72500,0.50000,0.72500,-0.30620,0.53120,-0.50000,-0.53120,-0.50000,-0.72500,-0.30620,-0.72500,0.50000,0.0*%
%ADD27CUSTOMSHAPE27*%

%AMCUSTOMSHAPE28*
4,1,6,-0.53120,0.50000,0.53120,0.50000,0.72500,0.30620,0.72500,-0.50000,-0.72500,-0.50000,-0.72500,0.30620,-0.53120,0.50000,0.0*%
%ADD28CUSTOMSHAPE28*%

%ADD29R,2.61000X3.60000*%
%ADD30O,1.45000X0.60000*%
%ADD31R,8.40000X10.75000*%
%ADD32R,4.15000X1.05000*%
%TA.AperFunction,Conductor*%
%ADD33C,1.77800*%
%ADD34C,0.25400*%
%ADD35R,3.93700X2.03200*%
%TA.AperFunction,ComponentPad*%
%ADD36C,1.80000*%
%ADD37C,5.00000*%
%ADD38C,6.00000*%
%ADD39C,3.50000*%
%TA.AperFunction,ViaPad*%
%ADD40C,0.60960*%
%ADD41C,0.70000*%
%ADD42C,1.27000*%
G36*
X5936779Y3766669D02*
X5942334Y3762436D01*
X5948338Y3758701D01*
X5954790Y3755464D01*
X5961692Y3752725D01*
X5969043Y3750484D01*
X5976844Y3748741D01*
X5985092Y3747496D01*
X5993790Y3746749D01*
X6002937Y3746500D01*
Y3670300D01*
X5993790Y3670051D01*
X5985092Y3669304D01*
X5976844Y3668059D01*
X5969043Y3666316D01*
X5961692Y3664075D01*
X5954790Y3661336D01*
X5948338Y3658099D01*
X5942334Y3654364D01*
X5936779Y3650131D01*
X5931673Y3645400D01*
Y3771400D01*
X5936779Y3766669D01*
D02*
G37*
G36*
X6462605Y3415333D02*
X6457745Y3403600D01*
X6378062D01*
X6357681Y3423981D01*
X6336676Y3438016D01*
X6311900Y3442944D01*
X5970418D01*
X5826666Y3586696D01*
X5833240Y3598082D01*
X5852207Y3593000D01*
X5882593D01*
X5911943Y3600865D01*
X5938257Y3616057D01*
X5947534Y3625334D01*
X5949275Y3626404D01*
X5953467Y3630288D01*
X5957056Y3633023D01*
X5961010Y3635483D01*
X5965392Y3637681D01*
X5970258Y3639612D01*
X5975654Y3641257D01*
X5981606Y3642587D01*
X5988137Y3643573D01*
X5989107Y3643656D01*
X6234282D01*
X6462605Y3415333D01*
D02*
G37*
G36*
X5703660Y3700544D02*
X5704595Y3693623D01*
X5706200Y3686737D01*
X5708474Y3679885D01*
X5711417Y3673068D01*
X5715031Y3666285D01*
X5719314Y3659537D01*
X5724266Y3652824D01*
X5729888Y3646145D01*
X5736180Y3639501D01*
X5682299Y3585620D01*
X5675655Y3591912D01*
X5668976Y3597534D01*
X5662263Y3602486D01*
X5655515Y3606769D01*
X5648732Y3610383D01*
X5641915Y3613326D01*
X5635063Y3615600D01*
X5628177Y3617205D01*
X5621256Y3618140D01*
X5614300Y3618404D01*
X5703396Y3707500D01*
X5703660Y3700544D01*
D02*
G37*
G36*
X6985000Y7500620D02*
X3997960D01*
Y5499100D01*
X7632700D01*
Y3403600D01*
X6657462D01*
X6306881Y3754181D01*
X6285876Y3768216D01*
X6261100Y3773144D01*
X5989106D01*
X5988137Y3773227D01*
X5981605Y3774213D01*
X5975654Y3775543D01*
X5970258Y3777188D01*
X5965392Y3779119D01*
X5961010Y3781317D01*
X5957054Y3783778D01*
X5953467Y3786512D01*
X5949275Y3790396D01*
X5947534Y3791466D01*
X5938257Y3800743D01*
X5911943Y3815935D01*
X5882593Y3823800D01*
X5852207D01*
X5822857Y3815935D01*
X5796543Y3800743D01*
X5775057Y3779257D01*
X5759865Y3752943D01*
X5752000Y3723593D01*
Y3693207D01*
X5757082Y3674240D01*
X5745696Y3667666D01*
X5745242Y3668120D01*
X5744613Y3668867D01*
X5740692Y3674182D01*
X5737424Y3679331D01*
X5734772Y3684309D01*
X5732697Y3689115D01*
X5731153Y3693768D01*
X5730096Y3698303D01*
X5729492Y3702776D01*
X5729274Y3708486D01*
X5728800Y3710473D01*
Y3723593D01*
X5720935Y3752943D01*
X5705743Y3779257D01*
X5684257Y3800743D01*
X5657943Y3815935D01*
X5628593Y3823800D01*
X5598207D01*
X5568857Y3815935D01*
X5542543Y3800743D01*
X5521057Y3779257D01*
X5505865Y3752943D01*
X5498000Y3723593D01*
Y3693207D01*
X5505865Y3663857D01*
X5521057Y3637543D01*
X5542543Y3616057D01*
X5568857Y3600865D01*
X5598207Y3593000D01*
X5611327D01*
X5613314Y3592526D01*
X5619024Y3592308D01*
X5623497Y3591704D01*
X5628032Y3590648D01*
X5632685Y3589103D01*
X5637491Y3587028D01*
X5642469Y3584376D01*
X5647620Y3581107D01*
X5652933Y3577187D01*
X5653680Y3576558D01*
X5897819Y3332419D01*
X5918824Y3318384D01*
X5943600Y3313456D01*
X6184900D01*
Y2954090D01*
X6173901Y2947740D01*
X6165943Y2952335D01*
X6136593Y2960200D01*
X6106207D01*
X6076857Y2952335D01*
X6050543Y2937142D01*
X6029057Y2915657D01*
X6013865Y2889342D01*
X6006000Y2859993D01*
Y2829607D01*
X6013865Y2800257D01*
X6029057Y2773943D01*
X6050543Y2752457D01*
X6076857Y2737264D01*
X6106207Y2729400D01*
X6136593D01*
X6165943Y2737264D01*
X6173901Y2741859D01*
X6184900Y2735509D01*
Y584200D01*
X6292645D01*
X6297505Y572467D01*
X6161680Y436642D01*
X6160933Y436013D01*
X6155618Y432092D01*
X6150469Y428824D01*
X6145491Y426172D01*
X6140685Y424096D01*
X6136032Y422552D01*
X6131497Y421495D01*
X6127024Y420891D01*
X6121314Y420674D01*
X6119327Y420200D01*
X6106207D01*
X6076857Y412335D01*
X6050543Y397142D01*
X6029057Y375657D01*
X6013865Y349342D01*
X6006000Y319993D01*
Y289607D01*
X6013865Y260257D01*
X6029057Y233943D01*
X6050543Y212457D01*
X6076857Y197264D01*
X6106207Y189400D01*
X6136593D01*
X6165943Y197264D01*
X6192257Y212457D01*
X6213743Y233943D01*
X6228935Y260257D01*
X6236800Y289607D01*
Y302727D01*
X6237274Y304714D01*
X6237492Y310424D01*
X6238096Y314896D01*
X6239152Y319431D01*
X6240697Y324084D01*
X6242772Y328890D01*
X6245424Y333869D01*
X6248693Y339019D01*
X6252613Y344333D01*
X6253242Y345080D01*
X6253696Y345534D01*
X6265082Y338960D01*
X6260000Y319993D01*
Y289607D01*
X6267865Y260257D01*
X6283057Y233943D01*
X6304543Y212457D01*
X6330857Y197264D01*
X6360207Y189400D01*
X6390593D01*
X6419943Y197264D01*
X6446257Y212457D01*
X6467743Y233943D01*
X6482935Y260257D01*
X6490800Y289607D01*
Y302727D01*
X6491274Y304714D01*
X6491492Y310424D01*
X6492096Y314896D01*
X6493152Y319431D01*
X6494697Y324084D01*
X6496772Y328890D01*
X6499424Y333869D01*
X6502693Y339019D01*
X6506613Y344333D01*
X6507242Y345080D01*
X6507696Y345534D01*
X6512257Y342900D01*
X6591300D01*
Y421943D01*
X6588666Y426504D01*
X6744480Y582317D01*
X6758283D01*
X6985000Y355600D01*
Y0D01*
X500380D01*
X0Y500380D01*
Y12506960D01*
X500380Y13007339D01*
Y13009880D01*
X6985000D01*
X6985000Y7500620D01*
D02*
G37*
G36*
X6498180Y373699D02*
X6491888Y367054D01*
X6486266Y360376D01*
X6481314Y353662D01*
X6477031Y346915D01*
X6473417Y340132D01*
X6470474Y333315D01*
X6468200Y326463D01*
X6466595Y319577D01*
X6465660Y312655D01*
X6465396Y305700D01*
X6376300Y394795D01*
X6383256Y395060D01*
X6390177Y395995D01*
X6397063Y397599D01*
X6403915Y399873D01*
X6410732Y402817D01*
X6417515Y406430D01*
X6424263Y410713D01*
X6430976Y415666D01*
X6437655Y421288D01*
X6444299Y427580D01*
X6498180Y373699D01*
D02*
G37*
G36*
X6244180D02*
X6237888Y367054D01*
X6232266Y360376D01*
X6227314Y353662D01*
X6223031Y346915D01*
X6219417Y340132D01*
X6216474Y333315D01*
X6214200Y326463D01*
X6212595Y319577D01*
X6211660Y312655D01*
X6211396Y305700D01*
X6122300Y394795D01*
X6129256Y395060D01*
X6136177Y395995D01*
X6143063Y397599D01*
X6149915Y399873D01*
X6156732Y402817D01*
X6163515Y406430D01*
X6170263Y410713D01*
X6176976Y415666D01*
X6183655Y421288D01*
X6190299Y427580D01*
X6244180Y373699D01*
D02*
G37*
%LPC*%
G36*
X3263900Y12890997D02*
X1727200D01*
X1723623Y12890286D01*
X1719992Y12889973D01*
X1718709Y12889308D01*
X1717289Y12889026D01*
X1714257Y12887000D01*
X1711022Y12885323D01*
X1591116Y12789398D01*
X1028700D01*
X1026479Y12788956D01*
X1024216Y12789006D01*
X1021571Y12787980D01*
X1018789Y12787426D01*
X1016907Y12786168D01*
X1014796Y12785349D01*
X875096Y12696449D01*
X873046Y12694488D01*
X870688Y12692912D01*
X869430Y12691030D01*
X867793Y12689465D01*
X866650Y12686869D01*
X865074Y12684511D01*
X864632Y12682290D01*
X863719Y12680218D01*
X863656Y12677382D01*
X863102Y12674600D01*
Y11557000D01*
X863597Y11554512D01*
X863595Y11551974D01*
X864574Y11549604D01*
X865074Y11547089D01*
X866483Y11544980D01*
X867452Y11542635D01*
X918252Y11466435D01*
X920063Y11464619D01*
X921488Y11462488D01*
X923597Y11461078D01*
X925390Y11459282D01*
X927758Y11458298D01*
X929889Y11456874D01*
X932378Y11456379D01*
X934721Y11455405D01*
X937285Y11455403D01*
X939800Y11454902D01*
X1030229D01*
Y11393006D01*
X997980Y11360758D01*
X979659Y11336881D01*
X968142Y11309076D01*
X964214Y11279238D01*
Y10474453D01*
X451880Y9962120D01*
X433559Y9938243D01*
X422042Y9910438D01*
X418114Y9880600D01*
Y3175000D01*
X422042Y3145162D01*
X433559Y3117357D01*
X451880Y3093480D01*
X782080Y2763281D01*
X782081Y2763280D01*
X805957Y2744959D01*
X833762Y2733442D01*
X863601Y2729513D01*
X2041784D01*
X2042207Y2729400D01*
X2072593D01*
X2101943Y2737264D01*
X2128257Y2752457D01*
X2149743Y2773942D01*
X2164935Y2800257D01*
X2172800Y2829607D01*
Y2859992D01*
X2164935Y2889342D01*
X2149743Y2915657D01*
X2128257Y2937142D01*
X2101943Y2952335D01*
X2072593Y2960199D01*
X2042207D01*
X2041784Y2960086D01*
X911354D01*
X648686Y3222753D01*
Y9832847D01*
X1073150Y10257310D01*
X1124980Y10205480D01*
X1523014Y9807447D01*
Y9375516D01*
X1522900Y9375093D01*
Y9344707D01*
X1523014Y9344284D01*
Y9121516D01*
X1522900Y9121093D01*
Y9090707D01*
X1523014Y9090284D01*
Y8867516D01*
X1522900Y8867093D01*
Y8836707D01*
X1523014Y8836284D01*
Y8613516D01*
X1522900Y8613093D01*
Y8582707D01*
X1523014Y8582284D01*
Y8359516D01*
X1522900Y8359093D01*
Y8328707D01*
X1530765Y8299357D01*
X1545957Y8273043D01*
X1567443Y8251557D01*
X1593757Y8236365D01*
X1623107Y8228500D01*
X1653493D01*
X1682843Y8236365D01*
X1709157Y8251557D01*
X1730643Y8273043D01*
X1745835Y8299357D01*
X1753700Y8328707D01*
Y8359093D01*
X1753586Y8359516D01*
Y8582284D01*
X1753700Y8582707D01*
Y8613093D01*
X1753586Y8613516D01*
Y8836284D01*
X1753700Y8836707D01*
Y8867093D01*
X1753586Y8867516D01*
Y9090284D01*
X1753700Y9090707D01*
Y9121093D01*
X1753586Y9121516D01*
Y9344284D01*
X1753700Y9344707D01*
Y9375093D01*
X1753586Y9375516D01*
Y9855200D01*
X1749658Y9885038D01*
X1738141Y9912843D01*
X1719820Y9936720D01*
X1446017Y10210523D01*
X1450877Y10222256D01*
X2070100D01*
X2094876Y10227184D01*
X2115881Y10241219D01*
X2284781Y10410119D01*
X2298816Y10431124D01*
X2303744Y10455900D01*
Y10461159D01*
X2304813Y10462228D01*
X2310426Y10470630D01*
X2312398Y10480540D01*
Y10550660D01*
X2311493Y10555207D01*
X2311479Y10556012D01*
X2311353Y10556303D01*
X2311340Y10556619D01*
X2311116Y10557103D01*
X2310426Y10560570D01*
X2307773Y10564541D01*
X2307478Y10565221D01*
X2306847Y10567618D01*
X2306123Y10571615D01*
X2303744Y10611117D01*
Y10765800D01*
X2298816Y10790577D01*
X2284781Y10811581D01*
X2128581Y10967781D01*
X2122187Y10972053D01*
X2126039Y10984753D01*
X2137821D01*
X2152687Y10987711D01*
X2165290Y10996131D01*
X2171242Y11002084D01*
X2174720Y11005210D01*
X2174726Y11005214D01*
X2253400D01*
X2275016Y11009514D01*
X2293341Y11021758D01*
X2305586Y11040084D01*
X2316053Y11042764D01*
X2319075Y11042800D01*
X2331188Y11030688D01*
X2339589Y11025074D01*
X2349500Y11023102D01*
X2622550D01*
X2626622Y11023912D01*
X2630739Y11024431D01*
X2631547Y11024892D01*
X2632460Y11025074D01*
X2635912Y11027380D01*
X2639518Y11029435D01*
X2640088Y11030170D01*
X2640862Y11030688D01*
X2643168Y11034139D01*
X2645713Y11037418D01*
X2647918Y11041828D01*
X2661214Y11040084D01*
X2673458Y11021758D01*
X2691784Y11009514D01*
X2713400Y11005214D01*
X2727739D01*
X2732340Y11002140D01*
X2746119Y10981519D01*
X2800618Y10927019D01*
X2821623Y10912984D01*
X2846399Y10908056D01*
X2873081D01*
X2878620Y10907820D01*
X2894323Y10906152D01*
X2899673Y10905195D01*
X2903732Y10904185D01*
X2905997Y10903396D01*
X2906175Y10903307D01*
X2907050Y10902631D01*
X2907658Y10902329D01*
X2912829Y10898874D01*
X2915803Y10898282D01*
X2916100Y10898135D01*
X2916778Y10898088D01*
X2922740Y10896902D01*
X3002800D01*
X3012711Y10898874D01*
X3021112Y10904487D01*
X3026726Y10912889D01*
X3028698Y10922800D01*
Y11022800D01*
X3026726Y11032711D01*
X3021112Y11041113D01*
X3012711Y11046726D01*
X3002800Y11048698D01*
X2922740D01*
X2916778Y11047512D01*
X2916100Y11047465D01*
X2915803Y11047318D01*
X2912830Y11046726D01*
X2907658Y11043271D01*
X2907050Y11042969D01*
X2906175Y11042293D01*
X2905998Y11042204D01*
X2903734Y11041415D01*
X2899676Y11040406D01*
X2894767Y11039528D01*
X2872793Y11037968D01*
X2856515Y11054246D01*
X2851715Y11078376D01*
X2851505Y11078691D01*
X2850585Y11083316D01*
X2838341Y11101641D01*
X2822834Y11112002D01*
X2825244Y11122401D01*
X2826666Y11124702D01*
X3073400D01*
X3083311Y11126674D01*
X3091712Y11132288D01*
X3097326Y11140689D01*
X3097888Y11143514D01*
X3642847D01*
X3672685Y11147442D01*
X3700490Y11158959D01*
X3724367Y11177280D01*
X3887200Y11340114D01*
X4006107D01*
X4009787Y11331104D01*
X4015261Y11310737D01*
X4019334Y11286258D01*
X4021843Y11257767D01*
X4022214Y11243665D01*
Y9473697D01*
X3429679Y9397697D01*
X3415732Y9396281D01*
X3387597Y9395196D01*
X3363510Y9396187D01*
X3343649Y9399074D01*
X3328162Y9403528D01*
X3317000Y9409030D01*
X3309612Y9415055D01*
X3304875Y9421670D01*
X3301883Y9429901D01*
X3300451Y9443547D01*
X3300400Y9443712D01*
Y9479200D01*
X3049600D01*
Y9018400D01*
X3300400D01*
Y9079507D01*
X3300459Y9079698D01*
X3301933Y9094120D01*
X3305409Y9104578D01*
X3311336Y9114375D01*
X3320282Y9123966D01*
X3332812Y9133356D01*
X3349238Y9142294D01*
X3369652Y9150498D01*
X3394024Y9157753D01*
X3422286Y9163913D01*
X3436265Y9166080D01*
X3800340Y9212778D01*
X3805938Y9201378D01*
X3779280Y9174720D01*
X3760959Y9150843D01*
X3749442Y9123038D01*
X3745514Y9093200D01*
Y7934702D01*
X3732813Y7925390D01*
X3730760Y7925798D01*
X3660640D01*
X3656093Y7924893D01*
X3655287Y7924880D01*
X3654997Y7924754D01*
X3654680Y7924740D01*
X3654197Y7924516D01*
X3650730Y7923827D01*
X3646759Y7921174D01*
X3646078Y7920877D01*
X3643683Y7920247D01*
X3639685Y7919524D01*
X3607236Y7917569D01*
X3593957Y7918545D01*
X3587460Y7919371D01*
X3582618Y7920247D01*
X3580221Y7920878D01*
X3579542Y7921173D01*
X3575570Y7923827D01*
X3572102Y7924517D01*
X3571619Y7924740D01*
X3571302Y7924753D01*
X3571012Y7924880D01*
X3570207Y7924893D01*
X3565660Y7925798D01*
X3495540D01*
X3490993Y7924893D01*
X3490187Y7924880D01*
X3489897Y7924754D01*
X3489580Y7924740D01*
X3489097Y7924516D01*
X3485630Y7923827D01*
X3481659Y7921174D01*
X3480978Y7920877D01*
X3478583Y7920247D01*
X3474585Y7919524D01*
X3435082Y7917144D01*
X3051800D01*
X3027024Y7912216D01*
X3006019Y7898181D01*
X2748719Y7640881D01*
X2734685Y7619877D01*
X2729756Y7595100D01*
Y6562509D01*
X2717056Y6552700D01*
X2716060Y6552898D01*
X2636000Y6552898D01*
X2626089Y6550926D01*
X2617687Y6545313D01*
X2612074Y6536911D01*
X2610102Y6527000D01*
Y6427000D01*
X2610758Y6423702D01*
X2610743Y6423330D01*
X2610938Y6422797D01*
X2612074Y6417089D01*
X2614195Y6413915D01*
X2614221Y6413843D01*
X2614300Y6413757D01*
X2616482Y6410492D01*
X2618291Y6382261D01*
X2617383Y6370810D01*
X2616684Y6366011D01*
X2614299Y6362442D01*
X2614222Y6362357D01*
X2614196Y6362286D01*
X2612074Y6359111D01*
X2610938Y6353401D01*
X2610743Y6352870D01*
X2610759Y6352499D01*
X2610102Y6349200D01*
Y6249200D01*
X2610630Y6246550D01*
X2610620Y6246421D01*
X2610710Y6246144D01*
X2610759Y6245902D01*
X2610743Y6245530D01*
X2610938Y6244997D01*
X2612074Y6239289D01*
X2614195Y6236115D01*
X2614221Y6236043D01*
X2614300Y6235957D01*
X2617688Y6230888D01*
X2610772Y6220234D01*
X2456119Y6065581D01*
X2442084Y6044576D01*
X2437156Y6019800D01*
Y3784600D01*
X2442084Y3759824D01*
X2456119Y3738819D01*
X2586894Y3608044D01*
X2581633Y3595344D01*
X2465218D01*
X2176542Y3884020D01*
X2175913Y3884767D01*
X2171992Y3890082D01*
X2168724Y3895231D01*
X2166072Y3900209D01*
X2163997Y3905015D01*
X2162453Y3909668D01*
X2161396Y3914203D01*
X2160792Y3918676D01*
X2160574Y3924386D01*
X2160100Y3926373D01*
Y3939493D01*
X2152235Y3968843D01*
X2137043Y3995157D01*
X2115557Y4016643D01*
X2089243Y4031835D01*
X2059893Y4039700D01*
X2029507D01*
X2000157Y4031835D01*
X1973843Y4016643D01*
X1952357Y3995157D01*
X1937165Y3968843D01*
X1929300Y3939493D01*
Y3909107D01*
X1937165Y3879757D01*
X1952357Y3853443D01*
X1973843Y3831957D01*
X2000157Y3816765D01*
X2029507Y3808900D01*
X2042627D01*
X2044614Y3808426D01*
X2050324Y3808208D01*
X2054797Y3807604D01*
X2059332Y3806548D01*
X2063985Y3805003D01*
X2068791Y3802928D01*
X2073769Y3800276D01*
X2078920Y3797007D01*
X2084233Y3793087D01*
X2084980Y3792458D01*
X2392619Y3484819D01*
X2398269Y3481044D01*
X2394416Y3468344D01*
X2249318D01*
X1868144Y3849518D01*
Y5421482D01*
X1922996Y5476334D01*
X1934382Y5469760D01*
X1929300Y5450793D01*
Y5420407D01*
X1937165Y5391057D01*
X1952357Y5364743D01*
X1973843Y5343257D01*
X2000157Y5328065D01*
X2029507Y5320200D01*
X2059893D01*
X2089243Y5328065D01*
X2115557Y5343257D01*
X2137043Y5364743D01*
X2152235Y5391057D01*
X2160100Y5420407D01*
Y5450793D01*
X2152235Y5480143D01*
X2137043Y5506457D01*
X2115557Y5527943D01*
X2089243Y5543135D01*
X2059893Y5551000D01*
X2029507D01*
X2010540Y5545918D01*
X2003966Y5557304D01*
X2004420Y5557758D01*
X2005167Y5558387D01*
X2010482Y5562308D01*
X2015631Y5565576D01*
X2020609Y5568228D01*
X2025415Y5570304D01*
X2030068Y5571848D01*
X2034603Y5572905D01*
X2039076Y5573509D01*
X2044786Y5573726D01*
X2046773Y5574200D01*
X2059893D01*
X2089243Y5582065D01*
X2115557Y5597258D01*
X2137043Y5618743D01*
X2152235Y5645058D01*
X2160100Y5674407D01*
Y5704793D01*
X2152235Y5734143D01*
X2137043Y5760457D01*
X2115557Y5781943D01*
X2089243Y5797136D01*
X2059893Y5805000D01*
X2029507D01*
X2000157Y5797136D01*
X1973843Y5781943D01*
X1952357Y5760457D01*
X1937165Y5734143D01*
X1929300Y5704793D01*
Y5691673D01*
X1928826Y5689686D01*
X1928608Y5683976D01*
X1928004Y5679503D01*
X1926948Y5674969D01*
X1925403Y5670316D01*
X1923328Y5665510D01*
X1920676Y5660531D01*
X1917407Y5655381D01*
X1913487Y5650067D01*
X1912858Y5649320D01*
X1757619Y5494081D01*
X1743584Y5473077D01*
X1738656Y5448300D01*
Y3822700D01*
X1743584Y3797924D01*
X1757619Y3776919D01*
X2176719Y3357819D01*
X2197723Y3343784D01*
X2209991Y3341344D01*
X2208740Y3328644D01*
X2122318D01*
X1677644Y3773318D01*
Y6158082D01*
X2678481Y7158919D01*
X2692516Y7179923D01*
X2697444Y7204700D01*
Y7612029D01*
X2697494Y7614465D01*
X2698845Y7632843D01*
X2699671Y7639340D01*
X2700547Y7644182D01*
X2701178Y7646579D01*
X2701473Y7647258D01*
X2704127Y7651230D01*
X2704817Y7654698D01*
X2705040Y7655181D01*
X2705053Y7655498D01*
X2705180Y7655788D01*
X2705193Y7656593D01*
X2706098Y7661140D01*
Y7731260D01*
X2705193Y7735807D01*
X2705180Y7736613D01*
X2705054Y7736903D01*
X2705040Y7737220D01*
X2704816Y7737703D01*
X2704127Y7741170D01*
X2701474Y7745141D01*
X2701177Y7745822D01*
X2700547Y7748217D01*
X2699824Y7752215D01*
X2697869Y7784664D01*
X2698845Y7797943D01*
X2699671Y7804440D01*
X2700547Y7809282D01*
X2701178Y7811679D01*
X2701473Y7812358D01*
X2704127Y7816330D01*
X2704817Y7819798D01*
X2705040Y7820281D01*
X2705053Y7820598D01*
X2705180Y7820888D01*
X2705193Y7821693D01*
X2706098Y7826240D01*
Y7896360D01*
X2704127Y7906270D01*
X2698513Y7914672D01*
X2683572Y7929613D01*
X2675170Y7935227D01*
X2665260Y7937198D01*
X2585200Y7937198D01*
X2575289Y7935226D01*
X2566888Y7929613D01*
X2561274Y7921211D01*
X2559302Y7911300D01*
Y7811300D01*
X2559959Y7808002D01*
X2559943Y7807630D01*
X2560138Y7807097D01*
X2561274Y7801389D01*
X2563395Y7798215D01*
X2563421Y7798143D01*
X2563500Y7798057D01*
X2565682Y7794792D01*
X2567041Y7773586D01*
X2566583Y7767810D01*
X2565885Y7763011D01*
X2563499Y7759442D01*
X2563422Y7759357D01*
X2563396Y7759286D01*
X2561274Y7756111D01*
X2560138Y7750401D01*
X2559943Y7749870D01*
X2559959Y7749499D01*
X2559302Y7746200D01*
Y7646200D01*
X2559959Y7642902D01*
X2559943Y7642530D01*
X2560138Y7641997D01*
X2561274Y7636289D01*
X2563395Y7633115D01*
X2563421Y7633043D01*
X2563500Y7632957D01*
X2565682Y7629692D01*
X2567956Y7594212D01*
Y7231518D01*
X2170441Y6834003D01*
X2159442Y6840353D01*
X2160100Y6842807D01*
Y6873193D01*
X2152235Y6902543D01*
X2137043Y6928857D01*
X2115557Y6950343D01*
X2089243Y6965535D01*
X2059893Y6973400D01*
X2029507D01*
X2000157Y6965535D01*
X1973843Y6950343D01*
X1952357Y6928857D01*
X1937165Y6902543D01*
X1929300Y6873193D01*
Y6842807D01*
X1937165Y6813457D01*
X1952357Y6787143D01*
X1973843Y6765657D01*
X2000157Y6750465D01*
X2029507Y6742600D01*
X2059893D01*
X2062347Y6743258D01*
X2068697Y6732259D01*
X1567119Y6230681D01*
X1553084Y6209676D01*
X1548156Y6184900D01*
Y3746500D01*
X1553084Y3721724D01*
X1567119Y3700719D01*
X2040794Y3227044D01*
X2035533Y3214344D01*
X2020718D01*
X1512544Y3722518D01*
Y6742282D01*
X1817518Y7047256D01*
X1922994D01*
X1923963Y7047173D01*
X1930495Y7046187D01*
X1936446Y7044857D01*
X1941842Y7043212D01*
X1946708Y7041281D01*
X1951090Y7039083D01*
X1955046Y7036622D01*
X1958633Y7033888D01*
X1962825Y7030004D01*
X1964566Y7028934D01*
X1973843Y7019658D01*
X2000157Y7004465D01*
X2029507Y6996600D01*
X2059893D01*
X2089243Y7004465D01*
X2115557Y7019658D01*
X2137043Y7041143D01*
X2152235Y7067458D01*
X2160100Y7096807D01*
Y7127193D01*
X2152235Y7156543D01*
X2137043Y7182857D01*
X2115557Y7204343D01*
X2089243Y7219536D01*
X2059893Y7227400D01*
X2029507D01*
X2000157Y7219536D01*
X1973843Y7204343D01*
X1964566Y7195066D01*
X1962825Y7193996D01*
X1958633Y7190112D01*
X1955044Y7187378D01*
X1951090Y7184918D01*
X1946708Y7182719D01*
X1941842Y7180788D01*
X1936446Y7179143D01*
X1930494Y7177813D01*
X1923963Y7176828D01*
X1922993Y7176744D01*
X1790700D01*
X1765924Y7171816D01*
X1744919Y7157781D01*
X1402019Y6814881D01*
X1387984Y6793876D01*
X1383056Y6769100D01*
Y4906805D01*
X1370356Y4901544D01*
X1353557Y4918343D01*
X1327243Y4933535D01*
X1320800Y4935262D01*
Y4826000D01*
Y4716738D01*
X1327243Y4718465D01*
X1353557Y4733657D01*
X1370356Y4750456D01*
X1383056Y4745195D01*
Y4652805D01*
X1370356Y4647544D01*
X1353557Y4664343D01*
X1327243Y4679535D01*
X1320800Y4681262D01*
Y4572000D01*
Y4462738D01*
X1327243Y4464465D01*
X1353557Y4479657D01*
X1370356Y4496456D01*
X1383056Y4491195D01*
Y4398805D01*
X1370356Y4393544D01*
X1353557Y4410343D01*
X1327243Y4425535D01*
X1320800Y4427262D01*
Y4318000D01*
Y4208738D01*
X1327243Y4210465D01*
X1353557Y4225657D01*
X1370356Y4242456D01*
X1383056Y4237195D01*
Y4144805D01*
X1370356Y4139544D01*
X1353557Y4156343D01*
X1327243Y4171535D01*
X1320800Y4173262D01*
Y4064000D01*
Y3954738D01*
X1327243Y3956465D01*
X1353557Y3971657D01*
X1370356Y3988456D01*
X1383056Y3983195D01*
Y3890805D01*
X1370356Y3885544D01*
X1353557Y3902343D01*
X1327243Y3917535D01*
X1320800Y3919262D01*
Y3810000D01*
Y3700738D01*
X1327243Y3702465D01*
X1353557Y3717657D01*
X1370356Y3734456D01*
X1383056Y3729195D01*
Y3695700D01*
X1387984Y3670924D01*
X1402019Y3649919D01*
X1948119Y3103819D01*
X1969124Y3089784D01*
X1993900Y3084856D01*
X2767182D01*
X2948965Y2903073D01*
X2950092Y2901696D01*
X2953567Y2896713D01*
X2956257Y2892042D01*
X2958231Y2887699D01*
X2959574Y2883669D01*
X2960373Y2879897D01*
X2960698Y2876292D01*
X2960586Y2872721D01*
X2959795Y2867562D01*
X2959828Y2866816D01*
X2958000Y2859992D01*
Y2829607D01*
X2965865Y2800257D01*
X2981057Y2773942D01*
X3002543Y2752457D01*
X3028857Y2737264D01*
X3058207Y2729400D01*
X3088593D01*
X3117943Y2737264D01*
X3144257Y2752457D01*
X3165743Y2773942D01*
X3180935Y2800257D01*
X3188800Y2829607D01*
Y2859992D01*
X3180935Y2889342D01*
X3165743Y2915657D01*
X3144257Y2937142D01*
X3117943Y2952335D01*
X3097822Y2957726D01*
X3096384Y2958379D01*
X3090853Y2959675D01*
X3086180Y2961152D01*
X3081358Y2963069D01*
X3076374Y2965455D01*
X3071231Y2968333D01*
X3065928Y2971728D01*
X3060734Y2975472D01*
X3054173Y2980989D01*
X2848706Y3186456D01*
X2853967Y3199156D01*
X3155672D01*
X3455138Y2899690D01*
X3456207Y2898389D01*
X3459766Y2893333D01*
X3462567Y2888553D01*
X3464672Y2884059D01*
X3466155Y2879839D01*
X3467092Y2875845D01*
X3467547Y2872001D01*
X3467556Y2868197D01*
X3467086Y2864045D01*
X3466000Y2859993D01*
Y2829607D01*
X3473865Y2800257D01*
X3489057Y2773943D01*
X3510543Y2752457D01*
X3536857Y2737264D01*
X3566207Y2729400D01*
X3596593D01*
X3625943Y2737264D01*
X3652257Y2752457D01*
X3673743Y2773943D01*
X3688935Y2800257D01*
X3696800Y2829607D01*
Y2842264D01*
X3699496Y2844772D01*
X3709500Y2848651D01*
X3716729Y2843820D01*
X3720000Y2840549D01*
Y2829607D01*
X3727865Y2800257D01*
X3743057Y2773943D01*
X3764543Y2752457D01*
X3790857Y2737264D01*
X3820207Y2729400D01*
X3850593D01*
X3879943Y2737264D01*
X3906257Y2752457D01*
X3927743Y2773943D01*
X3942935Y2800257D01*
X3950800Y2829607D01*
Y2837622D01*
X3963500Y2844410D01*
X3974000Y2837394D01*
Y2829607D01*
X3981865Y2800257D01*
X3997057Y2773943D01*
X4018543Y2752457D01*
X4044857Y2737264D01*
X4074207Y2729400D01*
X4104593D01*
X4133943Y2737264D01*
X4160257Y2752457D01*
X4181743Y2773943D01*
X4196935Y2800257D01*
X4204800Y2829607D01*
Y2859993D01*
X4199718Y2878959D01*
X4211104Y2885533D01*
X4211558Y2885080D01*
X4212187Y2884333D01*
X4216108Y2879018D01*
X4219376Y2873869D01*
X4222028Y2868890D01*
X4224103Y2864084D01*
X4225647Y2859432D01*
X4226704Y2854896D01*
X4227308Y2850423D01*
X4227526Y2844714D01*
X4228000Y2842727D01*
Y2829607D01*
X4235865Y2800257D01*
X4251057Y2773942D01*
X4272543Y2752457D01*
X4298857Y2737264D01*
X4328207Y2729400D01*
X4358593D01*
X4387943Y2737264D01*
X4414257Y2752457D01*
X4435743Y2773942D01*
X4450935Y2800257D01*
X4458800Y2829607D01*
Y2859992D01*
X4453718Y2878960D01*
X4465104Y2885534D01*
X4465558Y2885080D01*
X4466187Y2884333D01*
X4470108Y2879018D01*
X4473376Y2873869D01*
X4476028Y2868890D01*
X4478103Y2864084D01*
X4479647Y2859432D01*
X4480704Y2854896D01*
X4481308Y2850423D01*
X4481526Y2844714D01*
X4482000Y2842727D01*
Y2829607D01*
X4489865Y2800257D01*
X4505057Y2773943D01*
X4526543Y2752457D01*
X4552857Y2737264D01*
X4582207Y2729400D01*
X4612593D01*
X4641943Y2737264D01*
X4668257Y2752457D01*
X4689743Y2773943D01*
X4704935Y2800257D01*
X4712800Y2829607D01*
Y2859993D01*
X4704935Y2889342D01*
X4689743Y2915657D01*
X4668257Y2937142D01*
X4641943Y2952335D01*
X4612593Y2960200D01*
X4599473D01*
X4597486Y2960674D01*
X4591776Y2960891D01*
X4587303Y2961495D01*
X4582768Y2962552D01*
X4578115Y2964096D01*
X4573309Y2966172D01*
X4568331Y2968824D01*
X4563180Y2972093D01*
X4557867Y2976013D01*
X4557120Y2976642D01*
X4236781Y3296981D01*
X4215776Y3311016D01*
X4203509Y3313456D01*
X4204760Y3326156D01*
X4354682D01*
X4762120Y2918719D01*
X4759057Y2915657D01*
X4743865Y2889342D01*
X4736000Y2859993D01*
Y2829607D01*
X4743865Y2800257D01*
X4759057Y2773943D01*
X4780543Y2752457D01*
X4806857Y2737264D01*
X4836207Y2729400D01*
X4866593D01*
X4895943Y2737264D01*
X4922257Y2752457D01*
X4943743Y2773943D01*
X4958935Y2800257D01*
X4966800Y2829607D01*
Y2859993D01*
X4958935Y2889342D01*
X4943743Y2915657D01*
X4922257Y2937142D01*
X4895943Y2952335D01*
X4893891Y2952885D01*
X4891355Y2965638D01*
X4877320Y2986642D01*
X4427281Y3436681D01*
X4406277Y3450716D01*
X4381500Y3455644D01*
X4027318D01*
X4004539Y3478423D01*
X4009400Y3490156D01*
X4152982D01*
X4158512Y3491256D01*
X4274288D01*
X4279818Y3490156D01*
X4457382D01*
X5020795Y2926743D01*
Y2923394D01*
X5013057Y2915657D01*
X4997865Y2889342D01*
X4990000Y2859993D01*
Y2829607D01*
X4997865Y2800257D01*
X5013057Y2773943D01*
X5034543Y2752457D01*
X5060857Y2737264D01*
X5090207Y2729400D01*
X5120593D01*
X5149943Y2737264D01*
X5176257Y2752457D01*
X5197743Y2773943D01*
X5212935Y2800257D01*
X5220800Y2829607D01*
Y2859993D01*
X5212935Y2889342D01*
X5197743Y2915657D01*
X5176257Y2937142D01*
X5150283Y2952139D01*
Y2953561D01*
X5145355Y2978337D01*
X5131320Y2999342D01*
X4532994Y3597668D01*
X4540792Y3607830D01*
X4552857Y3600865D01*
X4582207Y3593000D01*
X4612593D01*
X4641943Y3600865D01*
X4668257Y3616057D01*
X4689743Y3637543D01*
X4704935Y3663857D01*
X4712800Y3693207D01*
Y3723593D01*
X4704935Y3752943D01*
X4689743Y3779257D01*
X4668257Y3800743D01*
X4641943Y3815935D01*
X4612593Y3823800D01*
X4582207D01*
X4552857Y3815935D01*
X4526543Y3800743D01*
X4505057Y3779257D01*
X4489865Y3752943D01*
X4482000Y3723593D01*
Y3693207D01*
X4489865Y3663857D01*
X4505057Y3637543D01*
X4519928Y3622672D01*
X4511832Y3612808D01*
X4508977Y3614716D01*
X4484200Y3619644D01*
X4434437D01*
X4429577Y3631377D01*
X4435743Y3637543D01*
X4450935Y3663857D01*
X4458800Y3693207D01*
Y3723593D01*
X4450935Y3752943D01*
X4435743Y3779257D01*
X4414257Y3800743D01*
X4387943Y3815935D01*
X4358593Y3823800D01*
X4328207D01*
X4298857Y3815935D01*
X4272543Y3800743D01*
X4251057Y3779257D01*
X4235865Y3752943D01*
X4228000Y3723593D01*
Y3693207D01*
X4235865Y3663857D01*
X4251057Y3637543D01*
X4256123Y3632477D01*
X4251263Y3620744D01*
X4181537D01*
X4176677Y3632477D01*
X4181742Y3637543D01*
X4196935Y3663857D01*
X4204800Y3693207D01*
Y3723593D01*
X4196935Y3752943D01*
X4181742Y3779257D01*
X4160257Y3800743D01*
X4133942Y3815935D01*
X4104593Y3823800D01*
X4074207D01*
X4044857Y3815935D01*
X4018543Y3800743D01*
X3997057Y3779257D01*
X3981864Y3752943D01*
X3974000Y3723593D01*
Y3693207D01*
X3979082Y3674241D01*
X3967696Y3667666D01*
X3830261Y3805101D01*
Y4095784D01*
X3825332Y4120560D01*
X3811297Y4141564D01*
X3411281Y4541581D01*
X3390276Y4555616D01*
X3365500Y4560544D01*
X3099677D01*
X3099573Y4560700D01*
X3106361Y4573400D01*
X3275000D01*
Y4638694D01*
X3275065Y4638906D01*
X3276540Y4653682D01*
X3280106Y4664798D01*
X3286210Y4675403D01*
X3295349Y4685879D01*
X3308003Y4696231D01*
X3324454Y4706249D01*
X3344791Y4715691D01*
X3369010Y4724367D01*
X3397049Y4732135D01*
X3410911Y4735088D01*
X4099408Y4863000D01*
X4104593D01*
X4133943Y4870864D01*
X4160257Y4886057D01*
X4181743Y4907543D01*
X4196936Y4933857D01*
X4204800Y4963207D01*
Y4993593D01*
X4196936Y5022942D01*
X4181743Y5049257D01*
X4160257Y5070742D01*
X4159878Y5070962D01*
X3976086Y5254753D01*
Y9045447D01*
X4210678Y9280038D01*
X4211057Y9280257D01*
X4232543Y9301743D01*
X4247735Y9328057D01*
X4255600Y9357407D01*
Y9387793D01*
X4252786Y9398293D01*
Y11243665D01*
X4253157Y11257766D01*
X4255666Y11286258D01*
X4259739Y11310737D01*
X4265213Y11331104D01*
X4268893Y11340114D01*
X4343400D01*
X4373238Y11344042D01*
X4401043Y11355559D01*
X4424920Y11373880D01*
X4443241Y11397757D01*
X4454758Y11425562D01*
X4458686Y11455400D01*
X4458605Y11456018D01*
X4458695Y11456604D01*
X4460763Y11462080D01*
X4465483Y11470918D01*
X4472353Y11481498D01*
X4544435Y11564873D01*
X4605081Y11625519D01*
X4619116Y11646524D01*
X4624044Y11671300D01*
Y12217400D01*
X4619116Y12242177D01*
X4605081Y12263181D01*
X4352938Y12515324D01*
X4353625Y12520453D01*
X4355088Y12527211D01*
X4356634Y12531908D01*
X4357416Y12533500D01*
X4379400D01*
Y12558190D01*
X4379592Y12559147D01*
X4379400Y12560126D01*
Y12790300D01*
X4121600D01*
Y12533500D01*
X4216441D01*
X4216457Y12533481D01*
X4217797Y12531062D01*
X4219463Y12526573D01*
X4221062Y12520027D01*
X4222346Y12511541D01*
X4222719Y12506879D01*
Y12489237D01*
X4227647Y12464460D01*
X4241682Y12443456D01*
X4494556Y12190582D01*
Y11698118D01*
X4447339Y11650901D01*
X4417191Y11622797D01*
X4383782Y11594815D01*
X4370341Y11584900D01*
X4358919Y11577484D01*
X4350080Y11572764D01*
X4344604Y11570695D01*
X4344018Y11570605D01*
X4343400Y11570686D01*
X3839447D01*
X3809609Y11566758D01*
X3781804Y11555241D01*
X3757927Y11536920D01*
X3595094Y11374086D01*
X3556210D01*
X3549421Y11386786D01*
X3550827Y11388889D01*
X3552798Y11398800D01*
Y11410700D01*
X3356003D01*
Y11398800D01*
X3357974Y11388889D01*
X3359379Y11386786D01*
X3352591Y11374086D01*
X3327610D01*
X3320821Y11386786D01*
X3322226Y11388889D01*
X3324198Y11398800D01*
Y11410700D01*
X3127402D01*
Y11398800D01*
X3129374Y11388889D01*
X3130779Y11386786D01*
X3123990Y11374086D01*
X3099010D01*
X3092221Y11386786D01*
X3093626Y11388889D01*
X3095598Y11398800D01*
Y11410700D01*
X2898802D01*
Y11398800D01*
X2900076Y11392398D01*
X2894385Y11382460D01*
X2891641Y11379698D01*
X2825779D01*
X2822835Y11392398D01*
X2838341Y11402759D01*
X2839572Y11404600D01*
X2755900D01*
Y11442700D01*
X2717800D01*
Y11499185D01*
X2713400D01*
X2691784Y11494886D01*
X2673459Y11482641D01*
X2667498Y11473720D01*
X2654798Y11477572D01*
Y11530440D01*
X2694065Y11556618D01*
X2695881Y11558430D01*
X2698012Y11559854D01*
X2699422Y11561964D01*
X2701218Y11563756D01*
X2702202Y11566124D01*
X2703626Y11568256D01*
X2704121Y11570744D01*
X2705095Y11573088D01*
X2705097Y11575652D01*
X2705598Y11578167D01*
Y11899900D01*
X2705103Y11902388D01*
X2705105Y11904926D01*
X2704126Y11907296D01*
X2703626Y11909811D01*
X2702216Y11911921D01*
X2701248Y11914265D01*
X2675848Y11952365D01*
X2674037Y11954181D01*
X2672612Y11956312D01*
X2670503Y11957722D01*
X2668710Y11959518D01*
X2666342Y11960502D01*
X2664211Y11961926D01*
X2661722Y11962421D01*
X2659379Y11963395D01*
X2656815Y11963397D01*
X2654300Y11963898D01*
X2315633D01*
X2313118Y11963397D01*
X2310554Y11963395D01*
X2308211Y11962421D01*
X2305723Y11961926D01*
X2303591Y11960502D01*
X2301222Y11959518D01*
X2299431Y11957722D01*
X2297321Y11956312D01*
X2295896Y11954180D01*
X2294085Y11952365D01*
X2264452Y11907915D01*
X2263484Y11905570D01*
X2262074Y11903460D01*
X2261574Y11900945D01*
X2260595Y11898575D01*
X2260597Y11896038D01*
X2260102Y11893550D01*
Y11578167D01*
X2260603Y11575652D01*
X2260605Y11573088D01*
X2261579Y11570744D01*
X2262074Y11568256D01*
X2263498Y11566124D01*
X2264482Y11563756D01*
X2266278Y11561964D01*
X2267688Y11559854D01*
X2269819Y11558430D01*
X2271635Y11556618D01*
X2310902Y11530440D01*
Y11479219D01*
X2298202Y11475366D01*
X2293341Y11482641D01*
X2275016Y11494886D01*
X2253400Y11499185D01*
X2242261D01*
X2237276Y11502516D01*
X2212500Y11507444D01*
X2064626D01*
X2058542Y11507936D01*
X2049176Y11509367D01*
X2041877Y11511168D01*
X2036757Y11513088D01*
X2033824Y11514731D01*
X2032998Y11515434D01*
Y11515860D01*
X2032583Y11517947D01*
X2032499Y11518678D01*
X2032338Y11519180D01*
X2032062Y11520563D01*
X2032043Y11521378D01*
X2031784Y11521964D01*
X2031027Y11525770D01*
X2029477Y11528089D01*
X2029410Y11528299D01*
X2029068Y11528703D01*
X2028286Y11529872D01*
X2027956Y11530619D01*
X2027491Y11531062D01*
X2025413Y11534172D01*
X2010472Y11549113D01*
X2002070Y11554727D01*
X1992160Y11556698D01*
X1912100Y11556698D01*
X1902189Y11554726D01*
X1893788Y11549113D01*
X1888174Y11540711D01*
X1886202Y11530800D01*
Y11430800D01*
X1888174Y11420889D01*
X1893788Y11412487D01*
X1902189Y11406874D01*
X1912100Y11404902D01*
X1943936D01*
X1951919Y11396919D01*
X1959883Y11391598D01*
X1956030Y11378898D01*
X1912100D01*
X1902189Y11376926D01*
X1893788Y11371313D01*
X1888174Y11362911D01*
X1886202Y11353000D01*
Y11253000D01*
X1888174Y11243089D01*
X1893788Y11234687D01*
X1902189Y11229074D01*
X1912100Y11227102D01*
X1953347D01*
X1958207Y11215369D01*
X1943936Y11201098D01*
X1912100D01*
X1902189Y11199126D01*
X1893788Y11193513D01*
X1888174Y11185111D01*
X1886202Y11175200D01*
Y11075200D01*
X1888174Y11065289D01*
X1893788Y11056887D01*
X1902189Y11051274D01*
X1906014Y11050513D01*
X1910479Y11037017D01*
X1876947Y11003484D01*
X1872788Y10999610D01*
X1870665Y10997898D01*
X1817840D01*
X1807930Y10995926D01*
X1799528Y10990313D01*
X1784587Y10975372D01*
X1778973Y10966970D01*
X1777002Y10957060D01*
Y10886940D01*
X1778026Y10881791D01*
X1778060Y10880980D01*
X1778284Y10880497D01*
X1778366Y10880084D01*
X1778400Y10879717D01*
X1778463Y10879598D01*
X1778973Y10877030D01*
X1781967Y10872548D01*
X1782309Y10871812D01*
X1782700Y10871452D01*
X1782936Y10871099D01*
X1783106Y10870776D01*
X1783369Y10870452D01*
X1784587Y10868628D01*
X1785199Y10868016D01*
X1785823Y10866901D01*
X1787240Y10863381D01*
X1788783Y10858134D01*
X1790256Y10851294D01*
X1791474Y10843444D01*
X1793256Y10817839D01*
Y10817490D01*
X1791509Y10797586D01*
X1790257Y10789510D01*
X1788783Y10782665D01*
X1787240Y10777419D01*
X1785823Y10773899D01*
X1785199Y10772784D01*
X1784587Y10772172D01*
X1783368Y10770348D01*
X1783105Y10770023D01*
X1782935Y10769699D01*
X1782700Y10769347D01*
X1782309Y10768987D01*
X1781968Y10768252D01*
X1778973Y10763770D01*
X1778462Y10761201D01*
X1778399Y10761081D01*
X1778366Y10760715D01*
X1778283Y10760302D01*
X1778060Y10759819D01*
X1778026Y10759009D01*
X1777002Y10753860D01*
Y10683740D01*
X1778026Y10678591D01*
X1778060Y10677780D01*
X1778284Y10677297D01*
X1778366Y10676884D01*
X1778400Y10676517D01*
X1778463Y10676398D01*
X1778973Y10673830D01*
X1781967Y10669348D01*
X1782309Y10668612D01*
X1782700Y10668252D01*
X1782936Y10667899D01*
X1783106Y10667576D01*
X1783369Y10667252D01*
X1784587Y10665428D01*
X1785199Y10664816D01*
X1785823Y10663701D01*
X1787240Y10660181D01*
X1788783Y10654934D01*
X1790256Y10648094D01*
X1791474Y10640244D01*
X1793256Y10614639D01*
Y10606211D01*
X1793207Y10603905D01*
X1791883Y10587210D01*
X1791185Y10582411D01*
X1788800Y10578843D01*
X1788721Y10578757D01*
X1788695Y10578685D01*
X1786574Y10575511D01*
X1785438Y10569803D01*
X1785243Y10569270D01*
X1785259Y10568898D01*
X1784602Y10565600D01*
Y10465600D01*
X1786574Y10455689D01*
X1792188Y10447287D01*
X1800589Y10441674D01*
X1810500Y10439702D01*
X1890560D01*
X1900470Y10441674D01*
X1908872Y10447287D01*
X1923813Y10462228D01*
X1929426Y10470630D01*
X1931398Y10480540D01*
Y10550660D01*
X1930493Y10555207D01*
X1930479Y10556012D01*
X1930353Y10556303D01*
X1930340Y10556619D01*
X1930116Y10557103D01*
X1929426Y10560570D01*
X1926773Y10564541D01*
X1926478Y10565221D01*
X1925847Y10567618D01*
X1925123Y10571615D01*
X1922744Y10611117D01*
Y10661183D01*
X1922875Y10664093D01*
X1922892Y10664248D01*
X1922962Y10664599D01*
X1923157Y10665130D01*
X1923141Y10665501D01*
X1923798Y10668800D01*
Y10768800D01*
X1923430Y10770646D01*
X1922744Y10806220D01*
Y10864383D01*
X1922875Y10867293D01*
X1922892Y10867448D01*
X1922962Y10867799D01*
X1923157Y10868330D01*
X1923141Y10868701D01*
X1923798Y10872000D01*
Y10926832D01*
X1924302Y10927185D01*
X1937002Y10920564D01*
Y10872000D01*
X1938974Y10862089D01*
X1944588Y10853687D01*
X1952989Y10848074D01*
X1962900Y10846102D01*
X2042960D01*
X2052870Y10848074D01*
X2060240Y10852998D01*
X2174256Y10738982D01*
Y10606211D01*
X2174207Y10603905D01*
X2172883Y10587210D01*
X2172185Y10582411D01*
X2169800Y10578843D01*
X2169721Y10578757D01*
X2169695Y10578685D01*
X2167574Y10575511D01*
X2166438Y10569803D01*
X2166243Y10569270D01*
X2166259Y10568898D01*
X2165602Y10565600D01*
Y10487097D01*
X2165098Y10486760D01*
X2152398Y10493548D01*
Y10565600D01*
X2150426Y10575511D01*
X2144812Y10583913D01*
X2136411Y10589526D01*
X2126500Y10591498D01*
X2094664D01*
X2075144Y10611018D01*
Y10634629D01*
X2075194Y10637065D01*
X2076545Y10655441D01*
X2077371Y10661942D01*
X2078247Y10666783D01*
X2078878Y10669180D01*
X2079173Y10669858D01*
X2081826Y10673830D01*
X2082516Y10677298D01*
X2082740Y10677781D01*
X2082753Y10678097D01*
X2082879Y10678388D01*
X2082893Y10679192D01*
X2083798Y10683740D01*
Y10753860D01*
X2081826Y10763770D01*
X2076213Y10772172D01*
X2061272Y10787112D01*
X2052871Y10792726D01*
X2042960Y10794698D01*
X1962900D01*
X1952989Y10792726D01*
X1944588Y10787113D01*
X1938974Y10778711D01*
X1937002Y10768800D01*
Y10668800D01*
X1937659Y10665502D01*
X1937643Y10665130D01*
X1937838Y10664597D01*
X1938974Y10658889D01*
X1941095Y10655715D01*
X1941121Y10655643D01*
X1941200Y10655557D01*
X1943382Y10652292D01*
X1945656Y10616812D01*
Y10584200D01*
X1950584Y10559423D01*
X1964619Y10538419D01*
X2005602Y10497436D01*
Y10480540D01*
X2007573Y10470630D01*
X2013187Y10462228D01*
X2028128Y10447287D01*
X2036530Y10441673D01*
X2046440Y10439702D01*
X2113280Y10439702D01*
X2118540Y10427002D01*
X2043282Y10351744D01*
X1304795D01*
X1194786Y10461753D01*
Y11231485D01*
X1227035Y11263733D01*
X1245356Y11287610D01*
X1256873Y11315415D01*
X1260801Y11345253D01*
Y11454902D01*
X1397000D01*
X1400185Y11455536D01*
X1403427Y11455713D01*
X1405095Y11456513D01*
X1406911Y11456874D01*
X1409611Y11458678D01*
X1412538Y11460082D01*
X1463338Y11498182D01*
X1464573Y11499559D01*
X1466112Y11500588D01*
X1467917Y11503288D01*
X1470084Y11505705D01*
X1470698Y11507451D01*
X1471726Y11508989D01*
X1472360Y11512175D01*
X1473437Y11515238D01*
X1473337Y11517085D01*
X1473698Y11518900D01*
Y11734800D01*
X1473415Y11736219D01*
X1473539Y11737660D01*
X1472437Y11741135D01*
X1471726Y11744711D01*
X1470923Y11745913D01*
X1470486Y11747292D01*
X1468138Y11750081D01*
X1466112Y11753112D01*
X1464910Y11753916D01*
X1463978Y11755023D01*
X1400478Y11805823D01*
X1397242Y11807501D01*
X1394211Y11809526D01*
X1392792Y11809808D01*
X1391508Y11810474D01*
X1387875Y11810787D01*
X1384300Y11811498D01*
X1176241D01*
X1118098Y11850260D01*
Y12346467D01*
X1130770Y12353273D01*
X1140680Y12351302D01*
X1155700D01*
Y12427200D01*
X1193800D01*
Y12465300D01*
X1292198D01*
Y12477200D01*
X1290226Y12487111D01*
X1284612Y12495512D01*
X1283430Y12496302D01*
X1287283Y12509002D01*
X1379717D01*
X1383570Y12496302D01*
X1382388Y12495512D01*
X1376774Y12487111D01*
X1374802Y12477200D01*
Y12465300D01*
X1473200D01*
X1571598D01*
Y12477200D01*
X1569626Y12487111D01*
X1564012Y12495512D01*
X1562830Y12496302D01*
X1566683Y12509002D01*
X1659117D01*
X1662970Y12496302D01*
X1661788Y12495512D01*
X1656174Y12487111D01*
X1654202Y12477200D01*
Y12465300D01*
X1752600D01*
X1850998D01*
Y12477200D01*
X1849026Y12487111D01*
X1843412Y12495512D01*
X1842230Y12496302D01*
X1846083Y12509002D01*
X2149514D01*
X2307372Y12375430D01*
X2310867Y12373493D01*
X2314189Y12371274D01*
X2315257Y12371061D01*
X2316211Y12370533D01*
X2320182Y12370082D01*
X2324100Y12369302D01*
X2654300D01*
X2657765Y12369992D01*
X2661289Y12370263D01*
X2662680Y12370969D01*
X2664211Y12371274D01*
X2667149Y12373237D01*
X2670300Y12374836D01*
X2841057Y12509002D01*
X3342132D01*
X3344360Y12509446D01*
X3346633Y12509396D01*
X3349269Y12510422D01*
X3352043Y12510974D01*
X3353932Y12512236D01*
X3356050Y12513060D01*
X3358092Y12515016D01*
X3360444Y12516588D01*
X3361707Y12518477D01*
X3363348Y12520049D01*
X3386716Y12553431D01*
X3387855Y12556020D01*
X3389426Y12558372D01*
X3389870Y12560601D01*
X3390784Y12562681D01*
X3390846Y12565509D01*
X3391398Y12568283D01*
X3391397Y12783094D01*
X3391126Y12784458D01*
X3391251Y12785842D01*
X3390148Y12789374D01*
X3389426Y12793005D01*
X3388653Y12794161D01*
X3388239Y12795488D01*
X3385869Y12798328D01*
X3383812Y12801405D01*
X3382656Y12802179D01*
X3381765Y12803246D01*
X3280166Y12885252D01*
X3276889Y12886969D01*
X3273811Y12889026D01*
X3272447Y12889297D01*
X3271216Y12889943D01*
X3267531Y12890276D01*
X3263900Y12890997D01*
D02*
G37*
G36*
X4006400Y12790300D02*
X3748600D01*
Y12761274D01*
X3748550Y12761111D01*
X3748107Y12756904D01*
X3747913Y12756357D01*
X3747590Y12755872D01*
X3746393Y12754760D01*
X3743524Y12753007D01*
X3738570Y12750981D01*
X3731460Y12749066D01*
X3722263Y12747534D01*
X3715586Y12746944D01*
X3690971D01*
X3688535Y12746994D01*
X3670159Y12748345D01*
X3663658Y12749171D01*
X3658817Y12750047D01*
X3656420Y12750678D01*
X3655742Y12750973D01*
X3651770Y12753627D01*
X3648302Y12754316D01*
X3647819Y12754540D01*
X3647503Y12754553D01*
X3647212Y12754679D01*
X3646408Y12754693D01*
X3641860Y12755598D01*
X3571740D01*
X3561830Y12753627D01*
X3553428Y12748013D01*
X3538488Y12733073D01*
X3532874Y12724671D01*
X3530902Y12714760D01*
Y12634700D01*
X3532874Y12624790D01*
X3538487Y12616388D01*
X3546889Y12610774D01*
X3556800Y12608803D01*
X3656800D01*
X3660098Y12609459D01*
X3660470Y12609443D01*
X3661003Y12609638D01*
X3666711Y12610774D01*
X3669885Y12612895D01*
X3669957Y12612921D01*
X3670043Y12613000D01*
X3673308Y12615182D01*
X3708788Y12617456D01*
X3715586D01*
X3722263Y12616867D01*
X3731460Y12615334D01*
X3738571Y12613420D01*
X3743524Y12611393D01*
X3746394Y12609640D01*
X3747590Y12608529D01*
X3747913Y12608044D01*
X3748107Y12607496D01*
X3748550Y12603289D01*
X3748600Y12603126D01*
Y12533500D01*
X3800996D01*
X3802773Y12533312D01*
X3803308Y12533123D01*
X3803790Y12532799D01*
X3804910Y12531589D01*
X3806674Y12528690D01*
X3808709Y12523696D01*
X3810630Y12516535D01*
X3812165Y12507285D01*
X3812756Y12500564D01*
Y12073700D01*
X3817684Y12048924D01*
X3831719Y12027919D01*
X3871821Y11987817D01*
X3885323Y11973300D01*
X3895135Y11961085D01*
X3902717Y11950246D01*
X3904600Y11946971D01*
Y11885500D01*
X4370400D01*
Y12041300D01*
X4010489D01*
X4004940Y12044480D01*
X3994547Y12051709D01*
X3971932Y12070830D01*
X3942244Y12100518D01*
Y12500563D01*
X3942835Y12507288D01*
X3944370Y12516535D01*
X3946290Y12523696D01*
X3948326Y12528690D01*
X3950090Y12531589D01*
X3951210Y12532799D01*
X3951693Y12533123D01*
X3952227Y12533312D01*
X3954004Y12533500D01*
X4006400D01*
Y12790300D01*
D02*
G37*
G36*
X3656800Y12595598D02*
X3644900D01*
Y12560300D01*
X3682698D01*
Y12569700D01*
X3680726Y12579611D01*
X3675113Y12588012D01*
X3666711Y12593626D01*
X3656800Y12595598D01*
D02*
G37*
G36*
X3568700D02*
X3556800D01*
X3546889Y12593626D01*
X3538487Y12588012D01*
X3532874Y12579611D01*
X3530902Y12569700D01*
Y12560300D01*
X3568700D01*
Y12595598D01*
D02*
G37*
G36*
Y12484100D02*
X3532004D01*
X3532874Y12479730D01*
X3538487Y12471328D01*
X3553428Y12456387D01*
X3561830Y12450773D01*
X3568700Y12449407D01*
Y12484100D01*
D02*
G37*
G36*
X3681596D02*
X3644900D01*
Y12449407D01*
X3651770Y12450773D01*
X3660172Y12456387D01*
X3675113Y12471328D01*
X3680727Y12479730D01*
X3681596Y12484100D01*
D02*
G37*
G36*
X3315800Y12410598D02*
X3263900D01*
Y12365302D01*
X3341698D01*
Y12384701D01*
X3339726Y12394611D01*
X3334112Y12403013D01*
X3325711Y12408627D01*
X3315800Y12410598D01*
D02*
G37*
G36*
X3187700D02*
X3135800D01*
X3125889Y12408627D01*
X3117488Y12403013D01*
X3111874Y12394611D01*
X3109902Y12384701D01*
Y12365302D01*
X3187700D01*
Y12410598D01*
D02*
G37*
G36*
X1849510Y12389100D02*
X1790700D01*
Y12351302D01*
X1805720D01*
X1815631Y12353273D01*
X1824032Y12358887D01*
X1843412Y12378268D01*
X1849026Y12386669D01*
X1849510Y12389100D01*
D02*
G37*
G36*
X1714500D02*
X1655690D01*
X1656174Y12386669D01*
X1661788Y12378268D01*
X1681168Y12358888D01*
X1681168Y12358887D01*
X1689570Y12353273D01*
X1699480Y12351302D01*
X1714500D01*
Y12389100D01*
D02*
G37*
G36*
X1570110D02*
X1511300D01*
Y12351302D01*
X1526320D01*
X1536231Y12353273D01*
X1544632Y12358887D01*
X1564012Y12378268D01*
X1569626Y12386669D01*
X1570110Y12389100D01*
D02*
G37*
G36*
X1435100D02*
X1376290D01*
X1376774Y12386669D01*
X1382388Y12378268D01*
X1401768Y12358888D01*
X1401768Y12358887D01*
X1410170Y12353273D01*
X1420080Y12351302D01*
X1435100D01*
Y12389100D01*
D02*
G37*
G36*
X1290710D02*
X1231900D01*
Y12351302D01*
X1246920D01*
X1256831Y12353273D01*
X1265232Y12358887D01*
X1284612Y12378268D01*
X1290226Y12386669D01*
X1290710Y12389100D01*
D02*
G37*
G36*
X3187700Y12289102D02*
X3111175D01*
X3111874Y12285590D01*
X3117488Y12277188D01*
X3143288Y12251388D01*
X3151689Y12245774D01*
X3161600Y12243803D01*
X3187700D01*
Y12289102D01*
D02*
G37*
G36*
X3340425D02*
X3263900D01*
Y12243803D01*
X3290000D01*
X3299911Y12245774D01*
X3308313Y12251388D01*
X3334113Y12277189D01*
X3339727Y12285591D01*
X3340425Y12289102D01*
D02*
G37*
G36*
X5798238Y12798800D02*
X5758762D01*
X5720045Y12791099D01*
X5683575Y12775992D01*
X5650752Y12754061D01*
X5622839Y12726148D01*
X5600908Y12693325D01*
X5585801Y12656855D01*
X5578100Y12618138D01*
Y12578662D01*
X5585801Y12539945D01*
X5600908Y12503475D01*
X5622839Y12470652D01*
X5650752Y12442739D01*
X5683575Y12420808D01*
X5720045Y12405701D01*
X5758762Y12398000D01*
X5776977D01*
X5778633Y12397562D01*
X5786542Y12397067D01*
X5793446Y12395700D01*
X5801299Y12393169D01*
X5810062Y12389346D01*
X5819676Y12384139D01*
X5830057Y12377507D01*
X5840899Y12369600D01*
X5863799Y12350061D01*
X5912980Y12300880D01*
X5936857Y12282559D01*
X5964662Y12271042D01*
X5994500Y12267113D01*
X5994502Y12267114D01*
X6020606D01*
X6034672Y12266473D01*
X6058589Y12263165D01*
X6082271Y12257644D01*
X6105771Y12249885D01*
X6129133Y12239851D01*
X6152377Y12227505D01*
X6175521Y12212803D01*
X6198552Y12195716D01*
X6221477Y12176203D01*
X6244792Y12153747D01*
X6246677Y12152538D01*
X6265016Y12134199D01*
X6306453Y12104093D01*
X6352090Y12080840D01*
X6400802Y12065012D01*
X6451390Y12057000D01*
X6502610D01*
X6553198Y12065012D01*
X6601910Y12080840D01*
X6647547Y12104093D01*
X6688984Y12134199D01*
X6725201Y12170416D01*
X6755307Y12211853D01*
X6778560Y12257490D01*
X6794387Y12306202D01*
X6802400Y12356790D01*
Y12408009D01*
X6794387Y12458598D01*
X6778560Y12507310D01*
X6755307Y12552947D01*
X6725201Y12594384D01*
X6688984Y12630601D01*
X6647547Y12660707D01*
X6601910Y12683960D01*
X6553198Y12699787D01*
X6502610Y12707800D01*
X6451390D01*
X6400802Y12699787D01*
X6352090Y12683960D01*
X6306453Y12660707D01*
X6265016Y12630601D01*
X6246677Y12612262D01*
X6244791Y12611053D01*
X6221477Y12588597D01*
X6198555Y12569087D01*
X6175521Y12551997D01*
X6152377Y12537295D01*
X6129133Y12524949D01*
X6105771Y12514915D01*
X6082270Y12507156D01*
X6058590Y12501635D01*
X6040769Y12499171D01*
X6031793Y12508146D01*
X6016866Y12524214D01*
X6007479Y12535755D01*
X5999395Y12546840D01*
X5992758Y12557227D01*
X5987554Y12566838D01*
X5983730Y12575602D01*
X5981200Y12583454D01*
X5979833Y12590358D01*
X5979338Y12598267D01*
X5978900Y12599923D01*
Y12618138D01*
X5971199Y12656855D01*
X5956092Y12693325D01*
X5934161Y12726148D01*
X5906248Y12754061D01*
X5873425Y12775992D01*
X5836955Y12791099D01*
X5798238Y12798800D01*
D02*
G37*
G36*
X557400Y11733200D02*
X365100D01*
Y11645900D01*
X557400D01*
Y11733200D01*
D02*
G37*
G36*
X288900D02*
X96600D01*
Y11645900D01*
X288900D01*
Y11733200D01*
D02*
G37*
G36*
X6515100Y11905822D02*
Y11620500D01*
X6800422D01*
X6794387Y11658598D01*
X6778560Y11707310D01*
X6755307Y11752947D01*
X6725201Y11794384D01*
X6688984Y11830601D01*
X6647547Y11860707D01*
X6601910Y11883960D01*
X6553198Y11899787D01*
X6515100Y11905822D01*
D02*
G37*
G36*
X6438900D02*
X6400802Y11899787D01*
X6352090Y11883960D01*
X6306453Y11860707D01*
X6265016Y11830601D01*
X6228799Y11794384D01*
X6198693Y11752947D01*
X6175440Y11707310D01*
X6159613Y11658598D01*
X6153578Y11620500D01*
X6438900D01*
Y11905822D01*
D02*
G37*
G36*
X3507520Y11524698D02*
X3492500D01*
Y11486900D01*
X3551310D01*
X3550827Y11489331D01*
X3545213Y11497732D01*
X3525833Y11517112D01*
X3525832Y11517113D01*
X3517430Y11522727D01*
X3507520Y11524698D01*
D02*
G37*
G36*
X3416300D02*
X3401280D01*
X3391370Y11522727D01*
X3382968Y11517113D01*
X3363588Y11497732D01*
X3357974Y11489331D01*
X3357491Y11486900D01*
X3416300D01*
Y11524698D01*
D02*
G37*
G36*
X3278920D02*
X3263900D01*
Y11486900D01*
X3322710D01*
X3322226Y11489331D01*
X3316612Y11497732D01*
X3297232Y11517112D01*
X3297232Y11517113D01*
X3288830Y11522727D01*
X3278920Y11524698D01*
D02*
G37*
G36*
X3187700D02*
X3172680D01*
X3162769Y11522727D01*
X3154368Y11517113D01*
X3134988Y11497732D01*
X3129374Y11489331D01*
X3128890Y11486900D01*
X3187700D01*
Y11524698D01*
D02*
G37*
G36*
X3050320D02*
X3035300D01*
Y11486900D01*
X3094110D01*
X3093626Y11489331D01*
X3088012Y11497732D01*
X3068632Y11517112D01*
X3068632Y11517113D01*
X3060230Y11522727D01*
X3050320Y11524698D01*
D02*
G37*
G36*
X2959100D02*
X2944080D01*
X2934169Y11522727D01*
X2925768Y11517113D01*
X2906388Y11497732D01*
X2900774Y11489331D01*
X2900290Y11486900D01*
X2959100D01*
Y11524698D01*
D02*
G37*
G36*
X557400Y11569700D02*
X365100D01*
Y11482400D01*
X557400D01*
Y11569700D01*
D02*
G37*
G36*
X288900D02*
X96600D01*
Y11482400D01*
X288900D01*
Y11569700D01*
D02*
G37*
G36*
X2798400Y11499185D02*
X2794000D01*
Y11480800D01*
X2839572D01*
X2838341Y11482641D01*
X2820016Y11494886D01*
X2798400Y11499185D01*
D02*
G37*
G36*
X1847100Y11556698D02*
X1767040D01*
X1761657Y11555627D01*
X1760869Y11555588D01*
X1760441Y11555385D01*
X1757130Y11554726D01*
X1752450Y11551599D01*
X1751737Y11551262D01*
X1750922Y11550656D01*
X1750621Y11550517D01*
X1747757Y11549621D01*
X1742790Y11548528D01*
X1736651Y11547567D01*
X1703534Y11545544D01*
X1651000D01*
X1626224Y11540616D01*
X1605219Y11526581D01*
X1591184Y11505576D01*
X1586256Y11480800D01*
X1591184Y11456024D01*
X1605219Y11435019D01*
X1626224Y11420984D01*
X1651000Y11416056D01*
X1710772D01*
X1717651Y11415804D01*
X1736259Y11414094D01*
X1742791Y11413071D01*
X1747756Y11411979D01*
X1750621Y11411083D01*
X1750922Y11410944D01*
X1751737Y11410338D01*
X1752449Y11410001D01*
X1757129Y11406874D01*
X1760441Y11406215D01*
X1760869Y11406012D01*
X1761657Y11405973D01*
X1767040Y11404902D01*
X1847100D01*
X1857011Y11406874D01*
X1865412Y11412487D01*
X1871026Y11420889D01*
X1872998Y11430800D01*
Y11530800D01*
X1871026Y11540711D01*
X1865412Y11549113D01*
X1857011Y11554726D01*
X1847100Y11556698D01*
D02*
G37*
G36*
Y11378898D02*
X1837700D01*
Y11341100D01*
X1872998D01*
Y11353000D01*
X1871026Y11362911D01*
X1865412Y11371313D01*
X1857011Y11376926D01*
X1847100Y11378898D01*
D02*
G37*
G36*
X1761500Y11377796D02*
X1757130Y11376926D01*
X1748728Y11371313D01*
X1733787Y11356372D01*
X1728173Y11347970D01*
X1726807Y11341100D01*
X1761500D01*
Y11377796D01*
D02*
G37*
G36*
X6800422Y11544300D02*
X6515100D01*
Y11258978D01*
X6553198Y11265013D01*
X6601910Y11280840D01*
X6647547Y11304093D01*
X6688984Y11334199D01*
X6725201Y11370416D01*
X6755307Y11411853D01*
X6778560Y11457490D01*
X6794387Y11506202D01*
X6800422Y11544300D01*
D02*
G37*
G36*
X6438900D02*
X6153578D01*
X6159613Y11506202D01*
X6175440Y11457490D01*
X6198693Y11411853D01*
X6228799Y11370416D01*
X6265016Y11334199D01*
X6306453Y11304093D01*
X6352090Y11280840D01*
X6400802Y11265013D01*
X6438900Y11258978D01*
Y11544300D01*
D02*
G37*
G36*
X1761500Y11264900D02*
X1726807D01*
X1728173Y11258030D01*
X1733787Y11249628D01*
X1748728Y11234687D01*
X1757130Y11229073D01*
X1761500Y11228204D01*
Y11264900D01*
D02*
G37*
G36*
X1872998D02*
X1837700D01*
Y11227102D01*
X1847100D01*
X1857011Y11229074D01*
X1865412Y11234687D01*
X1871026Y11243089D01*
X1872998Y11253000D01*
Y11264900D01*
D02*
G37*
G36*
X5298237Y12798800D02*
X5258762D01*
X5220045Y12791099D01*
X5183575Y12775992D01*
X5150752Y12754061D01*
X5122839Y12726148D01*
X5100908Y12693325D01*
X5085801Y12656855D01*
X5078100Y12618138D01*
Y12578662D01*
X5085801Y12539945D01*
X5100908Y12503475D01*
X5122839Y12470652D01*
X5135719Y12457773D01*
X5136580Y12456291D01*
X5141822Y12450349D01*
X5145737Y12444501D01*
X5149499Y12437161D01*
X5152994Y12428257D01*
X5156110Y12417781D01*
X5158762Y12405746D01*
X5160837Y12392491D01*
X5161806Y12380256D01*
X5160333Y12363541D01*
X5156260Y12339063D01*
X5150786Y12318696D01*
X5144185Y12302530D01*
X5136839Y12290490D01*
X5129120Y12282163D01*
X5121016Y12276751D01*
X5111838Y12273506D01*
X5100400Y12272300D01*
X4732100D01*
Y11146500D01*
X5622900D01*
Y12272300D01*
X5456599D01*
X5445162Y12273506D01*
X5435984Y12276751D01*
X5427879Y12282163D01*
X5420160Y12290490D01*
X5412815Y12302530D01*
X5406213Y12318696D01*
X5400739Y12339063D01*
X5396666Y12363541D01*
X5395052Y12381862D01*
X5396115Y12392189D01*
X5398238Y12405746D01*
X5400889Y12417781D01*
X5404005Y12428257D01*
X5407500Y12437161D01*
X5411262Y12444501D01*
X5415177Y12450349D01*
X5420419Y12456291D01*
X5421281Y12457773D01*
X5434161Y12470652D01*
X5456092Y12503475D01*
X5471199Y12539945D01*
X5478900Y12578662D01*
Y12618138D01*
X5471199Y12656855D01*
X5456092Y12693325D01*
X5434161Y12726148D01*
X5406247Y12754061D01*
X5373425Y12775992D01*
X5336954Y12791099D01*
X5298237Y12798800D01*
D02*
G37*
G36*
X1847100Y11201098D02*
X1767040D01*
X1761168Y11199930D01*
X1760467Y11199884D01*
X1760150Y11199727D01*
X1757130Y11199126D01*
X1752035Y11195722D01*
X1751406Y11195412D01*
X1750541Y11194748D01*
X1750350Y11194653D01*
X1748004Y11193849D01*
X1743820Y11192827D01*
X1738729Y11191934D01*
X1710046Y11189944D01*
X1689100D01*
X1664324Y11185016D01*
X1643319Y11170981D01*
X1554419Y11082081D01*
X1540384Y11061076D01*
X1535456Y11036300D01*
Y11031041D01*
X1531888Y11027472D01*
X1526274Y11019071D01*
X1524302Y11009160D01*
Y10929100D01*
X1526274Y10919189D01*
X1531887Y10910788D01*
X1540289Y10905174D01*
X1550200Y10903202D01*
X1650200D01*
X1660111Y10905174D01*
X1668513Y10910788D01*
X1674126Y10919189D01*
X1676098Y10929100D01*
Y11009160D01*
X1674194Y11018732D01*
X1715918Y11060456D01*
X1716442D01*
X1722181Y11060217D01*
X1738293Y11058542D01*
X1743819Y11057573D01*
X1748003Y11056552D01*
X1750350Y11055747D01*
X1750542Y11055651D01*
X1751407Y11054987D01*
X1752035Y11054677D01*
X1757130Y11051273D01*
X1760152Y11050672D01*
X1760468Y11050516D01*
X1761169Y11050470D01*
X1767040Y11049302D01*
X1847100Y11049302D01*
X1857011Y11051274D01*
X1865412Y11056887D01*
X1871026Y11065289D01*
X1872998Y11075200D01*
Y11175200D01*
X1871026Y11185111D01*
X1865412Y11193513D01*
X1857011Y11199126D01*
X1847100Y11201098D01*
D02*
G37*
G36*
X3153400Y11047596D02*
Y11010900D01*
X3188093D01*
X3186727Y11017770D01*
X3181113Y11026172D01*
X3166172Y11041113D01*
X3157770Y11046727D01*
X3153400Y11047596D01*
D02*
G37*
G36*
X3077200Y11048698D02*
X3067800D01*
X3057889Y11046726D01*
X3049488Y11041113D01*
X3043874Y11032711D01*
X3041902Y11022800D01*
Y11010900D01*
X3077200D01*
Y11048698D01*
D02*
G37*
G36*
X3188093Y10934700D02*
X3153400D01*
Y10898004D01*
X3157770Y10898874D01*
X3166172Y10904487D01*
X3181113Y10919428D01*
X3186727Y10927830D01*
X3188093Y10934700D01*
D02*
G37*
G36*
X3077200D02*
X3041902D01*
Y10922800D01*
X3043874Y10912889D01*
X3049488Y10904487D01*
X3057889Y10898874D01*
X3067800Y10896902D01*
X3077200D01*
Y10934700D01*
D02*
G37*
G36*
X1650200Y10889998D02*
X1638300D01*
Y10854700D01*
X1676098D01*
Y10864100D01*
X1674126Y10874011D01*
X1668513Y10882412D01*
X1660111Y10888026D01*
X1650200Y10889998D01*
D02*
G37*
G36*
X1562100D02*
X1550200D01*
X1540289Y10888026D01*
X1531887Y10882412D01*
X1526274Y10874011D01*
X1524302Y10864100D01*
Y10854700D01*
X1562100D01*
Y10889998D01*
D02*
G37*
G36*
Y10778500D02*
X1525404D01*
X1526274Y10774130D01*
X1531887Y10765728D01*
X1546828Y10750787D01*
X1555230Y10745173D01*
X1562100Y10743807D01*
Y10778500D01*
D02*
G37*
G36*
X1674996D02*
X1638300D01*
Y10743807D01*
X1645170Y10745173D01*
X1653572Y10750787D01*
X1668513Y10765728D01*
X1674127Y10774130D01*
X1674996Y10778500D01*
D02*
G37*
G36*
X1745500Y10591498D02*
X1736100D01*
Y10553700D01*
X1771398D01*
Y10565600D01*
X1769426Y10575511D01*
X1763812Y10583913D01*
X1755411Y10589526D01*
X1745500Y10591498D01*
D02*
G37*
G36*
X1659900Y10590396D02*
X1655530Y10589526D01*
X1647128Y10583913D01*
X1632187Y10568972D01*
X1626573Y10560570D01*
X1625207Y10553700D01*
X1659900D01*
Y10590396D01*
D02*
G37*
G36*
Y10477500D02*
X1625207D01*
X1626573Y10470630D01*
X1632187Y10462228D01*
X1647128Y10447287D01*
X1655530Y10441673D01*
X1659900Y10440804D01*
Y10477500D01*
D02*
G37*
G36*
X1771398D02*
X1736100D01*
Y10439702D01*
X1745500D01*
X1755411Y10441674D01*
X1763812Y10447287D01*
X1769426Y10455689D01*
X1771398Y10465600D01*
Y10477500D01*
D02*
G37*
G36*
X5956300Y9481862D02*
Y9410700D01*
X6027462D01*
X6025735Y9417143D01*
X6010543Y9443457D01*
X5989057Y9464943D01*
X5962743Y9480135D01*
X5956300Y9481862D01*
D02*
G37*
G36*
X4432300D02*
Y9410700D01*
X4503462D01*
X4501735Y9417143D01*
X4486543Y9443457D01*
X4465057Y9464943D01*
X4438743Y9480135D01*
X4432300Y9481862D01*
D02*
G37*
G36*
X5880100D02*
X5873657Y9480135D01*
X5847343Y9464943D01*
X5825857Y9443457D01*
X5810665Y9417143D01*
X5808938Y9410700D01*
X5880100D01*
Y9481862D01*
D02*
G37*
G36*
X4356100D02*
X4349657Y9480135D01*
X4323343Y9464943D01*
X4301857Y9443457D01*
X4286665Y9417143D01*
X4284938Y9410700D01*
X4356100D01*
Y9481862D01*
D02*
G37*
G36*
X1308100Y9469162D02*
Y9398000D01*
X1379262D01*
X1377535Y9404443D01*
X1362343Y9430757D01*
X1340857Y9452243D01*
X1314543Y9467435D01*
X1308100Y9469162D01*
D02*
G37*
G36*
X1231900D02*
X1225457Y9467435D01*
X1199143Y9452243D01*
X1177657Y9430757D01*
X1162465Y9404443D01*
X1160738Y9398000D01*
X1231900D01*
Y9469162D01*
D02*
G37*
G36*
X5679393Y9488000D02*
X5649007D01*
X5619658Y9480135D01*
X5593343Y9464943D01*
X5571858Y9443457D01*
X5556665Y9417143D01*
X5548800Y9387793D01*
Y9357407D01*
X5556665Y9328057D01*
X5570082Y9304818D01*
X5559920Y9297020D01*
X5525907Y9331032D01*
Y9372179D01*
X5525600Y9374514D01*
Y9387793D01*
X5522163Y9400620D01*
X5521979Y9402018D01*
X5521439Y9403320D01*
X5517735Y9417143D01*
X5510580Y9429536D01*
X5510462Y9429822D01*
X5510273Y9430068D01*
X5502543Y9443457D01*
X5481057Y9464943D01*
X5454743Y9480135D01*
X5425393Y9488000D01*
X5395007D01*
X5365657Y9480135D01*
X5339343Y9464943D01*
X5317857Y9443457D01*
X5302665Y9417143D01*
X5294800Y9387793D01*
Y9357407D01*
X5295335Y9355413D01*
Y9283279D01*
X5299263Y9253441D01*
X5304922Y9239778D01*
X5294156Y9232584D01*
X5271486Y9255253D01*
Y9356984D01*
X5271600Y9357407D01*
Y9387793D01*
X5263735Y9417143D01*
X5248543Y9443457D01*
X5227057Y9464943D01*
X5200743Y9480135D01*
X5171393Y9488000D01*
X5141007D01*
X5111657Y9480135D01*
X5085343Y9464943D01*
X5063857Y9443457D01*
X5048665Y9417143D01*
X5040800Y9387793D01*
Y9357407D01*
X5040914Y9356984D01*
Y9207500D01*
X5044842Y9177662D01*
X5050501Y9163999D01*
X5039735Y9156805D01*
X5017486Y9179053D01*
Y9356984D01*
X5017600Y9357407D01*
Y9387793D01*
X5009735Y9417143D01*
X4994543Y9443457D01*
X4973057Y9464943D01*
X4946743Y9480135D01*
X4917393Y9488000D01*
X4887007D01*
X4857657Y9480135D01*
X4831343Y9464943D01*
X4809857Y9443457D01*
X4794665Y9417143D01*
X4786800Y9387793D01*
Y9357407D01*
X4786914Y9356984D01*
Y9131300D01*
X4790842Y9101462D01*
X4802359Y9073657D01*
X4820680Y9049780D01*
X5366780Y8503680D01*
X5390657Y8485359D01*
X5418462Y8473842D01*
X5448300Y8469914D01*
X6537584D01*
X6538007Y8469800D01*
X6568393D01*
X6597743Y8477665D01*
X6624057Y8492857D01*
X6645543Y8514343D01*
X6660735Y8540657D01*
X6668600Y8570007D01*
Y8600393D01*
X6660735Y8629743D01*
X6645543Y8656057D01*
X6624057Y8677543D01*
X6597743Y8692735D01*
X6568393Y8700600D01*
X6538007D01*
X6537584Y8700486D01*
X5496053D01*
X5473805Y8722734D01*
X5480999Y8733501D01*
X5494662Y8727842D01*
X5524501Y8723913D01*
X6537584D01*
X6538007Y8723800D01*
X6568393D01*
X6597743Y8731664D01*
X6624057Y8746857D01*
X6645543Y8768342D01*
X6660735Y8794657D01*
X6668600Y8824007D01*
Y8854392D01*
X6660735Y8883742D01*
X6645543Y8910057D01*
X6624057Y8931542D01*
X6597743Y8946735D01*
X6568393Y8954599D01*
X6538007D01*
X6537584Y8954486D01*
X5572254D01*
X5550005Y8976735D01*
X5557198Y8987501D01*
X5570862Y8981842D01*
X5600700Y8977913D01*
X6537584D01*
X6538007Y8977800D01*
X6568393D01*
X6597743Y8985664D01*
X6624057Y9000857D01*
X6645543Y9022343D01*
X6660735Y9048657D01*
X6668600Y9078007D01*
Y9108393D01*
X6660735Y9137742D01*
X6645543Y9164057D01*
X6624057Y9185542D01*
X6597743Y9200735D01*
X6568393Y9208600D01*
X6538007D01*
X6537584Y9208486D01*
X5648454D01*
X5588620Y9268319D01*
X5596418Y9278482D01*
X5619658Y9265065D01*
X5649007Y9257200D01*
X5679393D01*
X5708743Y9265065D01*
X5735057Y9280257D01*
X5756543Y9301743D01*
X5771736Y9328057D01*
X5779600Y9357407D01*
Y9387793D01*
X5771736Y9417143D01*
X5756543Y9443457D01*
X5735057Y9464943D01*
X5708743Y9480135D01*
X5679393Y9488000D01*
D02*
G37*
G36*
X6027462Y9334500D02*
X5956300D01*
Y9263338D01*
X5962743Y9265065D01*
X5989057Y9280257D01*
X6010543Y9301743D01*
X6025735Y9328057D01*
X6027462Y9334500D01*
D02*
G37*
G36*
X4503462D02*
X4432300D01*
Y9263338D01*
X4438743Y9265065D01*
X4465057Y9280257D01*
X4486543Y9301743D01*
X4501735Y9328057D01*
X4503462Y9334500D01*
D02*
G37*
G36*
X5880100D02*
X5808938D01*
X5810665Y9328057D01*
X5825857Y9301743D01*
X5847343Y9280257D01*
X5873657Y9265065D01*
X5880100Y9263338D01*
Y9334500D01*
D02*
G37*
G36*
X4356100D02*
X4284938D01*
X4286665Y9328057D01*
X4301857Y9301743D01*
X4323343Y9280257D01*
X4349657Y9265065D01*
X4356100Y9263338D01*
Y9334500D01*
D02*
G37*
G36*
X1379262Y9321800D02*
X1308100D01*
Y9250638D01*
X1314543Y9252365D01*
X1340857Y9267557D01*
X1362343Y9289043D01*
X1377535Y9315357D01*
X1379262Y9321800D01*
D02*
G37*
G36*
X1231900D02*
X1160738D01*
X1162465Y9315357D01*
X1177657Y9289043D01*
X1199143Y9267557D01*
X1225457Y9252365D01*
X1231900Y9250638D01*
Y9321800D01*
D02*
G37*
G36*
X916893Y9475300D02*
X886507D01*
X857157Y9467435D01*
X830843Y9452243D01*
X809357Y9430757D01*
X794165Y9404443D01*
X786300Y9375093D01*
Y9344707D01*
X794165Y9315357D01*
X809357Y9289043D01*
X830843Y9267557D01*
X857157Y9252365D01*
X886507Y9244500D01*
X916893D01*
X946243Y9252365D01*
X972557Y9267557D01*
X994043Y9289043D01*
X1009235Y9315357D01*
X1017100Y9344707D01*
Y9375093D01*
X1009235Y9404443D01*
X994043Y9430757D01*
X972557Y9452243D01*
X946243Y9467435D01*
X916893Y9475300D01*
D02*
G37*
G36*
X1308100Y9215162D02*
Y9144000D01*
X1379262D01*
X1377535Y9150443D01*
X1362343Y9176757D01*
X1340857Y9198243D01*
X1314543Y9213435D01*
X1308100Y9215162D01*
D02*
G37*
G36*
X1231900D02*
X1225457Y9213435D01*
X1199143Y9198243D01*
X1177657Y9176757D01*
X1162465Y9150443D01*
X1160738Y9144000D01*
X1231900D01*
Y9215162D01*
D02*
G37*
G36*
X1379262Y9067800D02*
X1308100D01*
Y8996638D01*
X1314543Y8998365D01*
X1340857Y9013557D01*
X1362343Y9035043D01*
X1377535Y9061357D01*
X1379262Y9067800D01*
D02*
G37*
G36*
X1231900D02*
X1160738D01*
X1162465Y9061357D01*
X1177657Y9035043D01*
X1199143Y9013557D01*
X1225457Y8998365D01*
X1231900Y8996638D01*
Y9067800D01*
D02*
G37*
G36*
X916893Y9221300D02*
X886507D01*
X857157Y9213435D01*
X830843Y9198243D01*
X809357Y9176757D01*
X794165Y9150443D01*
X786300Y9121093D01*
Y9090707D01*
X794165Y9061357D01*
X809357Y9035043D01*
X830843Y9013557D01*
X857157Y8998365D01*
X886507Y8990500D01*
X916893D01*
X946243Y8998365D01*
X972557Y9013557D01*
X994043Y9035043D01*
X1009235Y9061357D01*
X1017100Y9090707D01*
Y9121093D01*
X1009235Y9150443D01*
X994043Y9176757D01*
X972557Y9198243D01*
X946243Y9213435D01*
X916893Y9221300D01*
D02*
G37*
G36*
X1308100Y8961162D02*
Y8890000D01*
X1379262D01*
X1377535Y8896443D01*
X1362343Y8922757D01*
X1340857Y8944243D01*
X1314543Y8959435D01*
X1308100Y8961162D01*
D02*
G37*
G36*
X1231900D02*
X1225457Y8959435D01*
X1199143Y8944243D01*
X1177657Y8922757D01*
X1162465Y8896443D01*
X1160738Y8890000D01*
X1231900D01*
Y8961162D01*
D02*
G37*
G36*
X1379262Y8813800D02*
X1308100D01*
Y8742638D01*
X1314543Y8744365D01*
X1340857Y8759557D01*
X1362343Y8781043D01*
X1377535Y8807357D01*
X1379262Y8813800D01*
D02*
G37*
G36*
X1231900D02*
X1160738D01*
X1162465Y8807357D01*
X1177657Y8781043D01*
X1199143Y8759557D01*
X1225457Y8744365D01*
X1231900Y8742638D01*
Y8813800D01*
D02*
G37*
G36*
X916893Y8967300D02*
X886507D01*
X857157Y8959435D01*
X830843Y8944243D01*
X809357Y8922757D01*
X794165Y8896443D01*
X786300Y8867093D01*
Y8836707D01*
X794165Y8807357D01*
X809357Y8781043D01*
X830843Y8759557D01*
X857157Y8744365D01*
X886507Y8736500D01*
X916893D01*
X946243Y8744365D01*
X972557Y8759557D01*
X994043Y8781043D01*
X1009235Y8807357D01*
X1017100Y8836707D01*
Y8867093D01*
X1009235Y8896443D01*
X994043Y8922757D01*
X972557Y8944243D01*
X946243Y8959435D01*
X916893Y8967300D01*
D02*
G37*
G36*
X1308100Y8707162D02*
Y8636000D01*
X1379262D01*
X1377535Y8642443D01*
X1362343Y8668757D01*
X1340857Y8690243D01*
X1314543Y8705435D01*
X1308100Y8707162D01*
D02*
G37*
G36*
X1231900D02*
X1225457Y8705435D01*
X1199143Y8690243D01*
X1177657Y8668757D01*
X1162465Y8642443D01*
X1160738Y8636000D01*
X1231900D01*
Y8707162D01*
D02*
G37*
G36*
X1379262Y8559800D02*
X1308100D01*
Y8488638D01*
X1314543Y8490365D01*
X1340857Y8505557D01*
X1362343Y8527043D01*
X1377535Y8553357D01*
X1379262Y8559800D01*
D02*
G37*
G36*
X1231900D02*
X1160738D01*
X1162465Y8553357D01*
X1177657Y8527043D01*
X1199143Y8505557D01*
X1225457Y8490365D01*
X1231900Y8488638D01*
Y8559800D01*
D02*
G37*
G36*
X916893Y8713300D02*
X886507D01*
X857157Y8705435D01*
X830843Y8690243D01*
X809357Y8668757D01*
X794165Y8642443D01*
X786300Y8613093D01*
Y8582707D01*
X794165Y8553357D01*
X809357Y8527043D01*
X830843Y8505557D01*
X857157Y8490365D01*
X886507Y8482500D01*
X916893D01*
X946243Y8490365D01*
X972557Y8505557D01*
X994043Y8527043D01*
X1009235Y8553357D01*
X1017100Y8582707D01*
Y8613093D01*
X1009235Y8642443D01*
X994043Y8668757D01*
X972557Y8690243D01*
X946243Y8705435D01*
X916893Y8713300D01*
D02*
G37*
G36*
X3300400Y8609200D02*
X3213099D01*
Y8416900D01*
X3300400D01*
Y8609200D01*
D02*
G37*
G36*
X3136899D02*
X3049600D01*
Y8416900D01*
X3136899D01*
Y8609200D01*
D02*
G37*
G36*
X1308100Y8453162D02*
Y8382000D01*
X1379262D01*
X1377535Y8388443D01*
X1362343Y8414757D01*
X1340857Y8436243D01*
X1314543Y8451435D01*
X1308100Y8453162D01*
D02*
G37*
G36*
X1231900D02*
X1225457Y8451435D01*
X1199143Y8436243D01*
X1177657Y8414757D01*
X1162465Y8388443D01*
X1160738Y8382000D01*
X1231900D01*
Y8453162D01*
D02*
G37*
G36*
X1379262Y8305800D02*
X1308100D01*
Y8234638D01*
X1314543Y8236365D01*
X1340857Y8251557D01*
X1362343Y8273043D01*
X1377535Y8299357D01*
X1379262Y8305800D01*
D02*
G37*
G36*
X1231900D02*
X1160738D01*
X1162465Y8299357D01*
X1177657Y8273043D01*
X1199143Y8251557D01*
X1225457Y8236365D01*
X1231900Y8234638D01*
Y8305800D01*
D02*
G37*
G36*
X916893Y8459300D02*
X886507D01*
X857157Y8451435D01*
X830843Y8436243D01*
X809357Y8414757D01*
X794165Y8388443D01*
X786300Y8359093D01*
Y8328707D01*
X794165Y8299357D01*
X809357Y8273043D01*
X830843Y8251557D01*
X857157Y8236365D01*
X886507Y8228500D01*
X916893D01*
X946243Y8236365D01*
X972557Y8251557D01*
X994043Y8273043D01*
X1009235Y8299357D01*
X1017100Y8328707D01*
Y8359093D01*
X1009235Y8388443D01*
X994043Y8414757D01*
X972557Y8436243D01*
X946243Y8451435D01*
X916893Y8459300D01*
D02*
G37*
G36*
X4663393Y9488000D02*
X4633007D01*
X4603657Y9480135D01*
X4577343Y9464943D01*
X4555857Y9443457D01*
X4540664Y9417143D01*
X4532800Y9387793D01*
Y9357407D01*
X4532913Y9356984D01*
Y8991600D01*
X4536842Y8961762D01*
X4548359Y8933957D01*
X4566680Y8910080D01*
X5227080Y8249680D01*
X5250957Y8231359D01*
X5252822Y8230586D01*
X5250296Y8217886D01*
X5171816D01*
X5171393Y8218000D01*
X5141007D01*
X5111657Y8210135D01*
X5085343Y8194943D01*
X5063857Y8173457D01*
X5048665Y8147143D01*
X5040800Y8117793D01*
Y8087407D01*
X5048665Y8058057D01*
X5063857Y8031743D01*
X5085343Y8010257D01*
X5111657Y7995065D01*
X5141007Y7987200D01*
X5171393D01*
X5171816Y7987314D01*
X5394584D01*
X5395007Y7987200D01*
X5425393D01*
X5454743Y7995065D01*
X5481057Y8010257D01*
X5502543Y8031743D01*
X5517735Y8058057D01*
X5525600Y8087407D01*
Y8117793D01*
X5517735Y8147143D01*
X5502543Y8173457D01*
X5481057Y8194943D01*
X5466732Y8203213D01*
X5470135Y8215913D01*
X5604265D01*
X5607667Y8203213D01*
X5593343Y8194943D01*
X5571857Y8173457D01*
X5556665Y8147143D01*
X5548800Y8117793D01*
Y8087407D01*
X5556665Y8058058D01*
X5571857Y8031743D01*
X5593343Y8010258D01*
X5619657Y7995065D01*
X5649007Y7987200D01*
X5679393D01*
X5708743Y7995065D01*
X5735057Y8010258D01*
X5756543Y8031743D01*
X5771735Y8058058D01*
X5779600Y8087407D01*
Y8117793D01*
X5771735Y8147143D01*
X5756543Y8173457D01*
X5735057Y8194943D01*
X5720733Y8203213D01*
X5724135Y8215913D01*
X5858265D01*
X5861668Y8203213D01*
X5847343Y8194943D01*
X5825857Y8173457D01*
X5810665Y8147143D01*
X5802800Y8117793D01*
Y8087407D01*
X5810665Y8058057D01*
X5825857Y8031743D01*
X5847343Y8010257D01*
X5873657Y7995065D01*
X5903007Y7987200D01*
X5933393D01*
X5962743Y7995065D01*
X5989057Y8010257D01*
X6010543Y8031743D01*
X6025735Y8058057D01*
X6033600Y8087407D01*
Y8117793D01*
X6025735Y8147143D01*
X6010543Y8173457D01*
X5989057Y8194943D01*
X5974732Y8203213D01*
X5978135Y8215913D01*
X6537584D01*
X6538007Y8215800D01*
X6568393D01*
X6597743Y8223664D01*
X6624057Y8238857D01*
X6645543Y8260343D01*
X6660735Y8286657D01*
X6668600Y8316007D01*
Y8346393D01*
X6660735Y8375742D01*
X6645543Y8402057D01*
X6624057Y8423542D01*
X6597743Y8438735D01*
X6568393Y8446600D01*
X6538007D01*
X6537584Y8446486D01*
X5356354D01*
X4763486Y9039354D01*
Y9356984D01*
X4763600Y9357407D01*
Y9387793D01*
X4755735Y9417143D01*
X4740542Y9443457D01*
X4719057Y9464943D01*
X4692742Y9480135D01*
X4663393Y9488000D01*
D02*
G37*
G36*
X3300400Y8340700D02*
X3213099D01*
Y8148400D01*
X3300400D01*
Y8340700D01*
D02*
G37*
G36*
X3136899D02*
X3049600D01*
Y8148400D01*
X3136899D01*
Y8340700D01*
D02*
G37*
G36*
X4663393Y8218000D02*
X4633007D01*
X4603657Y8210136D01*
X4577343Y8194943D01*
X4555857Y8173457D01*
X4540665Y8147143D01*
X4532800Y8117793D01*
Y8087407D01*
X4540665Y8058058D01*
X4555857Y8031743D01*
X4577343Y8010258D01*
X4603657Y7995065D01*
X4633007Y7987200D01*
X4663393D01*
X4692743Y7995065D01*
X4719057Y8010258D01*
X4740543Y8031743D01*
X4755735Y8058058D01*
X4763600Y8087407D01*
Y8117793D01*
X4755735Y8147143D01*
X4740543Y8173457D01*
X4719057Y8194943D01*
X4692743Y8210136D01*
X4663393Y8218000D01*
D02*
G37*
G36*
X4917393Y8218000D02*
X4887007D01*
X4857657Y8210135D01*
X4831343Y8194943D01*
X4809857Y8173457D01*
X4794665Y8147143D01*
X4786800Y8117793D01*
Y8087407D01*
X4794665Y8058057D01*
X4809857Y8031743D01*
X4831343Y8010257D01*
X4857657Y7995065D01*
X4887007Y7987200D01*
X4917393D01*
X4946743Y7995065D01*
X4973057Y8010257D01*
X4994543Y8031743D01*
X5009735Y8058057D01*
X5017600Y8087407D01*
Y8117793D01*
X5009735Y8147143D01*
X4994543Y8173457D01*
X4973057Y8194943D01*
X4946743Y8210135D01*
X4917393Y8218000D01*
D02*
G37*
G36*
X4409393D02*
X4379007D01*
X4349657Y8210135D01*
X4323343Y8194943D01*
X4301857Y8173457D01*
X4286665Y8147143D01*
X4278800Y8117793D01*
Y8087407D01*
X4286665Y8058057D01*
X4301857Y8031743D01*
X4323343Y8010257D01*
X4349657Y7995065D01*
X4379007Y7987200D01*
X4409393D01*
X4438743Y7995065D01*
X4465057Y8010257D01*
X4486543Y8031743D01*
X4501735Y8058057D01*
X4509600Y8087407D01*
Y8117793D01*
X4501735Y8147143D01*
X4486543Y8173457D01*
X4465057Y8194943D01*
X4438743Y8210135D01*
X4409393Y8218000D01*
D02*
G37*
G36*
X4155393D02*
X4125007D01*
X4095657Y8210135D01*
X4069343Y8194943D01*
X4047857Y8173457D01*
X4032665Y8147143D01*
X4024800Y8117793D01*
Y8087407D01*
X4032665Y8058057D01*
X4047857Y8031743D01*
X4069343Y8010257D01*
X4095657Y7995065D01*
X4125007Y7987200D01*
X4155393D01*
X4184743Y7995065D01*
X4211057Y8010257D01*
X4232543Y8031743D01*
X4247735Y8058057D01*
X4255600Y8087407D01*
Y8117793D01*
X4247735Y8147143D01*
X4232543Y8173457D01*
X4211057Y8194943D01*
X4184743Y8210135D01*
X4155393Y8218000D01*
D02*
G37*
G36*
X2520200Y7937198D02*
X2510800D01*
Y7899400D01*
X2546098D01*
Y7911300D01*
X2544126Y7921211D01*
X2538512Y7929613D01*
X2530111Y7935226D01*
X2520200Y7937198D01*
D02*
G37*
G36*
X2434600Y7936096D02*
X2430230Y7935226D01*
X2421828Y7929613D01*
X2406887Y7914672D01*
X2401274Y7906270D01*
X2399907Y7899400D01*
X2434600D01*
Y7936096D01*
D02*
G37*
G36*
Y7823200D02*
X2399907D01*
X2401274Y7816330D01*
X2406887Y7807928D01*
X2421828Y7792988D01*
X2430229Y7787374D01*
X2434600Y7786504D01*
Y7823200D01*
D02*
G37*
G36*
X2546098D02*
X2510800D01*
Y7785402D01*
X2520200D01*
X2530111Y7787374D01*
X2538512Y7792987D01*
X2544126Y7801389D01*
X2546098Y7811300D01*
Y7823200D01*
D02*
G37*
G36*
X2082800Y7729262D02*
Y7658100D01*
X2153962D01*
X2152235Y7664543D01*
X2137043Y7690857D01*
X2115557Y7712343D01*
X2089243Y7727535D01*
X2082800Y7729262D01*
D02*
G37*
G36*
X2006600D02*
X2000157Y7727535D01*
X1973843Y7712343D01*
X1952357Y7690857D01*
X1937165Y7664543D01*
X1935438Y7658100D01*
X2006600D01*
Y7729262D01*
D02*
G37*
G36*
X2153962Y7581900D02*
X2082800D01*
Y7510738D01*
X2089243Y7512465D01*
X2115557Y7527657D01*
X2137043Y7549143D01*
X2152235Y7575457D01*
X2153962Y7581900D01*
D02*
G37*
G36*
X2006600D02*
X1935438D01*
X1937165Y7575457D01*
X1952357Y7549143D01*
X1973843Y7527657D01*
X2000157Y7512465D01*
X2006600Y7510738D01*
Y7581900D01*
D02*
G37*
G36*
X2520200Y7772098D02*
X2440140D01*
X2430230Y7770126D01*
X2421828Y7764513D01*
X2406887Y7749572D01*
X2402631Y7743202D01*
X2402604Y7743169D01*
X2402600Y7743156D01*
X2401274Y7741170D01*
X2399752Y7733518D01*
X2399740Y7733478D01*
X2399736Y7733442D01*
X2399302Y7731260D01*
Y7729266D01*
X2398656Y7726703D01*
X2397006Y7722461D01*
X2394269Y7717062D01*
X2390374Y7710674D01*
X2385621Y7703886D01*
X2367271Y7682333D01*
X2135044Y7450106D01*
X2123794D01*
X2115557Y7458342D01*
X2089243Y7473535D01*
X2059893Y7481400D01*
X2029507D01*
X2000157Y7473535D01*
X1973843Y7458342D01*
X1952357Y7436857D01*
X1937165Y7410542D01*
X1929300Y7381193D01*
Y7350807D01*
X1937165Y7321457D01*
X1952357Y7295143D01*
X1973843Y7273657D01*
X2000157Y7258464D01*
X2029507Y7250600D01*
X2059893D01*
X2089243Y7258464D01*
X2115557Y7273657D01*
X2137043Y7295143D01*
X2151751Y7320618D01*
X2161862D01*
X2186638Y7325546D01*
X2207643Y7339581D01*
X2453922Y7585861D01*
X2460958Y7592323D01*
X2469838Y7599339D01*
X2478528Y7605419D01*
X2486753Y7610397D01*
X2494466Y7614304D01*
X2501635Y7617194D01*
X2508237Y7619140D01*
X2514290Y7620237D01*
X2515341Y7620302D01*
X2520200D01*
X2530111Y7622274D01*
X2538512Y7627887D01*
X2544126Y7636289D01*
X2546098Y7646200D01*
Y7746200D01*
X2544126Y7756111D01*
X2538512Y7764513D01*
X2530111Y7770126D01*
X2520200Y7772098D01*
D02*
G37*
G36*
X2571000Y6552898D02*
X2561600D01*
Y6515100D01*
X2596898D01*
Y6527000D01*
X2594926Y6536911D01*
X2589312Y6545313D01*
X2580911Y6550926D01*
X2571000Y6552898D01*
D02*
G37*
G36*
X2485400Y6551796D02*
X2481030Y6550926D01*
X2472628Y6545313D01*
X2457687Y6530372D01*
X2452074Y6521970D01*
X2450707Y6515100D01*
X2485400D01*
Y6551796D01*
D02*
G37*
G36*
Y6438900D02*
X2450707D01*
X2452074Y6432030D01*
X2457687Y6423628D01*
X2472628Y6408688D01*
X2481029Y6403074D01*
X2485400Y6402204D01*
Y6438900D01*
D02*
G37*
G36*
X2596898D02*
X2561600D01*
Y6401102D01*
X2571000D01*
X2580911Y6403074D01*
X2589312Y6408687D01*
X2594926Y6417089D01*
X2596898Y6427000D01*
Y6438900D01*
D02*
G37*
G36*
X2082800Y6306862D02*
Y6235700D01*
X2153962D01*
X2152235Y6242143D01*
X2137043Y6268457D01*
X2115557Y6289943D01*
X2089243Y6305136D01*
X2082800Y6306862D01*
D02*
G37*
G36*
X2006600D02*
X2000157Y6305136D01*
X1973843Y6289943D01*
X1952357Y6268457D01*
X1937165Y6242143D01*
X1935438Y6235700D01*
X2006600D01*
Y6306862D01*
D02*
G37*
G36*
X2153962Y6159500D02*
X2082800D01*
Y6088338D01*
X2089243Y6090065D01*
X2115557Y6105258D01*
X2137043Y6126743D01*
X2152235Y6153058D01*
X2153962Y6159500D01*
D02*
G37*
G36*
X2006600D02*
X1935438D01*
X1937165Y6153058D01*
X1952357Y6126743D01*
X1973843Y6105258D01*
X2000157Y6090065D01*
X2006600Y6088338D01*
Y6159500D01*
D02*
G37*
G36*
X2571000Y6375098D02*
X2490940D01*
X2481030Y6373126D01*
X2472628Y6367513D01*
X2457687Y6352572D01*
X2453431Y6346202D01*
X2453404Y6346169D01*
X2453400Y6346156D01*
X2452074Y6344170D01*
X2450552Y6336518D01*
X2450540Y6336478D01*
X2450536Y6336442D01*
X2450102Y6334260D01*
Y6332266D01*
X2449456Y6329703D01*
X2447806Y6325461D01*
X2445069Y6320062D01*
X2441174Y6313674D01*
X2436421Y6306886D01*
X2418071Y6285333D01*
X2147804Y6015066D01*
X2138031Y6015969D01*
X2135054Y6016446D01*
X2115557Y6035943D01*
X2089243Y6051136D01*
X2059893Y6059000D01*
X2029507D01*
X2000157Y6051136D01*
X1973843Y6035943D01*
X1952357Y6014457D01*
X1937165Y5988143D01*
X1929300Y5958793D01*
Y5928407D01*
X1937165Y5899058D01*
X1952357Y5872743D01*
X1973843Y5851258D01*
X2000157Y5836065D01*
X2029507Y5828200D01*
X2059893D01*
X2089243Y5836065D01*
X2115557Y5851258D01*
X2137043Y5872743D01*
X2143601Y5884102D01*
X2144644Y5884341D01*
X2148009Y5884879D01*
X2157352Y5885518D01*
X2174562D01*
X2199339Y5890446D01*
X2220343Y5904481D01*
X2504722Y6188861D01*
X2511758Y6195323D01*
X2520638Y6202339D01*
X2529328Y6208419D01*
X2537553Y6213397D01*
X2545266Y6217304D01*
X2552435Y6220194D01*
X2559037Y6222140D01*
X2565090Y6223237D01*
X2566141Y6223302D01*
X2571000D01*
X2580911Y6225274D01*
X2589312Y6230887D01*
X2594926Y6239289D01*
X2596898Y6249200D01*
Y6349200D01*
X2594926Y6359111D01*
X2589312Y6367513D01*
X2580911Y6373126D01*
X2571000Y6375098D01*
D02*
G37*
G36*
X4381500Y5087662D02*
Y5016500D01*
X4452662D01*
X4450936Y5022942D01*
X4435743Y5049257D01*
X4414257Y5070742D01*
X4387943Y5085935D01*
X4381500Y5087662D01*
D02*
G37*
G36*
X4305300D02*
X4298858Y5085935D01*
X4272543Y5070742D01*
X4251058Y5049257D01*
X4235865Y5022942D01*
X4234139Y5016500D01*
X4305300D01*
Y5087662D01*
D02*
G37*
G36*
X5905500Y5087662D02*
Y5016500D01*
X5976662D01*
X5974935Y5022943D01*
X5959743Y5049257D01*
X5938257Y5070743D01*
X5911943Y5085935D01*
X5905500Y5087662D01*
D02*
G37*
G36*
X5829300D02*
X5822857Y5085935D01*
X5796543Y5070743D01*
X5775057Y5049257D01*
X5759865Y5022943D01*
X5758138Y5016500D01*
X5829300D01*
Y5087662D01*
D02*
G37*
G36*
X5976662Y4940300D02*
X5905500D01*
Y4869138D01*
X5911943Y4870865D01*
X5938257Y4886057D01*
X5959743Y4907543D01*
X5974935Y4933857D01*
X5976662Y4940300D01*
D02*
G37*
G36*
X5829300D02*
X5758138D01*
X5759865Y4933857D01*
X5775057Y4907543D01*
X5796543Y4886057D01*
X5822857Y4870865D01*
X5829300Y4869138D01*
Y4940300D01*
D02*
G37*
G36*
X4452662Y4940300D02*
X4381500D01*
Y4869138D01*
X4387943Y4870864D01*
X4414257Y4886057D01*
X4435743Y4907543D01*
X4450936Y4933857D01*
X4452662Y4940300D01*
D02*
G37*
G36*
X4305300D02*
X4234138D01*
X4235865Y4933857D01*
X4251058Y4907543D01*
X4272543Y4886057D01*
X4298858Y4870864D01*
X4305300Y4869138D01*
Y4940300D01*
D02*
G37*
G36*
X1244600Y4935262D02*
X1238157Y4933535D01*
X1211843Y4918343D01*
X1190357Y4896857D01*
X1175165Y4870543D01*
X1173438Y4864100D01*
X1244600D01*
Y4935262D01*
D02*
G37*
G36*
X5628593Y5093800D02*
X5598207D01*
X5568857Y5085935D01*
X5542543Y5070743D01*
X5521057Y5049257D01*
X5505865Y5022943D01*
X5498000Y4993593D01*
Y4963207D01*
X5505865Y4933857D01*
X5521057Y4907543D01*
X5542543Y4886057D01*
X5568857Y4870865D01*
X5598207Y4863000D01*
X5628593D01*
X5657943Y4870865D01*
X5684257Y4886057D01*
X5705743Y4907543D01*
X5720935Y4933857D01*
X5728800Y4963207D01*
Y4993593D01*
X5720935Y5022943D01*
X5705743Y5049257D01*
X5684257Y5070743D01*
X5657943Y5085935D01*
X5628593Y5093800D01*
D02*
G37*
G36*
X2082800Y4795562D02*
Y4724400D01*
X2153962D01*
X2152235Y4730843D01*
X2137043Y4757157D01*
X2115557Y4778643D01*
X2089243Y4793835D01*
X2082800Y4795562D01*
D02*
G37*
G36*
X2006600D02*
X2000157Y4793835D01*
X1973843Y4778643D01*
X1952357Y4757157D01*
X1937165Y4730843D01*
X1935438Y4724400D01*
X2006600D01*
Y4795562D01*
D02*
G37*
G36*
X1244600Y4787900D02*
X1173438D01*
X1175165Y4781457D01*
X1190357Y4755143D01*
X1211843Y4733657D01*
X1238157Y4718465D01*
X1244600Y4716738D01*
Y4787900D01*
D02*
G37*
G36*
X4866593Y5093800D02*
X4836207D01*
X4806857Y5085935D01*
X4780543Y5070743D01*
X4759057Y5049257D01*
X4743865Y5022943D01*
X4736000Y4993593D01*
Y4963207D01*
X4736114Y4962784D01*
Y4699000D01*
X4740042Y4669162D01*
X4745701Y4655499D01*
X4734935Y4648305D01*
X4712686Y4670553D01*
Y4962784D01*
X4712800Y4963207D01*
Y4993593D01*
X4704935Y5022943D01*
X4689743Y5049257D01*
X4668257Y5070743D01*
X4641943Y5085935D01*
X4612593Y5093800D01*
X4582207D01*
X4552857Y5085935D01*
X4526543Y5070743D01*
X4505057Y5049257D01*
X4489865Y5022943D01*
X4482000Y4993593D01*
Y4963207D01*
X4482114Y4962784D01*
Y4622800D01*
X4486042Y4592962D01*
X4497559Y4565157D01*
X4515880Y4541280D01*
X5176280Y3880880D01*
X5200157Y3862559D01*
X5227962Y3851042D01*
X5257800Y3847114D01*
X6486784D01*
X6487207Y3847000D01*
X6517593D01*
X6546943Y3854865D01*
X6573257Y3870057D01*
X6594743Y3891543D01*
X6609935Y3917857D01*
X6617800Y3947207D01*
Y3977593D01*
X6609935Y4006943D01*
X6594743Y4033257D01*
X6573257Y4054743D01*
X6546943Y4069935D01*
X6517593Y4077800D01*
X6487207D01*
X6486784Y4077686D01*
X5305553D01*
X5283305Y4099935D01*
X5290499Y4110701D01*
X5304162Y4105042D01*
X5334000Y4101113D01*
X5334002Y4101114D01*
X6486784D01*
X6487207Y4101000D01*
X6517593D01*
X6546943Y4108865D01*
X6573257Y4124057D01*
X6594743Y4145543D01*
X6609935Y4171857D01*
X6617800Y4201207D01*
Y4231593D01*
X6609935Y4260943D01*
X6594743Y4287257D01*
X6573257Y4308743D01*
X6546943Y4323935D01*
X6517593Y4331800D01*
X6505783D01*
X6504951Y4344500D01*
X6518943Y4346342D01*
X6546748Y4357859D01*
X6570624Y4376180D01*
X6571469Y4377025D01*
X6573257Y4378057D01*
X6594743Y4399543D01*
X6609935Y4425857D01*
X6617800Y4455207D01*
Y4485593D01*
X6609935Y4514943D01*
X6594743Y4541257D01*
X6573257Y4562743D01*
X6546943Y4577935D01*
X6517593Y4585800D01*
X6505783D01*
X6504951Y4598500D01*
X6518943Y4600342D01*
X6546748Y4611859D01*
X6570624Y4630180D01*
X6571469Y4631025D01*
X6573257Y4632057D01*
X6594743Y4653543D01*
X6609935Y4679857D01*
X6617800Y4709207D01*
Y4739593D01*
X6609935Y4768943D01*
X6594743Y4795257D01*
X6573257Y4816743D01*
X6546943Y4831935D01*
X6517593Y4839800D01*
X6487207D01*
X6472274Y4835799D01*
X6471966Y4835758D01*
X6471679Y4835639D01*
X6457857Y4831935D01*
X6449285Y4826986D01*
X5559553D01*
X5475107Y4911433D01*
Y4977979D01*
X5474799Y4980313D01*
Y4993593D01*
X5471362Y5006420D01*
X5471178Y5007817D01*
X5470639Y5009120D01*
X5466935Y5022942D01*
X5459780Y5035335D01*
X5459661Y5035622D01*
X5459472Y5035869D01*
X5451742Y5049257D01*
X5430257Y5070742D01*
X5403942Y5085935D01*
X5374592Y5093800D01*
X5344207D01*
X5314857Y5085935D01*
X5288542Y5070742D01*
X5267057Y5049257D01*
X5251864Y5022942D01*
X5244000Y4993593D01*
Y4963207D01*
X5244534Y4961213D01*
Y4863680D01*
X5248462Y4833841D01*
X5259980Y4806037D01*
X5274543Y4787057D01*
X5264974Y4778666D01*
X5220687Y4822953D01*
Y4962783D01*
X5220800Y4963207D01*
Y4993593D01*
X5212936Y5022942D01*
X5197743Y5049257D01*
X5176257Y5070742D01*
X5149943Y5085935D01*
X5120593Y5093800D01*
X5090207D01*
X5060858Y5085935D01*
X5034543Y5070742D01*
X5013058Y5049257D01*
X4997865Y5022942D01*
X4990000Y4993593D01*
Y4963207D01*
X4990114Y4962783D01*
Y4775200D01*
X4994042Y4745361D01*
X4999702Y4731698D01*
X4988935Y4724504D01*
X4966686Y4746753D01*
Y4962784D01*
X4966800Y4963207D01*
Y4993593D01*
X4958935Y5022943D01*
X4943743Y5049257D01*
X4922257Y5070743D01*
X4895943Y5085935D01*
X4866593Y5093800D01*
D02*
G37*
G36*
X1244600Y4681262D02*
X1238157Y4679535D01*
X1211843Y4664343D01*
X1190357Y4642857D01*
X1175165Y4616543D01*
X1173438Y4610100D01*
X1244600D01*
Y4681262D01*
D02*
G37*
G36*
X2159986Y4648200D02*
X2044700D01*
X1929414D01*
Y4470400D01*
X2044700D01*
X2159986D01*
Y4648200D01*
D02*
G37*
G36*
X1244600Y4533900D02*
X1173438D01*
X1175165Y4527457D01*
X1190357Y4501143D01*
X1211843Y4479657D01*
X1238157Y4464465D01*
X1244600Y4462738D01*
Y4533900D01*
D02*
G37*
G36*
Y4427262D02*
X1238157Y4425535D01*
X1211843Y4410343D01*
X1190357Y4388857D01*
X1175165Y4362543D01*
X1173438Y4356100D01*
X1244600D01*
Y4427262D01*
D02*
G37*
G36*
X2153962Y4394200D02*
X2082800D01*
Y4323038D01*
X2089243Y4324765D01*
X2115557Y4339957D01*
X2137043Y4361443D01*
X2152235Y4387757D01*
X2153962Y4394200D01*
D02*
G37*
G36*
X2006600D02*
X1935438D01*
X1937165Y4387757D01*
X1952357Y4361443D01*
X1973843Y4339957D01*
X2000157Y4324765D01*
X2006600Y4323038D01*
Y4394200D01*
D02*
G37*
G36*
X1244600Y4279900D02*
X1173438D01*
X1175165Y4273457D01*
X1190357Y4247143D01*
X1211843Y4225657D01*
X1238157Y4210465D01*
X1244600Y4208738D01*
Y4279900D01*
D02*
G37*
G36*
Y4173262D02*
X1238157Y4171535D01*
X1211843Y4156343D01*
X1190357Y4134857D01*
X1175165Y4108543D01*
X1173438Y4102100D01*
X1244600D01*
Y4173262D01*
D02*
G37*
G36*
X2059893Y4293700D02*
X2029507D01*
X2000157Y4285835D01*
X1973843Y4270642D01*
X1952357Y4249157D01*
X1937165Y4222842D01*
X1929300Y4193493D01*
Y4163107D01*
X1937165Y4133757D01*
X1952357Y4107443D01*
X1973843Y4085957D01*
X2000157Y4070764D01*
X2029507Y4062900D01*
X2059893D01*
X2089243Y4070764D01*
X2115557Y4085957D01*
X2137043Y4107443D01*
X2152235Y4133757D01*
X2160100Y4163107D01*
Y4193493D01*
X2152235Y4222842D01*
X2137043Y4249157D01*
X2115557Y4270642D01*
X2089243Y4285835D01*
X2059893Y4293700D01*
D02*
G37*
G36*
X1244600Y4025900D02*
X1173438D01*
X1175165Y4019457D01*
X1190357Y3993143D01*
X1211843Y3971657D01*
X1238157Y3956465D01*
X1244600Y3954738D01*
Y4025900D01*
D02*
G37*
G36*
Y3919262D02*
X1238157Y3917535D01*
X1211843Y3902343D01*
X1190357Y3880857D01*
X1175165Y3854543D01*
X1173438Y3848100D01*
X1244600D01*
Y3919262D01*
D02*
G37*
G36*
X5374593Y3823800D02*
X5344207D01*
X5343784Y3823686D01*
X5121017D01*
X5120593Y3823800D01*
X5090207D01*
X5060858Y3815935D01*
X5034543Y3800743D01*
X5013058Y3779257D01*
X4997865Y3752943D01*
X4990000Y3723593D01*
Y3693207D01*
X4997865Y3663857D01*
X5013058Y3637543D01*
X5034543Y3616057D01*
X5060858Y3600865D01*
X5090207Y3593000D01*
X5120593D01*
X5121017Y3593114D01*
X5343784D01*
X5344207Y3593000D01*
X5374593D01*
X5403943Y3600865D01*
X5430257Y3616057D01*
X5451743Y3637543D01*
X5466936Y3663857D01*
X5474800Y3693207D01*
Y3723593D01*
X5466936Y3752943D01*
X5451743Y3779257D01*
X5430257Y3800743D01*
X5403943Y3815935D01*
X5374593Y3823800D01*
D02*
G37*
G36*
X2974998Y9836881D02*
X2945160Y9832953D01*
X2917355Y9821436D01*
X2893479Y9803115D01*
X2690279Y9599915D01*
X2671958Y9576038D01*
X2660440Y9548233D01*
X2656512Y9518395D01*
Y9131451D01*
X820180Y7295120D01*
X801859Y7271243D01*
X790342Y7243438D01*
X786414Y7213600D01*
Y4854316D01*
X786300Y4853893D01*
Y4823507D01*
X786414Y4823084D01*
Y4600316D01*
X786300Y4599893D01*
Y4569507D01*
X786414Y4569084D01*
Y4346316D01*
X786300Y4345893D01*
Y4315507D01*
X786414Y4315084D01*
Y4092316D01*
X786300Y4091893D01*
Y4061507D01*
X786414Y4061084D01*
Y3838316D01*
X786300Y3837893D01*
Y3807507D01*
X794165Y3778157D01*
X809357Y3751843D01*
X830843Y3730357D01*
X857157Y3715165D01*
X886507Y3707300D01*
X916893D01*
X946243Y3715165D01*
X972557Y3730357D01*
X994043Y3751843D01*
X1009235Y3778157D01*
X1017100Y3807507D01*
Y3837893D01*
X1016986Y3838316D01*
Y4061084D01*
X1017100Y4061507D01*
Y4091893D01*
X1016986Y4092316D01*
Y4315084D01*
X1017100Y4315507D01*
Y4345893D01*
X1016986Y4346316D01*
Y4569084D01*
X1017100Y4569507D01*
Y4599893D01*
X1016986Y4600316D01*
Y4823084D01*
X1017100Y4823507D01*
Y4853893D01*
X1016986Y4854316D01*
Y7165847D01*
X2853317Y9002178D01*
X2853318Y9002179D01*
X2871639Y9026055D01*
X2883156Y9053860D01*
X2887085Y9083698D01*
Y9470642D01*
X3056518Y9640075D01*
X3074839Y9663952D01*
X3086356Y9691757D01*
X3090285Y9721595D01*
X3086357Y9751433D01*
X3074839Y9779238D01*
X3056518Y9803115D01*
X3032641Y9821436D01*
X3004837Y9832953D01*
X2974998Y9836881D01*
D02*
G37*
G36*
X1244600Y3771900D02*
X1173438D01*
X1175165Y3765457D01*
X1190357Y3739143D01*
X1211843Y3717657D01*
X1238157Y3702465D01*
X1244600Y3700738D01*
Y3771900D01*
D02*
G37*
G36*
X4866593Y3823800D02*
X4836207D01*
X4806857Y3815935D01*
X4780543Y3800743D01*
X4759057Y3779257D01*
X4743865Y3752943D01*
X4736000Y3723593D01*
Y3693207D01*
X4743865Y3663857D01*
X4759057Y3637543D01*
X4780543Y3616057D01*
X4806857Y3600865D01*
X4836207Y3593000D01*
X4866593D01*
X4895943Y3600865D01*
X4922257Y3616057D01*
X4943743Y3637543D01*
X4958935Y3663857D01*
X4966800Y3693207D01*
Y3723593D01*
X4958935Y3752943D01*
X4943743Y3779257D01*
X4922257Y3800743D01*
X4895943Y3815935D01*
X4866593Y3823800D01*
D02*
G37*
G36*
X3365500Y2954062D02*
Y2882900D01*
X3436662D01*
X3434935Y2889342D01*
X3419743Y2915657D01*
X3398257Y2937142D01*
X3371943Y2952335D01*
X3365500Y2954062D01*
D02*
G37*
G36*
X3289300Y2954061D02*
X3282857Y2952335D01*
X3256543Y2937142D01*
X3235057Y2915657D01*
X3219865Y2889342D01*
X3218138Y2882900D01*
X3289300D01*
Y2954061D01*
D02*
G37*
G36*
Y2806700D02*
X3218138D01*
X3219865Y2800257D01*
X3235057Y2773943D01*
X3256543Y2752457D01*
X3282857Y2737264D01*
X3289300Y2735538D01*
Y2806700D01*
D02*
G37*
G36*
X3436662D02*
X3365500D01*
Y2735538D01*
X3371943Y2737264D01*
X3398257Y2752457D01*
X3419743Y2773943D01*
X3434935Y2800257D01*
X3436662Y2806700D01*
D02*
G37*
G36*
X5882593Y2960200D02*
X5852207D01*
X5822857Y2952335D01*
X5796543Y2937142D01*
X5775057Y2915657D01*
X5759865Y2889342D01*
X5752000Y2859993D01*
Y2829607D01*
X5759865Y2800257D01*
X5775057Y2773943D01*
X5796543Y2752457D01*
X5822857Y2737264D01*
X5852207Y2729400D01*
X5882593D01*
X5911943Y2737264D01*
X5938257Y2752457D01*
X5959743Y2773943D01*
X5974935Y2800257D01*
X5982800Y2829607D01*
Y2859993D01*
X5974935Y2889342D01*
X5959743Y2915657D01*
X5938257Y2937142D01*
X5911943Y2952335D01*
X5882593Y2960200D01*
D02*
G37*
G36*
X5628593D02*
X5598207D01*
X5568857Y2952335D01*
X5542543Y2937142D01*
X5521057Y2915657D01*
X5505865Y2889342D01*
X5498000Y2859993D01*
Y2829607D01*
X5505865Y2800257D01*
X5521057Y2773943D01*
X5542543Y2752457D01*
X5568857Y2737264D01*
X5598207Y2729400D01*
X5628593D01*
X5657943Y2737264D01*
X5684257Y2752457D01*
X5705743Y2773943D01*
X5720935Y2800257D01*
X5728800Y2829607D01*
Y2859993D01*
X5720935Y2889342D01*
X5705743Y2915657D01*
X5684257Y2937142D01*
X5657943Y2952335D01*
X5628593Y2960200D01*
D02*
G37*
G36*
X2834593D02*
X2804207D01*
X2774857Y2952335D01*
X2748543Y2937142D01*
X2727057Y2915657D01*
X2711865Y2889342D01*
X2704000Y2859993D01*
Y2829607D01*
X2711865Y2800257D01*
X2727057Y2773943D01*
X2748543Y2752457D01*
X2774857Y2737264D01*
X2804207Y2729400D01*
X2834593D01*
X2863943Y2737264D01*
X2890257Y2752457D01*
X2911743Y2773943D01*
X2926935Y2800257D01*
X2934800Y2829607D01*
Y2859993D01*
X2926935Y2889342D01*
X2911743Y2915657D01*
X2890257Y2937142D01*
X2863943Y2952335D01*
X2834593Y2960200D01*
D02*
G37*
G36*
X2580593D02*
X2550207D01*
X2520857Y2952335D01*
X2494543Y2937142D01*
X2473057Y2915657D01*
X2457865Y2889342D01*
X2450000Y2859993D01*
Y2829607D01*
X2457865Y2800257D01*
X2473057Y2773943D01*
X2494543Y2752457D01*
X2520857Y2737264D01*
X2550207Y2729400D01*
X2580593D01*
X2609943Y2737264D01*
X2636257Y2752457D01*
X2657743Y2773943D01*
X2672935Y2800257D01*
X2680800Y2829607D01*
Y2859993D01*
X2672935Y2889342D01*
X2657743Y2915657D01*
X2636257Y2937142D01*
X2609943Y2952335D01*
X2580593Y2960200D01*
D02*
G37*
G36*
X2326593D02*
X2296207D01*
X2266857Y2952335D01*
X2240543Y2937142D01*
X2219057Y2915657D01*
X2203865Y2889342D01*
X2196000Y2859993D01*
Y2829607D01*
X2203865Y2800257D01*
X2219057Y2773943D01*
X2240543Y2752457D01*
X2266857Y2737264D01*
X2296207Y2729400D01*
X2326593D01*
X2355943Y2737264D01*
X2382257Y2752457D01*
X2403743Y2773943D01*
X2418935Y2800257D01*
X2426800Y2829607D01*
Y2859993D01*
X2418935Y2889342D01*
X2403743Y2915657D01*
X2382257Y2937142D01*
X2355943Y2952335D01*
X2326593Y2960200D01*
D02*
G37*
G36*
X5374593Y2960199D02*
X5344207D01*
X5314857Y2952335D01*
X5288543Y2937142D01*
X5267057Y2915657D01*
X5251865Y2889342D01*
X5244000Y2859992D01*
Y2829607D01*
X5251865Y2800257D01*
X5267057Y2773942D01*
X5288543Y2752457D01*
X5314857Y2737264D01*
X5344207Y2729400D01*
X5374593D01*
X5403943Y2737264D01*
X5430257Y2752457D01*
X5451743Y2773942D01*
X5466935Y2800257D01*
X5474800Y2829607D01*
Y2859992D01*
X5466935Y2889342D01*
X5451743Y2915657D01*
X5430257Y2937142D01*
X5403943Y2952335D01*
X5374593Y2960199D01*
D02*
G37*
G36*
X6667500Y414062D02*
Y342900D01*
X6738662D01*
X6736935Y349343D01*
X6721743Y375657D01*
X6700257Y397143D01*
X6673943Y412335D01*
X6667500Y414062D01*
D02*
G37*
G36*
X5143500Y414062D02*
Y342900D01*
X5214662D01*
X5212935Y349342D01*
X5197743Y375657D01*
X5176257Y397142D01*
X5149943Y412335D01*
X5143500Y414062D01*
D02*
G37*
G36*
X5067300D02*
X5060857Y412335D01*
X5034543Y397142D01*
X5013057Y375657D01*
X4997865Y349342D01*
X4996138Y342900D01*
X5067300D01*
Y414062D01*
D02*
G37*
G36*
X6738662Y266700D02*
X6667500D01*
Y195538D01*
X6673943Y197265D01*
X6700257Y212457D01*
X6721743Y233943D01*
X6736935Y260257D01*
X6738662Y266700D01*
D02*
G37*
G36*
X6591300D02*
X6520138D01*
X6521865Y260257D01*
X6537057Y233943D01*
X6558543Y212457D01*
X6584857Y197265D01*
X6591300Y195538D01*
Y266700D01*
D02*
G37*
G36*
X5214662Y266700D02*
X5143500D01*
Y195538D01*
X5149943Y197264D01*
X5176257Y212457D01*
X5197743Y233943D01*
X5212935Y260257D01*
X5214662Y266700D01*
D02*
G37*
G36*
X5067300D02*
X4996138D01*
X4997865Y260257D01*
X5013057Y233943D01*
X5034543Y212457D01*
X5060857Y197264D01*
X5067300Y195538D01*
Y266700D01*
D02*
G37*
G36*
X5374593Y420200D02*
X5344207D01*
X5314857Y412335D01*
X5288543Y397143D01*
X5267057Y375657D01*
X5251865Y349343D01*
X5244000Y319993D01*
Y289607D01*
X5251865Y260257D01*
X5267057Y233943D01*
X5288543Y212457D01*
X5314857Y197265D01*
X5344207Y189400D01*
X5374593D01*
X5403943Y197265D01*
X5430257Y212457D01*
X5451743Y233943D01*
X5466935Y260257D01*
X5474800Y289607D01*
Y319993D01*
X5466935Y349343D01*
X5451743Y375657D01*
X5430257Y397143D01*
X5403943Y412335D01*
X5374593Y420200D01*
D02*
G37*
G36*
X4358593D02*
X4328207D01*
X4298857Y412335D01*
X4272543Y397143D01*
X4251057Y375657D01*
X4235865Y349343D01*
X4228000Y319993D01*
Y289607D01*
X4235865Y260257D01*
X4251057Y233943D01*
X4272543Y212457D01*
X4298857Y197265D01*
X4328207Y189400D01*
X4358593D01*
X4387943Y197265D01*
X4414257Y212457D01*
X4435743Y233943D01*
X4450935Y260257D01*
X4458800Y289607D01*
Y319993D01*
X4450935Y349343D01*
X4435743Y375657D01*
X4414257Y397143D01*
X4387943Y412335D01*
X4358593Y420200D01*
D02*
G37*
G36*
X3088593D02*
X3058207D01*
X3028857Y412335D01*
X3002543Y397143D01*
X2981057Y375657D01*
X2965865Y349343D01*
X2958000Y319993D01*
Y289607D01*
X2965865Y260257D01*
X2981057Y233943D01*
X3002543Y212457D01*
X3028857Y197265D01*
X3058207Y189400D01*
X3088593D01*
X3117943Y197265D01*
X3144257Y212457D01*
X3165743Y233943D01*
X3180935Y260257D01*
X3188800Y289607D01*
Y319993D01*
X3180935Y349343D01*
X3165743Y375657D01*
X3144257Y397143D01*
X3117943Y412335D01*
X3088593Y420200D01*
D02*
G37*
G36*
X2072593D02*
X2042207D01*
X2012857Y412335D01*
X1986543Y397143D01*
X1965057Y375657D01*
X1949865Y349343D01*
X1942000Y319993D01*
Y289607D01*
X1949865Y260257D01*
X1965057Y233943D01*
X1986543Y212457D01*
X2012857Y197265D01*
X2042207Y189400D01*
X2072593D01*
X2101943Y197265D01*
X2128257Y212457D01*
X2149743Y233943D01*
X2164935Y260257D01*
X2172800Y289607D01*
Y319993D01*
X2164935Y349343D01*
X2149743Y375657D01*
X2128257Y397143D01*
X2101943Y412335D01*
X2072593Y420200D01*
D02*
G37*
G36*
X5882593Y420200D02*
X5852207D01*
X5822857Y412335D01*
X5796543Y397142D01*
X5775057Y375657D01*
X5759865Y349342D01*
X5752000Y319993D01*
Y289607D01*
X5759865Y260257D01*
X5775057Y233943D01*
X5796543Y212457D01*
X5822857Y197264D01*
X5852207Y189400D01*
X5882593D01*
X5911943Y197264D01*
X5938257Y212457D01*
X5959743Y233943D01*
X5974935Y260257D01*
X5982800Y289607D01*
Y319993D01*
X5974935Y349342D01*
X5959743Y375657D01*
X5938257Y397142D01*
X5911943Y412335D01*
X5882593Y420200D01*
D02*
G37*
G36*
X5628593D02*
X5598207D01*
X5568857Y412335D01*
X5542543Y397142D01*
X5521057Y375657D01*
X5505865Y349342D01*
X5498000Y319993D01*
Y289607D01*
X5505865Y260257D01*
X5521057Y233943D01*
X5542543Y212457D01*
X5568857Y197264D01*
X5598207Y189400D01*
X5628593D01*
X5657943Y197264D01*
X5684257Y212457D01*
X5705743Y233943D01*
X5720935Y260257D01*
X5728800Y289607D01*
Y319993D01*
X5720935Y349342D01*
X5705743Y375657D01*
X5684257Y397142D01*
X5657943Y412335D01*
X5628593Y420200D01*
D02*
G37*
G36*
X4866593D02*
X4836207D01*
X4806857Y412335D01*
X4780543Y397142D01*
X4759057Y375657D01*
X4743865Y349342D01*
X4736000Y319993D01*
Y289607D01*
X4743865Y260257D01*
X4759057Y233943D01*
X4780543Y212457D01*
X4806857Y197264D01*
X4836207Y189400D01*
X4866593D01*
X4895943Y197264D01*
X4922257Y212457D01*
X4943743Y233943D01*
X4958935Y260257D01*
X4966800Y289607D01*
Y319993D01*
X4958935Y349342D01*
X4943743Y375657D01*
X4922257Y397142D01*
X4895943Y412335D01*
X4866593Y420200D01*
D02*
G37*
G36*
X4612593D02*
X4582207D01*
X4552857Y412335D01*
X4526543Y397142D01*
X4505057Y375657D01*
X4489865Y349342D01*
X4482000Y319993D01*
Y289607D01*
X4489865Y260257D01*
X4505057Y233943D01*
X4526543Y212457D01*
X4552857Y197264D01*
X4582207Y189400D01*
X4612593D01*
X4641943Y197264D01*
X4668257Y212457D01*
X4689743Y233943D01*
X4704935Y260257D01*
X4712800Y289607D01*
Y319993D01*
X4704935Y349342D01*
X4689743Y375657D01*
X4668257Y397142D01*
X4641943Y412335D01*
X4612593Y420200D01*
D02*
G37*
G36*
X4104593D02*
X4074207D01*
X4044857Y412335D01*
X4018543Y397142D01*
X3997057Y375657D01*
X3981865Y349342D01*
X3974000Y319993D01*
Y289607D01*
X3981865Y260257D01*
X3997057Y233943D01*
X4018543Y212457D01*
X4044857Y197264D01*
X4074207Y189400D01*
X4104593D01*
X4133943Y197264D01*
X4160257Y212457D01*
X4181743Y233943D01*
X4196935Y260257D01*
X4204800Y289607D01*
Y319993D01*
X4196935Y349342D01*
X4181743Y375657D01*
X4160257Y397142D01*
X4133943Y412335D01*
X4104593Y420200D01*
D02*
G37*
G36*
X3850593D02*
X3820207D01*
X3790857Y412335D01*
X3764543Y397142D01*
X3743057Y375657D01*
X3727865Y349342D01*
X3720000Y319993D01*
Y289607D01*
X3727865Y260257D01*
X3743057Y233943D01*
X3764543Y212457D01*
X3790857Y197264D01*
X3820207Y189400D01*
X3850593D01*
X3879943Y197264D01*
X3906257Y212457D01*
X3927743Y233943D01*
X3942935Y260257D01*
X3950800Y289607D01*
Y319993D01*
X3942935Y349342D01*
X3927743Y375657D01*
X3906257Y397142D01*
X3879943Y412335D01*
X3850593Y420200D01*
D02*
G37*
G36*
X3596593D02*
X3566207D01*
X3536857Y412335D01*
X3510543Y397142D01*
X3489057Y375657D01*
X3473865Y349342D01*
X3466000Y319993D01*
Y289607D01*
X3473865Y260257D01*
X3489057Y233943D01*
X3510543Y212457D01*
X3536857Y197264D01*
X3566207Y189400D01*
X3596593D01*
X3625943Y197264D01*
X3652257Y212457D01*
X3673743Y233943D01*
X3688935Y260257D01*
X3696800Y289607D01*
Y319993D01*
X3688935Y349342D01*
X3673743Y375657D01*
X3652257Y397142D01*
X3625943Y412335D01*
X3596593Y420200D01*
D02*
G37*
G36*
X3342593D02*
X3312207D01*
X3282857Y412335D01*
X3256543Y397142D01*
X3235057Y375657D01*
X3219865Y349342D01*
X3212000Y319993D01*
Y289607D01*
X3219865Y260257D01*
X3235057Y233943D01*
X3256543Y212457D01*
X3282857Y197264D01*
X3312207Y189400D01*
X3342593D01*
X3371943Y197264D01*
X3398257Y212457D01*
X3419743Y233943D01*
X3434935Y260257D01*
X3442800Y289607D01*
Y319993D01*
X3434935Y349342D01*
X3419743Y375657D01*
X3398257Y397142D01*
X3371943Y412335D01*
X3342593Y420200D01*
D02*
G37*
G36*
X2834593D02*
X2804207D01*
X2774857Y412335D01*
X2748543Y397142D01*
X2727057Y375657D01*
X2711865Y349342D01*
X2704000Y319993D01*
Y289607D01*
X2711865Y260257D01*
X2727057Y233943D01*
X2748543Y212457D01*
X2774857Y197264D01*
X2804207Y189400D01*
X2834593D01*
X2863943Y197264D01*
X2890257Y212457D01*
X2911743Y233943D01*
X2926935Y260257D01*
X2934800Y289607D01*
Y319993D01*
X2926935Y349342D01*
X2911743Y375657D01*
X2890257Y397142D01*
X2863943Y412335D01*
X2834593Y420200D01*
D02*
G37*
G36*
X2580593D02*
X2550207D01*
X2520857Y412335D01*
X2494543Y397142D01*
X2473057Y375657D01*
X2457865Y349342D01*
X2450000Y319993D01*
Y289607D01*
X2457865Y260257D01*
X2473057Y233943D01*
X2494543Y212457D01*
X2520857Y197264D01*
X2550207Y189400D01*
X2580593D01*
X2609943Y197264D01*
X2636257Y212457D01*
X2657743Y233943D01*
X2672935Y260257D01*
X2680800Y289607D01*
Y319993D01*
X2672935Y349342D01*
X2657743Y375657D01*
X2636257Y397142D01*
X2609943Y412335D01*
X2580593Y420200D01*
D02*
G37*
G36*
X2326593D02*
X2296207D01*
X2266857Y412335D01*
X2240543Y397142D01*
X2219057Y375657D01*
X2203865Y349342D01*
X2196000Y319993D01*
Y289607D01*
X2203865Y260257D01*
X2219057Y233943D01*
X2240543Y212457D01*
X2266857Y197264D01*
X2296207Y189400D01*
X2326593D01*
X2355943Y197264D01*
X2382257Y212457D01*
X2403743Y233943D01*
X2418935Y260257D01*
X2426800Y289607D01*
Y319993D01*
X2418935Y349342D01*
X2403743Y375657D01*
X2382257Y397142D01*
X2355943Y412335D01*
X2326593Y420200D01*
D02*
G37*
%LPD*%
G36*
X4353695Y12559205D02*
X4348350Y12558505D01*
X4343568Y12556406D01*
X4339348Y12552908D01*
X4335691Y12548010D01*
X4332596Y12541713D01*
X4330064Y12534016D01*
X4328095Y12524921D01*
X4326688Y12514425D01*
X4325845Y12502531D01*
X4325563Y12489237D01*
X4249363D01*
X4249044Y12502576D01*
X4248088Y12514512D01*
X4246495Y12525046D01*
X4244264Y12534177D01*
X4241396Y12541906D01*
X4237891Y12548232D01*
X4233748Y12553155D01*
X4228968Y12556676D01*
X4223550Y12558794D01*
X4217495Y12559510D01*
X4353695Y12559205D01*
D02*
G37*
G36*
X3365500Y12783094D02*
X3365500Y12568283D01*
X3342132Y12534900D01*
X2832100D01*
X2654300Y12395200D01*
X2324100D01*
X2159000Y12534900D01*
X1130300D01*
X1092200Y12522200D01*
Y11836400D01*
X1168400Y11785600D01*
X1384300D01*
X1447800Y11734800D01*
Y11518900D01*
X1397000Y11480800D01*
X939800D01*
X889000Y11557000D01*
Y12674600D01*
X1028700Y12763500D01*
X1600200D01*
X1727200Y12865100D01*
X3263900D01*
X3365500Y12783094D01*
D02*
G37*
G36*
X4552861Y11610979D02*
X4529958Y11587726D01*
X4451600Y11497092D01*
X4443160Y11484092D01*
X4437130Y11472801D01*
X4433510Y11463218D01*
X4432300Y11455344D01*
X4414737Y11472907D01*
X4344695Y11403205D01*
X4287832Y11507595D01*
X4292330Y11501855D01*
X4298223Y11498588D01*
X4305511Y11497794D01*
X4314194Y11499473D01*
X4324273Y11503625D01*
X4335747Y11510250D01*
X4348616Y11519347D01*
X4359483Y11528162D01*
X4343344Y11544300D01*
X4351218Y11545510D01*
X4360801Y11549130D01*
X4372092Y11555160D01*
X4385092Y11563600D01*
X4399801Y11574451D01*
X4434346Y11603384D01*
X4475726Y11641958D01*
X4498979Y11664861D01*
X4552861Y11610979D01*
D02*
G37*
G36*
X2007532Y11509088D02*
X2009818Y11503151D01*
X2013628Y11497912D01*
X2018962Y11493372D01*
X2025820Y11489531D01*
X2034202Y11486388D01*
X2044108Y11483943D01*
X2055538Y11482197D01*
X2068492Y11481149D01*
X2082970Y11480800D01*
X2079793Y11404600D01*
X2058342Y11404865D01*
X2010886Y11408845D01*
X2000701Y11411232D01*
X1993332Y11414151D01*
X1988780Y11417600D01*
X1987045Y11421579D01*
X1988126Y11426089D01*
X1992023Y11431130D01*
X2006770Y11515723D01*
X2007532Y11509088D01*
D02*
G37*
G36*
X2082970Y11277600D02*
X2070059Y11277357D01*
X2046781Y11275416D01*
X2036414Y11273717D01*
X2026895Y11271532D01*
X2018224Y11268863D01*
X2010402Y11265708D01*
X2003427Y11262067D01*
X1997301Y11257941D01*
X1992023Y11253330D01*
Y11352670D01*
X1992729Y11352885D01*
X1995299Y11353077D01*
X2024222Y11353619D01*
X2082970Y11353800D01*
Y11277600D01*
D02*
G37*
G36*
X4298409Y11401729D02*
X4283296Y11396385D01*
X4269961Y11387480D01*
X4258404Y11375013D01*
X4248625Y11358983D01*
X4240624Y11339392D01*
X4234401Y11316238D01*
X4229956Y11289523D01*
X4227289Y11259245D01*
X4226400Y11225405D01*
X4048600D01*
X4047711Y11259245D01*
X4045044Y11289523D01*
X4040599Y11316238D01*
X4034376Y11339392D01*
X4026375Y11358983D01*
X4016596Y11375013D01*
X4005039Y11387480D01*
X3991704Y11396385D01*
X3976591Y11401729D01*
X3959700Y11403510D01*
X4315300D01*
X4298409Y11401729D01*
D02*
G37*
G36*
X2679700Y11899900D02*
Y11578167D01*
X2628900Y11544300D01*
Y11061700D01*
X2622550Y11049000D01*
X2349500D01*
X2336800Y11061700D01*
Y11544300D01*
X2286000Y11578167D01*
Y11893550D01*
X2315633Y11938000D01*
X2654300D01*
X2679700Y11899900D01*
D02*
G37*
G36*
X2173280Y11032053D02*
X2172020Y11032511D01*
X2170451Y11032480D01*
X2168574Y11031959D01*
X2166388Y11030950D01*
X2163894Y11029451D01*
X2161092Y11027463D01*
X2157982Y11024986D01*
X2150836Y11018564D01*
X2146801Y11014620D01*
X2128841Y11032580D01*
X2132002Y11035834D01*
X2136972Y11041538D01*
X2138780Y11043990D01*
X2140137Y11046173D01*
X2141044Y11048090D01*
X2141499Y11049739D01*
X2141503Y11051121D01*
X2141056Y11052235D01*
X2140158Y11053083D01*
X2173280Y11032053D01*
D02*
G37*
G36*
X1915531Y10969170D02*
X1910583Y10964046D01*
X1902768Y10954818D01*
X1899901Y10950715D01*
X1897727Y10946953D01*
X1896248Y10943531D01*
X1895462Y10940450D01*
X1895369Y10937709D01*
X1895970Y10935309D01*
X1897265Y10933249D01*
X1864149Y10971365D01*
X1865986Y10969848D01*
X1868213Y10969073D01*
X1870829Y10969041D01*
X1873836Y10969753D01*
X1877233Y10971208D01*
X1881021Y10973406D01*
X1885198Y10976347D01*
X1889765Y10980032D01*
X1900070Y10989631D01*
X1915531Y10969170D01*
D02*
G37*
G36*
X2922877Y10923130D02*
X2920030Y10925328D01*
X2916116Y10927295D01*
X2911135Y10929031D01*
X2905087Y10930535D01*
X2897973Y10931807D01*
X2880544Y10933659D01*
X2858847Y10934584D01*
X2846399Y10934700D01*
Y11010900D01*
X2858847Y11011016D01*
X2897973Y11013793D01*
X2905087Y11015065D01*
X2911135Y11016569D01*
X2916116Y11018305D01*
X2920030Y11020272D01*
X2922877Y11022470D01*
Y10923130D01*
D02*
G37*
G36*
X1897570Y10872330D02*
X1897291Y10871568D01*
X1897041Y10869282D01*
X1896629Y10860138D01*
X1896381Y10830110D01*
X1897570Y10768470D01*
X1803230Y10753723D01*
X1806397Y10757633D01*
X1809231Y10762695D01*
X1811731Y10768910D01*
X1813899Y10776276D01*
X1815732Y10784795D01*
X1817233Y10794466D01*
X1819233Y10817264D01*
X1819239Y10817508D01*
X1817233Y10846334D01*
X1815732Y10856005D01*
X1813899Y10864524D01*
X1811731Y10871890D01*
X1809231Y10878104D01*
X1806397Y10883167D01*
X1803230Y10887077D01*
X1897570Y10872330D01*
D02*
G37*
G36*
X2277100Y10635793D02*
X2277191Y10621224D01*
X2280365Y10568520D01*
X2281544Y10562007D01*
X2282905Y10556836D01*
X2284447Y10553008D01*
X2286170Y10550523D01*
X2191830Y10565270D01*
X2193553Y10566032D01*
X2195095Y10568318D01*
X2196456Y10572128D01*
X2197635Y10577462D01*
X2198633Y10584320D01*
X2200084Y10602608D01*
X2200900Y10641470D01*
X2277100Y10635793D01*
D02*
G37*
G36*
X1897570Y10669130D02*
X1897291Y10668368D01*
X1897041Y10666082D01*
X1896629Y10656938D01*
X1896317Y10619134D01*
X1899365Y10568520D01*
X1900544Y10562007D01*
X1901905Y10556836D01*
X1903447Y10553008D01*
X1905170Y10550523D01*
X1810830Y10565270D01*
X1812553Y10566032D01*
X1814095Y10568318D01*
X1815456Y10572128D01*
X1816635Y10577462D01*
X1817633Y10584320D01*
X1819084Y10602608D01*
X1819309Y10613313D01*
X1817233Y10643134D01*
X1815732Y10652805D01*
X1813899Y10661324D01*
X1811731Y10668690D01*
X1809231Y10674904D01*
X1806397Y10679967D01*
X1803230Y10683877D01*
X1897570Y10669130D01*
D02*
G37*
G36*
X2055847Y10681392D02*
X2054305Y10677564D01*
X2052944Y10672393D01*
X2051765Y10665880D01*
X2050768Y10658024D01*
X2049316Y10638285D01*
X2048532Y10600168D01*
X2084436Y10564965D01*
X2032134Y10507664D01*
X2031727Y10508246D01*
X2030328Y10509802D01*
X1983459Y10557259D01*
X2022900Y10596700D01*
X1972300Y10592930D01*
X1972209Y10607408D01*
X1969035Y10656938D01*
X1967856Y10662272D01*
X1966495Y10666082D01*
X1964953Y10668368D01*
X1963230Y10669130D01*
X2057570Y10683877D01*
X2055847Y10681392D01*
D02*
G37*
G36*
X3276459Y9424041D02*
X3281749Y9409482D01*
X3290567Y9397169D01*
X3302912Y9387101D01*
X3318784Y9379277D01*
X3338183Y9373699D01*
X3361109Y9370366D01*
X3387563Y9369277D01*
X3417543Y9370434D01*
X3451051Y9373835D01*
Y9194579D01*
X3417543Y9189385D01*
X3387563Y9182851D01*
X3361109Y9174976D01*
X3338183Y9165761D01*
X3318784Y9155207D01*
X3302912Y9143312D01*
X3290567Y9130077D01*
X3281749Y9115501D01*
X3276459Y9099586D01*
X3274695Y9082331D01*
Y9440844D01*
X3276459Y9424041D01*
D02*
G37*
G36*
X3653558Y7853390D02*
X3656470Y7814300D01*
X3647439Y7814243D01*
X3646030Y7805230D01*
X3645268Y7806953D01*
X3642982Y7808495D01*
X3639172Y7809856D01*
X3633838Y7811035D01*
X3626980Y7812033D01*
X3618512Y7812704D01*
X3592462Y7811035D01*
X3587128Y7809856D01*
X3583318Y7808495D01*
X3581032Y7806953D01*
X3580270Y7805230D01*
X3578882Y7814110D01*
X3569830Y7814300D01*
X3572742Y7853389D01*
X3565523Y7899570D01*
X3568008Y7897847D01*
X3571836Y7896305D01*
X3577007Y7894945D01*
X3583520Y7893766D01*
X3591376Y7892768D01*
X3607065Y7891614D01*
X3642780Y7893766D01*
X3649293Y7894945D01*
X3654464Y7896305D01*
X3658291Y7897847D01*
X3660777Y7899570D01*
X3653558Y7853390D01*
D02*
G37*
G36*
X2678147Y7823892D02*
X2676605Y7820064D01*
X2675245Y7814893D01*
X2674066Y7808380D01*
X2673068Y7800524D01*
X2671914Y7784835D01*
X2674066Y7749120D01*
X2675245Y7742607D01*
X2676605Y7737436D01*
X2678147Y7733609D01*
X2679870Y7731123D01*
X2633690Y7738342D01*
X2594600Y7735430D01*
X2594543Y7744461D01*
X2585530Y7745870D01*
X2587253Y7746632D01*
X2588795Y7748918D01*
X2590156Y7752728D01*
X2591335Y7758062D01*
X2592333Y7764920D01*
X2593004Y7773388D01*
X2591335Y7799438D01*
X2590156Y7804772D01*
X2588795Y7808582D01*
X2587253Y7810868D01*
X2585530Y7811630D01*
X2594410Y7813018D01*
X2594600Y7822070D01*
X2633689Y7819158D01*
X2679870Y7826377D01*
X2678147Y7823892D01*
D02*
G37*
G36*
X3480930Y7805230D02*
X3480168Y7806953D01*
X3477882Y7808495D01*
X3474072Y7809856D01*
X3468738Y7811035D01*
X3461880Y7812033D01*
X3443592Y7813484D01*
X3404730Y7814300D01*
X3410407Y7890500D01*
X3424975Y7890591D01*
X3477680Y7893766D01*
X3484193Y7894945D01*
X3489364Y7896305D01*
X3493191Y7897847D01*
X3495677Y7899570D01*
X3480930Y7805230D01*
D02*
G37*
G36*
X2678147Y7658792D02*
X2676605Y7654964D01*
X2675245Y7649793D01*
X2674066Y7643280D01*
X2673068Y7635424D01*
X2671616Y7615685D01*
X2670800Y7576007D01*
X2594600Y7570330D01*
X2594509Y7584808D01*
X2591335Y7634338D01*
X2590156Y7639672D01*
X2588795Y7643482D01*
X2587253Y7645768D01*
X2585530Y7646530D01*
X2679870Y7661277D01*
X2678147Y7658792D01*
D02*
G37*
G36*
X3231679Y7424269D02*
X3237234Y7420036D01*
X3243238Y7416301D01*
X3249690Y7413064D01*
X3256592Y7410325D01*
X3263943Y7408084D01*
X3271744Y7406341D01*
X3279992Y7405096D01*
X3288690Y7404349D01*
X3297837Y7404100D01*
Y7327900D01*
X3288690Y7327651D01*
X3279992Y7326904D01*
X3271744Y7325659D01*
X3263943Y7323916D01*
X3256592Y7321675D01*
X3249690Y7318936D01*
X3243238Y7315699D01*
X3237234Y7311964D01*
X3231679Y7307731D01*
X3226573Y7303000D01*
Y7429000D01*
X3231679Y7424269D01*
D02*
G37*
G36*
X1980427Y7049000D02*
X1975321Y7053731D01*
X1969766Y7057964D01*
X1963762Y7061699D01*
X1957310Y7064936D01*
X1950408Y7067675D01*
X1943057Y7069916D01*
X1935256Y7071659D01*
X1927008Y7072904D01*
X1918310Y7073651D01*
X1909163Y7073900D01*
Y7150100D01*
X1918310Y7150349D01*
X1927008Y7151096D01*
X1935256Y7152341D01*
X1943057Y7154084D01*
X1950408Y7156325D01*
X1957310Y7159064D01*
X1963762Y7162301D01*
X1969766Y7166036D01*
X1975321Y7170269D01*
X1980427Y7175000D01*
Y7049000D01*
D02*
G37*
G36*
X3442295Y7787607D02*
X3458990Y7786283D01*
X3463789Y7785585D01*
X3467358Y7783199D01*
X3467443Y7783122D01*
X3467514Y7783096D01*
X3470689Y7780974D01*
X3476399Y7779838D01*
X3476930Y7779643D01*
X3477301Y7779659D01*
X3480600Y7779002D01*
X3580600D01*
X3583898Y7779659D01*
X3584270Y7779643D01*
X3584803Y7779838D01*
X3590511Y7780974D01*
X3593685Y7783095D01*
X3593757Y7783121D01*
X3593843Y7783200D01*
X3597108Y7785382D01*
X3618314Y7786741D01*
X3624090Y7786283D01*
X3628889Y7785585D01*
X3632458Y7783199D01*
X3632543Y7783122D01*
X3632614Y7783096D01*
X3635789Y7780974D01*
X3641499Y7779838D01*
X3642030Y7779643D01*
X3642401Y7779659D01*
X3645700Y7779002D01*
X3745514D01*
Y7765798D01*
X3645700D01*
X3635789Y7763826D01*
X3627387Y7758213D01*
X3621774Y7749811D01*
X3619802Y7739900D01*
Y7659840D01*
X3621774Y7649930D01*
X3627387Y7641528D01*
X3630956Y7637960D01*
Y7634118D01*
X3427582Y7430744D01*
X3284006D01*
X3283037Y7430827D01*
X3276505Y7431813D01*
X3270554Y7433143D01*
X3265158Y7434788D01*
X3260292Y7436719D01*
X3255910Y7438917D01*
X3251954Y7441378D01*
X3248367Y7444112D01*
X3244175Y7447996D01*
X3242434Y7449066D01*
X3233157Y7458342D01*
X3206843Y7473535D01*
X3177493Y7481400D01*
X3147107D01*
X3117757Y7473535D01*
X3091443Y7458342D01*
X3069957Y7436857D01*
X3054765Y7410542D01*
X3046900Y7381193D01*
Y7350807D01*
X3054765Y7321457D01*
X3069957Y7295143D01*
X3091443Y7273657D01*
X3117757Y7258464D01*
X3147107Y7250600D01*
X3177493D01*
X3206843Y7258464D01*
X3233157Y7273657D01*
X3242434Y7282934D01*
X3244175Y7284004D01*
X3248367Y7287888D01*
X3251956Y7290622D01*
X3255910Y7293082D01*
X3260292Y7295281D01*
X3265158Y7297212D01*
X3270554Y7298857D01*
X3276506Y7300187D01*
X3283037Y7301172D01*
X3284007Y7301256D01*
X3454400D01*
X3479176Y7306184D01*
X3500181Y7320219D01*
X3732814Y7552852D01*
X3745514Y7547591D01*
Y6550402D01*
X3732813Y6541090D01*
X3730760Y6541498D01*
X3660640D01*
X3656093Y6540593D01*
X3655287Y6540580D01*
X3654997Y6540454D01*
X3654680Y6540440D01*
X3654197Y6540216D01*
X3650730Y6539527D01*
X3646759Y6536874D01*
X3646078Y6536577D01*
X3643683Y6535947D01*
X3639685Y6535224D01*
X3607236Y6533269D01*
X3593957Y6534245D01*
X3587460Y6535071D01*
X3582618Y6535947D01*
X3580221Y6536578D01*
X3579542Y6536873D01*
X3575570Y6539527D01*
X3572102Y6540217D01*
X3571619Y6540440D01*
X3571302Y6540453D01*
X3571012Y6540580D01*
X3570207Y6540593D01*
X3565660Y6541498D01*
X3495540D01*
X3490993Y6540593D01*
X3490187Y6540580D01*
X3489897Y6540454D01*
X3489580Y6540440D01*
X3489097Y6540216D01*
X3485630Y6539527D01*
X3481659Y6536874D01*
X3480978Y6536577D01*
X3478583Y6535947D01*
X3474585Y6535224D01*
X3435082Y6532844D01*
X3128000D01*
X3103223Y6527916D01*
X3082219Y6513881D01*
X2870978Y6302640D01*
X2859244Y6307500D01*
Y7568283D01*
X3078618Y7787656D01*
X3439989D01*
X3442295Y7787607D01*
D02*
G37*
G36*
X3653558Y6469090D02*
X3656470Y6430000D01*
X3647439Y6429943D01*
X3646030Y6420930D01*
X3645268Y6422653D01*
X3642982Y6424195D01*
X3639172Y6425556D01*
X3633838Y6426735D01*
X3626980Y6427733D01*
X3618512Y6428404D01*
X3592462Y6426735D01*
X3587128Y6425556D01*
X3583318Y6424195D01*
X3581032Y6422653D01*
X3580270Y6420930D01*
X3578882Y6429810D01*
X3569830Y6430000D01*
X3572742Y6469089D01*
X3565523Y6515270D01*
X3568008Y6513547D01*
X3571836Y6512005D01*
X3577007Y6510645D01*
X3583520Y6509466D01*
X3591376Y6508468D01*
X3607065Y6507314D01*
X3642780Y6509466D01*
X3649293Y6510645D01*
X3654464Y6512005D01*
X3658291Y6513547D01*
X3660777Y6515270D01*
X3653558Y6469090D01*
D02*
G37*
G36*
X3480930Y6420930D02*
X3480168Y6422653D01*
X3477882Y6424195D01*
X3474072Y6425556D01*
X3468738Y6426735D01*
X3461880Y6427733D01*
X3443592Y6429184D01*
X3404730Y6430000D01*
X3410407Y6506200D01*
X3424975Y6506291D01*
X3477680Y6509466D01*
X3484193Y6510645D01*
X3489364Y6512005D01*
X3493191Y6513547D01*
X3495677Y6515270D01*
X3480930Y6420930D01*
D02*
G37*
G36*
X2728947Y6439592D02*
X2727405Y6435764D01*
X2726044Y6430593D01*
X2724865Y6424080D01*
X2723868Y6416224D01*
X2722416Y6396485D01*
X2722359Y6393722D01*
X2724865Y6352120D01*
X2726044Y6345607D01*
X2727405Y6340437D01*
X2728947Y6336609D01*
X2730670Y6334123D01*
X2636330Y6348870D01*
X2638053Y6349632D01*
X2639595Y6351918D01*
X2640956Y6355728D01*
X2642135Y6361062D01*
X2643132Y6367920D01*
X2644255Y6382063D01*
X2642135Y6415138D01*
X2640956Y6420472D01*
X2639595Y6424282D01*
X2638053Y6426568D01*
X2636330Y6427330D01*
X2730670Y6442077D01*
X2728947Y6439592D01*
D02*
G37*
G36*
X3442295Y6403307D02*
X3458990Y6401983D01*
X3463789Y6401285D01*
X3467358Y6398899D01*
X3467443Y6398822D01*
X3467514Y6398796D01*
X3470689Y6396674D01*
X3476399Y6395538D01*
X3476930Y6395343D01*
X3477301Y6395359D01*
X3480600Y6394702D01*
X3580600D01*
X3583898Y6395359D01*
X3584270Y6395343D01*
X3584803Y6395538D01*
X3590511Y6396674D01*
X3593685Y6398795D01*
X3593757Y6398821D01*
X3593843Y6398900D01*
X3597108Y6401082D01*
X3618314Y6402441D01*
X3624090Y6401983D01*
X3628889Y6401285D01*
X3632458Y6398899D01*
X3632543Y6398822D01*
X3632614Y6398796D01*
X3635789Y6396674D01*
X3641499Y6395538D01*
X3642030Y6395343D01*
X3642401Y6395359D01*
X3645700Y6394702D01*
X3745514D01*
Y6381498D01*
X3645700D01*
X3635789Y6379526D01*
X3627387Y6373913D01*
X3621774Y6365511D01*
X3619802Y6355600D01*
Y6331604D01*
X3619198Y6331140D01*
X3606498Y6337396D01*
Y6355600D01*
X3604526Y6365511D01*
X3598913Y6373912D01*
X3590511Y6379526D01*
X3580600Y6381498D01*
X3568700D01*
Y6308100D01*
X3530600D01*
Y6270000D01*
X3455804D01*
X3456674Y6265630D01*
X3462287Y6257228D01*
X3477228Y6242287D01*
X3485630Y6236674D01*
X3495540Y6234702D01*
X3526847D01*
X3531707Y6222969D01*
X3317082Y6008344D01*
X3284006D01*
X3283037Y6008428D01*
X3276505Y6009414D01*
X3270554Y6010743D01*
X3265158Y6012388D01*
X3260292Y6014319D01*
X3255910Y6016518D01*
X3251954Y6018978D01*
X3248367Y6021712D01*
X3244175Y6025596D01*
X3242434Y6026666D01*
X3233157Y6035943D01*
X3206843Y6051136D01*
X3177493Y6059000D01*
X3147107D01*
X3117757Y6051136D01*
X3091443Y6035943D01*
X3069957Y6014457D01*
X3054765Y5988143D01*
X3046900Y5958793D01*
Y5928407D01*
X3054765Y5899058D01*
X3069957Y5872743D01*
X3091443Y5851258D01*
X3117757Y5836065D01*
X3147107Y5828200D01*
X3177493D01*
X3206843Y5836065D01*
X3233157Y5851258D01*
X3242434Y5860534D01*
X3244175Y5861604D01*
X3248367Y5865489D01*
X3251956Y5868223D01*
X3255910Y5870683D01*
X3260292Y5872881D01*
X3265158Y5874812D01*
X3270554Y5876457D01*
X3276506Y5877787D01*
X3283037Y5878773D01*
X3284007Y5878856D01*
X3343900D01*
X3368677Y5883785D01*
X3389681Y5897819D01*
X3703030Y6211168D01*
X3707272Y6215125D01*
X3721557Y6227111D01*
X3726856Y6231030D01*
X3731078Y6233781D01*
X3732814Y6234713D01*
X3737699Y6233335D01*
X3745418Y6225891D01*
X3745514Y6225674D01*
Y5207000D01*
X3749442Y5177162D01*
X3760959Y5149357D01*
X3779280Y5125480D01*
X3843378Y5061382D01*
X3839615Y5049253D01*
X3401454Y4967849D01*
X3387642Y4965659D01*
X3359779Y4963026D01*
X3335976Y4962708D01*
X3316434Y4964520D01*
X3301340Y4968104D01*
X3290666Y4972869D01*
X3283771Y4978211D01*
X3279360Y4984237D01*
X3276472Y4992164D01*
X3275055Y5005835D01*
X3275000Y5006012D01*
Y5034200D01*
X3024200D01*
Y4655345D01*
X3011500Y4648556D01*
X3011144Y4648794D01*
Y5446882D01*
X3040596Y5476334D01*
X3051982Y5469760D01*
X3046900Y5450793D01*
Y5420407D01*
X3054765Y5391057D01*
X3069957Y5364743D01*
X3091443Y5343257D01*
X3117757Y5328065D01*
X3147107Y5320200D01*
X3177493D01*
X3206843Y5328065D01*
X3233157Y5343257D01*
X3254643Y5364743D01*
X3269835Y5391057D01*
X3277700Y5420407D01*
Y5450793D01*
X3269835Y5480143D01*
X3254643Y5506457D01*
X3233157Y5527943D01*
X3206843Y5543135D01*
X3177493Y5551000D01*
X3147107D01*
X3128140Y5545918D01*
X3121566Y5557304D01*
X3122020Y5557758D01*
X3122767Y5558387D01*
X3128082Y5562308D01*
X3133231Y5565576D01*
X3138209Y5568228D01*
X3143015Y5570304D01*
X3147668Y5571848D01*
X3152203Y5572905D01*
X3156676Y5573509D01*
X3162386Y5573726D01*
X3164373Y5574200D01*
X3177493D01*
X3206843Y5582065D01*
X3233157Y5597258D01*
X3254643Y5618743D01*
X3269835Y5645058D01*
X3277700Y5674407D01*
Y5704793D01*
X3269835Y5734143D01*
X3254643Y5760457D01*
X3233157Y5781943D01*
X3206843Y5797136D01*
X3177493Y5805000D01*
X3147107D01*
X3117757Y5797136D01*
X3091443Y5781943D01*
X3069957Y5760457D01*
X3054765Y5734143D01*
X3046900Y5704793D01*
Y5691673D01*
X3046426Y5689686D01*
X3046208Y5683976D01*
X3045604Y5679503D01*
X3044548Y5674969D01*
X3043003Y5670316D01*
X3040928Y5665510D01*
X3038276Y5660531D01*
X3035007Y5655381D01*
X3031087Y5650067D01*
X3030458Y5649320D01*
X2904677Y5523539D01*
X2891517Y5526377D01*
X2890722Y5526980D01*
X2890185Y5529123D01*
X2941381Y5580319D01*
X2955416Y5601324D01*
X2960344Y5626100D01*
Y6124117D01*
X2960844Y6126632D01*
Y6209383D01*
X3154818Y6403356D01*
X3439989D01*
X3442295Y6403307D01*
D02*
G37*
G36*
X3730623Y6260930D02*
X3727137Y6260391D01*
X3722884Y6258775D01*
X3717863Y6256081D01*
X3712075Y6252309D01*
X3705519Y6247460D01*
X3690106Y6234528D01*
X3671623Y6217286D01*
X3661230Y6207049D01*
X3592148Y6245730D01*
X3607040Y6261157D01*
X3630508Y6288911D01*
X3639084Y6301238D01*
X3645556Y6312531D01*
X3649922Y6322791D01*
X3652182Y6332017D01*
X3652338Y6340209D01*
X3650389Y6347368D01*
X3646335Y6353493D01*
X3730623Y6260930D01*
D02*
G37*
G36*
X2728947Y6262016D02*
X2727405Y6258860D01*
X2726045Y6254809D01*
X2724866Y6249863D01*
X2723868Y6244023D01*
X2722416Y6229658D01*
X2721691Y6211714D01*
X2721600Y6201400D01*
X2645400D01*
X2645309Y6210545D01*
X2643949Y6232203D01*
X2643133Y6237497D01*
X2642135Y6241829D01*
X2640956Y6245198D01*
X2639595Y6247605D01*
X2638053Y6249048D01*
X2636330Y6249530D01*
X2730670Y6264277D01*
X2728947Y6262016D01*
D02*
G37*
G36*
X3231679Y6001869D02*
X3237234Y5997636D01*
X3243238Y5993901D01*
X3249690Y5990664D01*
X3256592Y5987925D01*
X3263943Y5985684D01*
X3271744Y5983941D01*
X3279992Y5982696D01*
X3288690Y5981949D01*
X3297837Y5981700D01*
Y5905500D01*
X3288690Y5905251D01*
X3279992Y5904504D01*
X3271744Y5903259D01*
X3263943Y5901516D01*
X3256592Y5899275D01*
X3249690Y5896536D01*
X3243238Y5893299D01*
X3237234Y5889564D01*
X3231679Y5885331D01*
X3226573Y5880600D01*
Y6006600D01*
X3231679Y6001869D01*
D02*
G37*
G36*
X3161400Y5599605D02*
X3154444Y5599340D01*
X3147523Y5598405D01*
X3140637Y5596801D01*
X3133785Y5594527D01*
X3126968Y5591583D01*
X3120185Y5587970D01*
X3113437Y5583687D01*
X3106724Y5578734D01*
X3100045Y5573112D01*
X3093401Y5566820D01*
X3039520Y5620701D01*
X3045812Y5627346D01*
X3051434Y5634024D01*
X3056386Y5640738D01*
X3060669Y5647485D01*
X3064283Y5654268D01*
X3067226Y5661085D01*
X3069500Y5667937D01*
X3071105Y5674823D01*
X3072040Y5681745D01*
X3072304Y5688700D01*
X3161400Y5599605D01*
D02*
G37*
G36*
X2043800D02*
X2036844Y5599340D01*
X2029923Y5598405D01*
X2023037Y5596801D01*
X2016185Y5594527D01*
X2009368Y5591583D01*
X2002585Y5587970D01*
X1995837Y5583687D01*
X1989124Y5578734D01*
X1982445Y5573112D01*
X1975801Y5566820D01*
X1921920Y5620701D01*
X1928212Y5627346D01*
X1933834Y5634024D01*
X1938786Y5640738D01*
X1943069Y5647485D01*
X1946683Y5654268D01*
X1949626Y5661085D01*
X1951900Y5667937D01*
X1953505Y5674823D01*
X1954440Y5681745D01*
X1954704Y5688700D01*
X2043800Y5599605D01*
D02*
G37*
G36*
X3251043Y4986309D02*
X3256288Y4971911D01*
X3265028Y4959972D01*
X3277265Y4950490D01*
X3292997Y4943467D01*
X3312226Y4938902D01*
X3334951Y4936794D01*
X3361173Y4937145D01*
X3390890Y4939953D01*
X3424104Y4945219D01*
Y4764377D01*
X3390890Y4757302D01*
X3361173Y4749068D01*
X3334951Y4739676D01*
X3312226Y4729124D01*
X3292997Y4717414D01*
X3277265Y4704545D01*
X3265028Y4690517D01*
X3256288Y4675330D01*
X3251043Y4658984D01*
X3249295Y4641479D01*
Y5003164D01*
X3251043Y4986309D01*
D02*
G37*
G36*
X2830856Y6096916D02*
Y5652918D01*
X2773619Y5595681D01*
X2759584Y5574676D01*
X2754656Y5549900D01*
Y4572000D01*
X2759584Y4547224D01*
X2773619Y4526219D01*
X2967894Y4331944D01*
X2962633Y4319244D01*
X2910873D01*
X2731744Y4498373D01*
Y6014398D01*
X2819123Y6101777D01*
X2830856Y6096916D01*
D02*
G37*
G36*
X2134960Y3916444D02*
X2135895Y3909523D01*
X2137500Y3902637D01*
X2139774Y3895785D01*
X2142717Y3888968D01*
X2146331Y3882185D01*
X2150614Y3875437D01*
X2155566Y3868724D01*
X2161188Y3862045D01*
X2167480Y3855401D01*
X2113599Y3801520D01*
X2106955Y3807812D01*
X2100276Y3813434D01*
X2093563Y3818386D01*
X2086815Y3822669D01*
X2080032Y3826283D01*
X2073215Y3829226D01*
X2066363Y3831500D01*
X2059477Y3833105D01*
X2052556Y3834040D01*
X2045600Y3834304D01*
X2134696Y3923400D01*
X2134960Y3916444D01*
D02*
G37*
G36*
X3567456Y4024482D02*
Y3759200D01*
X3568333Y3754789D01*
X3556629Y3748533D01*
X3506444Y3798718D01*
Y4038600D01*
X3501516Y4063376D01*
X3487481Y4084381D01*
X3290162Y4281700D01*
X3294342Y4295481D01*
X3296106Y4295832D01*
X3567456Y4024482D01*
D02*
G37*
G36*
X2602256Y6012000D02*
Y4471555D01*
X2607184Y4446779D01*
X2621219Y4425774D01*
X2838274Y4208719D01*
X2859279Y4194684D01*
X2884055Y4189756D01*
X3198982D01*
X3212805Y4175933D01*
X3207945Y4164200D01*
X3187700D01*
Y3971900D01*
X3275000D01*
Y4097144D01*
X3286733Y4102005D01*
X3376956Y4011782D01*
Y3771900D01*
X3381884Y3747124D01*
X3395919Y3726119D01*
X3401686Y3720352D01*
X3396426Y3707652D01*
X3275000D01*
Y3895700D01*
X3149600D01*
X3024200D01*
Y3707652D01*
X2670410D01*
X2566644Y3811418D01*
Y5992982D01*
X2590523Y6016861D01*
X2602256Y6012000D01*
D02*
G37*
G36*
X3031662Y2966081D02*
X3044809Y2955027D01*
X3051366Y2950301D01*
X3057913Y2946109D01*
X3064448Y2942452D01*
X3070972Y2939329D01*
X3077485Y2936740D01*
X3083987Y2934685D01*
X3090478Y2933164D01*
X2985395Y2863641D01*
X2986421Y2870344D01*
X2986632Y2877049D01*
X2986028Y2883756D01*
X2984607Y2890466D01*
X2982370Y2897177D01*
X2979318Y2903891D01*
X2975450Y2910607D01*
X2970766Y2917325D01*
X2965266Y2924046D01*
X2958950Y2930769D01*
X3025072Y2972410D01*
X3031662Y2966081D01*
D02*
G37*
G36*
X3535096Y2965459D02*
X3548309Y2954511D01*
X3554927Y2949875D01*
X3561552Y2945799D01*
X3568184Y2942281D01*
X3574824Y2939322D01*
X3581471Y2936921D01*
X3588126Y2935080D01*
X3594787Y2933799D01*
X3492687Y2859965D01*
X3493457Y2866767D01*
X3493441Y2873559D01*
X3492639Y2880340D01*
X3491050Y2887110D01*
X3488675Y2893869D01*
X3485513Y2900619D01*
X3481565Y2907357D01*
X3476830Y2914084D01*
X3471309Y2920801D01*
X3465001Y2927507D01*
X3528500Y2971772D01*
X3535096Y2965459D01*
D02*
G37*
G36*
X4535145Y2961288D02*
X4541824Y2955666D01*
X4548537Y2950713D01*
X4555285Y2946430D01*
X4562068Y2942817D01*
X4568885Y2939873D01*
X4575737Y2937599D01*
X4582623Y2935995D01*
X4589544Y2935060D01*
X4596500Y2934795D01*
X4507404Y2845700D01*
X4507140Y2852655D01*
X4506205Y2859577D01*
X4504600Y2866463D01*
X4502326Y2873315D01*
X4499383Y2880132D01*
X4495769Y2886915D01*
X4491486Y2893662D01*
X4486534Y2900376D01*
X4480912Y2907054D01*
X4474620Y2913699D01*
X4528501Y2967580D01*
X4535145Y2961288D01*
D02*
G37*
G36*
X4281145Y2961288D02*
X4287824Y2955666D01*
X4294537Y2950713D01*
X4301285Y2946430D01*
X4308068Y2942817D01*
X4314885Y2939873D01*
X4321737Y2937599D01*
X4328623Y2935995D01*
X4335544Y2935060D01*
X4342500Y2934795D01*
X4253404Y2845699D01*
X4253140Y2852655D01*
X4252205Y2859576D01*
X4250600Y2866463D01*
X4248326Y2873315D01*
X4245383Y2880132D01*
X4241769Y2886914D01*
X4237486Y2893662D01*
X4232534Y2900375D01*
X4226912Y2907054D01*
X4220620Y2913698D01*
X4274501Y2967580D01*
X4281145Y2961288D01*
D02*
G37*
%LPC*%
G36*
X3580600Y7765798D02*
X3568700D01*
Y7730500D01*
X3606498D01*
Y7739900D01*
X3604526Y7749811D01*
X3598913Y7758212D01*
X3590511Y7763826D01*
X3580600Y7765798D01*
D02*
G37*
G36*
X3492500D02*
X3480600D01*
X3470689Y7763826D01*
X3462287Y7758212D01*
X3456674Y7749811D01*
X3454702Y7739900D01*
Y7730500D01*
X3492500D01*
Y7765798D01*
D02*
G37*
G36*
X3200400Y7729262D02*
Y7658100D01*
X3271562D01*
X3269835Y7664543D01*
X3254643Y7690857D01*
X3233157Y7712343D01*
X3206843Y7727535D01*
X3200400Y7729262D01*
D02*
G37*
G36*
X3124200D02*
X3117757Y7727535D01*
X3091443Y7712343D01*
X3069957Y7690857D01*
X3054765Y7664543D01*
X3053038Y7658100D01*
X3124200D01*
Y7729262D01*
D02*
G37*
G36*
X3605396Y7654300D02*
X3568700D01*
Y7619607D01*
X3575570Y7620974D01*
X3583972Y7626587D01*
X3598912Y7641528D01*
X3604526Y7649929D01*
X3605396Y7654300D01*
D02*
G37*
G36*
X3492500D02*
X3455804D01*
X3456674Y7649930D01*
X3462287Y7641528D01*
X3477228Y7626587D01*
X3485630Y7620974D01*
X3492500Y7619607D01*
Y7654300D01*
D02*
G37*
G36*
X3271562Y7581900D02*
X3200400D01*
Y7510738D01*
X3206843Y7512465D01*
X3233157Y7527657D01*
X3254643Y7549143D01*
X3269835Y7575457D01*
X3271562Y7581900D01*
D02*
G37*
G36*
X3124200D02*
X3053038D01*
X3054765Y7575457D01*
X3069957Y7549143D01*
X3091443Y7527657D01*
X3117757Y7512465D01*
X3124200Y7510738D01*
Y7581900D01*
D02*
G37*
G36*
X3177493Y7227400D02*
X3147107D01*
X3117757Y7219536D01*
X3091443Y7204343D01*
X3069957Y7182857D01*
X3054765Y7156543D01*
X3046900Y7127193D01*
Y7096807D01*
X3054765Y7067458D01*
X3069957Y7041143D01*
X3091443Y7019658D01*
X3117757Y7004465D01*
X3147107Y6996600D01*
X3177493D01*
X3206843Y7004465D01*
X3233157Y7019658D01*
X3254643Y7041143D01*
X3269835Y7067458D01*
X3277700Y7096807D01*
Y7127193D01*
X3269835Y7156543D01*
X3254643Y7182857D01*
X3233157Y7204343D01*
X3206843Y7219536D01*
X3177493Y7227400D01*
D02*
G37*
G36*
Y6973400D02*
X3147107D01*
X3117757Y6965535D01*
X3091443Y6950343D01*
X3069957Y6928857D01*
X3054765Y6902543D01*
X3046900Y6873193D01*
Y6842807D01*
X3054765Y6813457D01*
X3069957Y6787143D01*
X3091443Y6765657D01*
X3117757Y6750465D01*
X3147107Y6742600D01*
X3177493D01*
X3206843Y6750465D01*
X3233157Y6765657D01*
X3254643Y6787143D01*
X3269835Y6813457D01*
X3277700Y6842807D01*
Y6873193D01*
X3269835Y6902543D01*
X3254643Y6928857D01*
X3233157Y6950343D01*
X3206843Y6965535D01*
X3177493Y6973400D01*
D02*
G37*
G36*
X3492500Y6381498D02*
X3480600D01*
X3470689Y6379526D01*
X3462287Y6373912D01*
X3456674Y6365511D01*
X3454702Y6355600D01*
Y6346200D01*
X3492500D01*
Y6381498D01*
D02*
G37*
G36*
X3200400Y6306862D02*
Y6235700D01*
X3271562D01*
X3269835Y6242143D01*
X3254643Y6268457D01*
X3233157Y6289943D01*
X3206843Y6305136D01*
X3200400Y6306862D01*
D02*
G37*
G36*
X3124200D02*
X3117757Y6305136D01*
X3091443Y6289943D01*
X3069957Y6268457D01*
X3054765Y6242143D01*
X3053038Y6235700D01*
X3124200D01*
Y6306862D01*
D02*
G37*
G36*
X3271562Y6159500D02*
X3200400D01*
Y6088338D01*
X3206843Y6090065D01*
X3233157Y6105258D01*
X3254643Y6126743D01*
X3269835Y6153058D01*
X3271562Y6159500D01*
D02*
G37*
G36*
X3124200D02*
X3053038D01*
X3054765Y6153058D01*
X3069957Y6126743D01*
X3091443Y6105258D01*
X3117757Y6090065D01*
X3124200Y6088338D01*
Y6159500D01*
D02*
G37*
G36*
X3111500Y4164200D02*
X3024200D01*
Y3971900D01*
X3111500D01*
Y4164200D01*
D02*
G37*
%LPD*%
G36*
X3774305Y12606000D02*
X3773543Y12613239D01*
X3771257Y12619716D01*
X3767447Y12625431D01*
X3762113Y12630384D01*
X3755255Y12634575D01*
X3746873Y12638004D01*
X3736967Y12640671D01*
X3725537Y12642576D01*
X3713037Y12643679D01*
X3668662Y12640835D01*
X3663328Y12639656D01*
X3659518Y12638295D01*
X3657232Y12636753D01*
X3656470Y12635030D01*
X3641723Y12729370D01*
X3644208Y12727647D01*
X3648036Y12726105D01*
X3653207Y12724744D01*
X3659720Y12723565D01*
X3667576Y12722568D01*
X3687315Y12721117D01*
X3710780Y12720634D01*
X3712583Y12720681D01*
X3725537Y12721824D01*
X3736967Y12723729D01*
X3746873Y12726396D01*
X3755255Y12729825D01*
X3762113Y12734016D01*
X3767447Y12738969D01*
X3771257Y12744684D01*
X3773543Y12751161D01*
X3774305Y12758400D01*
Y12606000D01*
D02*
G37*
G36*
X3946461Y12558745D02*
X3939984Y12556449D01*
X3934269Y12552624D01*
X3929316Y12547269D01*
X3925125Y12540383D01*
X3921696Y12531968D01*
X3919029Y12522022D01*
X3917124Y12510546D01*
X3915981Y12497541D01*
X3915600Y12483005D01*
X3839400D01*
X3839019Y12497541D01*
X3837876Y12510546D01*
X3835971Y12522022D01*
X3833304Y12531968D01*
X3829875Y12540383D01*
X3825684Y12547269D01*
X3820731Y12552624D01*
X3815016Y12556449D01*
X3808539Y12558745D01*
X3801300Y12559510D01*
X3953700D01*
X3946461Y12558745D01*
D02*
G37*
G36*
X3951020Y12054597D02*
X3978758Y12031146D01*
X3991080Y12022573D01*
X4002372Y12016103D01*
X4012633Y12011736D01*
X4021863Y12009471D01*
X4030062Y12009308D01*
X4037230Y12011248D01*
X4043368Y12015290D01*
X3930610Y11913132D01*
X3935128Y11918794D01*
X3937437Y11925592D01*
X3937539Y11933527D01*
X3935432Y11942598D01*
X3931118Y11952806D01*
X3924595Y11964151D01*
X3915864Y11976632D01*
X3904925Y11990250D01*
X3876423Y12020895D01*
X3935605Y12069477D01*
X3951020Y12054597D01*
D02*
G37*
G36*
X5954094Y12587019D02*
X5956089Y12576946D01*
X5959477Y12566430D01*
X5964258Y12555472D01*
X5970432Y12544071D01*
X5977999Y12532227D01*
X5986959Y12519941D01*
X5997311Y12507213D01*
X6022195Y12480428D01*
X6013191Y12471424D01*
X6037042Y12472511D01*
X6063312Y12476144D01*
X6089284Y12482199D01*
X6114959Y12490676D01*
X6140336Y12501575D01*
X6165415Y12514896D01*
X6190197Y12530639D01*
X6214681Y12548804D01*
X6238868Y12569391D01*
X6262757Y12592400D01*
Y12172400D01*
X6238868Y12195409D01*
X6214681Y12215996D01*
X6190197Y12234161D01*
X6165415Y12249904D01*
X6140336Y12263225D01*
X6114959Y12274124D01*
X6089284Y12282601D01*
X6063312Y12288656D01*
X6037042Y12292289D01*
X6010475Y12293500D01*
Y12468707D01*
X5896472Y12354705D01*
X5882858Y12367843D01*
X5856959Y12389941D01*
X5844673Y12398901D01*
X5832829Y12406468D01*
X5821428Y12412642D01*
X5810470Y12417423D01*
X5799954Y12420811D01*
X5789881Y12422806D01*
X5780250Y12423409D01*
X5953491Y12596650D01*
X5954094Y12587019D01*
D02*
G37*
G36*
X1767177Y11431130D02*
X1764217Y11433328D01*
X1759964Y11435295D01*
X1754418Y11437031D01*
X1747580Y11438535D01*
X1739449Y11439807D01*
X1719310Y11441659D01*
X1694001Y11442584D01*
X1679407Y11442700D01*
Y11518900D01*
X1694001Y11519016D01*
X1739449Y11521793D01*
X1747580Y11523065D01*
X1754418Y11524569D01*
X1759964Y11526305D01*
X1764217Y11528272D01*
X1767177Y11530470D01*
Y11431130D01*
D02*
G37*
G36*
X5394616Y12466189D02*
X5388904Y12457655D01*
X5383864Y12447824D01*
X5379496Y12436694D01*
X5375800Y12424267D01*
X5372776Y12410542D01*
X5370424Y12395519D01*
X5369038Y12382053D01*
X5370956Y12360277D01*
X5375401Y12333562D01*
X5381624Y12310408D01*
X5389625Y12290816D01*
X5399404Y12274787D01*
X5410961Y12262320D01*
X5424296Y12253414D01*
X5439409Y12248071D01*
X5456300Y12246290D01*
X5100700D01*
X5117591Y12248071D01*
X5132704Y12253414D01*
X5146039Y12262320D01*
X5157596Y12274787D01*
X5167375Y12290816D01*
X5175376Y12310408D01*
X5181599Y12333562D01*
X5186044Y12360277D01*
X5187794Y12380142D01*
X5186576Y12395519D01*
X5184224Y12410542D01*
X5181200Y12424267D01*
X5177504Y12436694D01*
X5173136Y12447824D01*
X5168096Y12457655D01*
X5162384Y12466189D01*
X5156000Y12473425D01*
X5401000D01*
X5394616Y12466189D01*
D02*
G37*
G36*
X1767177Y11075530D02*
X1764313Y11077728D01*
X1760351Y11079695D01*
X1755290Y11081430D01*
X1749131Y11082935D01*
X1741873Y11084207D01*
X1724060Y11086059D01*
X1701852Y11086984D01*
X1689100Y11087100D01*
Y11163300D01*
X1701852Y11163416D01*
X1741873Y11166193D01*
X1749131Y11167465D01*
X1755290Y11168969D01*
X1760351Y11170705D01*
X1764313Y11172672D01*
X1767177Y11174870D01*
X1767177Y11075530D01*
D02*
G37*
G36*
X2519870Y7646530D02*
X2511169Y7645991D01*
X2502250Y7644375D01*
X2493112Y7641680D01*
X2483755Y7637909D01*
X2474180Y7633059D01*
X2464387Y7627132D01*
X2454376Y7620128D01*
X2444145Y7612045D01*
X2423030Y7592648D01*
X2371648Y7649030D01*
X2381886Y7659550D01*
X2406132Y7688028D01*
X2412059Y7696494D01*
X2416909Y7704447D01*
X2420680Y7711886D01*
X2423375Y7718812D01*
X2424991Y7725224D01*
X2425530Y7731123D01*
X2519870Y7646530D01*
D02*
G37*
G36*
X2570670Y6249530D02*
X2561969Y6248991D01*
X2553050Y6247375D01*
X2543912Y6244680D01*
X2534555Y6240909D01*
X2524980Y6236059D01*
X2515187Y6230132D01*
X2505176Y6223128D01*
X2494945Y6215045D01*
X2473830Y6195648D01*
X2422448Y6252030D01*
X2432686Y6262550D01*
X2456932Y6291028D01*
X2462859Y6299494D01*
X2467709Y6307447D01*
X2471480Y6314886D01*
X2474175Y6321812D01*
X2475791Y6328224D01*
X2476330Y6334123D01*
X2570670Y6249530D01*
D02*
G37*
G36*
X2119448Y5994514D02*
X2121908Y5993222D01*
X2125285Y5992083D01*
X2129576Y5991096D01*
X2134784Y5990261D01*
X2147948Y5989046D01*
X2164775Y5988438D01*
X2174562Y5988362D01*
Y5912162D01*
X2165991Y5912067D01*
X2145075Y5910636D01*
X2139702Y5909778D01*
X2135129Y5908729D01*
X2131355Y5907489D01*
X2128381Y5906059D01*
X2126207Y5904438D01*
X2124831Y5902625D01*
X2117904Y5995957D01*
X2119448Y5994514D01*
D02*
G37*
G36*
X5454157Y4611859D02*
X5481962Y4600342D01*
X5511800Y4596413D01*
X5511802Y4596414D01*
X6477750D01*
X6479422Y4583714D01*
X6472274Y4581799D01*
X6471966Y4581758D01*
X6471679Y4581639D01*
X6457857Y4577935D01*
X6449285Y4572986D01*
X5470653D01*
X5426786Y4616854D01*
X5435177Y4626423D01*
X5454157Y4611859D01*
D02*
G37*
D10*
X1850416Y10921984D02*
G03*
X1850400Y10922000I-18365J-18332D01*
G01*
X1858000Y10903652D02*
G03*
X1850416Y10921984I-25949J0D01*
G01*
X1206500Y10287000D02*
X2070100D01*
X2239000Y10455900D01*
X1054100Y10553700D02*
X1111250Y10496550D01*
X1689100Y11125200D02*
X1799600D01*
X1600200Y11036300D02*
X1689100Y11125200D01*
X1600200Y10976600D02*
Y11036300D01*
X2632700Y7204700D02*
Y7861300D01*
X1612900Y6184900D02*
X2632700Y7204700D01*
X3530600Y6468100D02*
X3695700D01*
Y6295400D02*
Y6308100D01*
X3343900Y5943600D02*
X3695700Y6295400D01*
X3162300Y5943600D02*
X3343900D01*
X4191000Y3251200D02*
X4597400Y2844800D01*
X3962400Y3251200D02*
X4191000D01*
X4000500Y3390900D02*
X4381500D01*
X3632200Y3759200D02*
X4000500Y3390900D01*
X3441700Y3771900D02*
X3962400Y3251200D01*
X4381500Y3390900D02*
X4831539Y2940861D01*
Y2864661D02*
Y2940861D01*
Y2864661D02*
X4851400Y2844800D01*
X3924300Y3124200D02*
X4063999D01*
X4343400Y2844799D01*
X3405592Y3642908D02*
X3924300Y3124200D01*
X3441700Y3771900D02*
Y4038600D01*
X2643592Y3642908D02*
X3405592D01*
X3632200Y3759200D02*
Y4051300D01*
X3225800Y4254500D02*
X3441700Y4038600D01*
X2884055Y4254500D02*
X3225800D01*
X2667000Y4471555D02*
X2884055Y4254500D01*
X2667000Y4471555D02*
Y6041216D01*
X2794500Y6168716D01*
X3765516Y3778284D02*
Y4095784D01*
Y3778284D02*
X3988900Y3554900D01*
X4152982D01*
X3314700Y4368800D02*
X3632200Y4051300D01*
X3022600Y4368800D02*
X3314700D01*
X2819400Y4572000D02*
X3022600Y4368800D01*
X2819400Y4572000D02*
Y5549900D01*
X2946400Y4610100D02*
X3060700Y4495800D01*
X3365500D01*
X2946400Y4610100D02*
Y5473700D01*
X3365500Y4495800D02*
X3765516Y4095784D01*
X2946400Y5473700D02*
X3162300Y5689600D01*
X4154082Y3556000D02*
X4278718D01*
X4152982Y3554900D02*
X4154082Y3556000D01*
X4278718D02*
X4279818Y3554900D01*
X4484200D01*
X5085539Y2953561D01*
Y2864661D02*
Y2953561D01*
Y2864661D02*
X5105400Y2844800D01*
X2819400Y5549900D02*
X2895600Y5626100D01*
Y6126132D01*
X2896100Y6236200D02*
X3128000Y6468100D01*
X2896100Y6126632D02*
Y6236200D01*
X2895600Y6126132D02*
X2896100Y6126632D01*
X2794500Y7595100D02*
X3051800Y7852400D01*
X2794500Y6168716D02*
Y7595100D01*
X3128000Y6468100D02*
X3530600D01*
X3051800Y7852400D02*
X3530600D01*
X3695700D01*
Y7607300D02*
Y7692400D01*
X3454400Y7366000D02*
X3695700Y7607300D01*
X3162300Y7366000D02*
X3454400D01*
X2438400Y3530600D02*
X3314700D01*
X3847000Y2998300D02*
X3898982D01*
X3314700Y3530600D02*
X3847000Y2998300D01*
X3898982D02*
X4002679Y2894603D01*
X3755412Y2896700D02*
X3807312Y2844800D01*
X3244986Y3403600D02*
X3751886Y2896700D01*
X2222500Y3403600D02*
X3244986D01*
X3807312Y2844800D02*
X3835400D01*
X3751886Y2896700D02*
X3755412D01*
X4011509Y2894603D02*
X4061312Y2844800D01*
X4002679Y2894603D02*
X4011509D01*
X4061312Y2844800D02*
X4089400D01*
X3182490Y3263900D02*
X3581400Y2864990D01*
Y2844800D02*
Y2864990D01*
X2095500Y3263900D02*
X3182490D01*
X1612900Y3746500D02*
X2095500Y3263900D01*
X2794000Y3149600D02*
X3073400Y2870200D01*
Y2844799D02*
Y2870200D01*
X6908800Y838200D02*
Y3060700D01*
X6782900Y966300D02*
Y2908381D01*
X6573390Y3117891D02*
X6782900Y2908381D01*
X5613400Y3708400D02*
X5943600Y3378200D01*
X6311900D01*
X6572209Y3117891D01*
X6573390D01*
X6121400Y304800D02*
X6782900Y966300D01*
X5867400Y3708400D02*
X6261100D01*
X6908800Y3060700D01*
X6375400Y304800D02*
X6908800Y838200D01*
X2501900Y3784600D02*
X2643592Y3642908D01*
X1803400Y3822700D02*
X2222500Y3403600D01*
X2044700Y3924300D02*
X2438400Y3530600D01*
X1993900Y3149600D02*
X2794000D01*
X1447800Y3695700D02*
X1993900Y3149600D01*
X1612900Y3746500D02*
Y6184900D01*
X1447800Y6769100D02*
X1790700Y7112000D01*
X1447800Y3695700D02*
Y6769100D01*
X1803400Y3822700D02*
Y5448300D01*
X2044700Y5689600D01*
X2501900Y6019800D02*
X2683500Y6201400D01*
X2501900Y3784600D02*
Y6019800D01*
X2683500Y6201400D02*
Y6299200D01*
X1790700Y7112000D02*
X2044700D01*
X2064062Y7385362D02*
X2161862D01*
X2472700Y7696200D01*
X2044700Y7366000D02*
X2064062Y7385362D01*
X2683500Y6299200D02*
X2683500Y6299200D01*
X2683500Y6299200D02*
Y6477000D01*
X2051362Y5950262D02*
X2174562D01*
X2044700Y5943600D02*
X2051362Y5950262D01*
X2174562D02*
X2523500Y6299200D01*
X4559300Y11671300D02*
Y12217400D01*
X4343400Y11455400D02*
X4559300Y11671300D01*
X1651000Y11480800D02*
X1799600D01*
X2239000Y10455900D02*
Y10515600D01*
Y10765800D01*
X2082800Y10922000D02*
X2239000Y10765800D01*
X2010400Y10922000D02*
X2082800D01*
X1858000Y10515600D02*
Y10903652D01*
X2010400Y10584200D02*
Y10718800D01*
Y10584200D02*
X2079000Y10515600D01*
X2023100Y11188700D02*
X2212500D01*
X1959600Y11125200D02*
X2023100Y11188700D01*
X1972300Y11315700D02*
X2212500D01*
X1959600Y11303000D02*
X1972300Y11315700D01*
X1997700Y11442700D02*
X2212500D01*
X1959600Y11480800D02*
X1997700Y11442700D01*
X2757500Y11061700D02*
X2783800D01*
X2791900Y11053600D01*
Y11027300D02*
Y11053600D01*
Y11027300D02*
X2846399Y10972800D01*
X2955300D01*
X3606800Y12682200D02*
X3857200D01*
X3877500Y12661900D01*
Y12073700D02*
X3968100Y11983100D01*
X3877500Y12073700D02*
Y12661900D01*
X3968100Y11977800D02*
Y11983100D01*
X3982500Y11963400D02*
X4137500D01*
X3968100Y11977800D02*
X3982500Y11963400D01*
X4287463Y12489237D02*
X4559300Y12217400D01*
X4250500Y12661900D02*
X4287463Y12624937D01*
Y12489237D02*
Y12624937D01*
D11*
X3695700Y6468100D02*
D03*
X3530600D02*
D03*
X3695700Y7852400D02*
D03*
X3530600D02*
D03*
D12*
X3695700Y6308100D02*
D03*
X3530600Y6308100D02*
D03*
X3695700Y7692400D02*
D03*
X3530600Y7692400D02*
D03*
D13*
X3149600Y3933800D02*
D03*
Y4803800D02*
D03*
X3175000Y9248800D02*
D03*
Y8378800D02*
D03*
D14*
X2489200Y12632500D02*
D03*
X2489200Y11747500D02*
D03*
D15*
X327000Y11607800D02*
D03*
X1197000D02*
D03*
D16*
X3225800Y12327201D02*
D03*
D17*
Y12617201D02*
D03*
D18*
X1600200Y10816600D02*
D03*
X3606800Y12522200D02*
D03*
D19*
X1600200Y10976600D02*
D03*
X3606800Y12682200D02*
D03*
D20*
X3115300Y10972800D02*
D03*
X2683500Y6477000D02*
D03*
X2683500Y6299200D02*
D03*
X2632700Y7696200D02*
D03*
Y7861300D02*
D03*
X1959600Y11480800D02*
D03*
D21*
X2955300Y10972800D02*
D03*
X2523500Y6477000D02*
D03*
Y6299200D02*
D03*
X2472700Y7696200D02*
D03*
Y7861300D02*
D03*
X1799600Y11480800D02*
D03*
D22*
X3877500Y12661900D02*
D03*
X4250500D02*
D03*
D23*
X2010400Y10922000D02*
D03*
X1959600Y11303000D02*
D03*
X1858000Y10515600D02*
D03*
X2010400Y10718800D02*
D03*
X2239000Y10515600D02*
D03*
X1959600Y11125200D02*
D03*
D24*
X1850400Y10922000D02*
D03*
X1799600Y11303000D02*
D03*
X1698000Y10515600D02*
D03*
X1850400Y10718800D02*
D03*
X2079000Y10515600D02*
D03*
X1799600Y11125200D02*
D03*
D25*
X1752600Y12617200D02*
D03*
X1193800D02*
D03*
X1473200D02*
D03*
D26*
X1752600Y12427200D02*
D03*
X1193800D02*
D03*
X1473200D02*
D03*
D27*
X3454400Y11258800D02*
D03*
X2997200D02*
D03*
X3225800D02*
D03*
D28*
X3454400Y11448800D02*
D03*
X2997200D02*
D03*
X3225800D02*
D03*
D29*
X2483400Y11252200D02*
D03*
D30*
X2210900Y11442700D02*
D03*
Y11315700D02*
D03*
Y11188700D02*
D03*
Y11061700D02*
D03*
X2755900Y11442700D02*
D03*
Y11315700D02*
D03*
Y11188700D02*
D03*
X2755900Y11061700D02*
D03*
D31*
X5177500Y11709400D02*
D03*
D32*
X4137500Y11455400D02*
D03*
Y11963400D02*
D03*
D33*
X1185900Y11596700D02*
X1197000Y11607800D01*
X1079500Y10392833D02*
Y11279238D01*
X1145515Y11345253D01*
Y11596700D01*
X1185900D01*
X1638300Y9359900D02*
Y9855200D01*
X1206500Y10287000D02*
X1638300Y9855200D01*
X1111250Y10382250D02*
X1206500Y10287000D01*
X533400Y9880600D02*
X1054100Y10401300D01*
X533400Y3175000D02*
X863601Y2844799D01*
X533400Y3175000D02*
Y9880600D01*
X3225800Y11258800D02*
X3642847D01*
X3839447Y11455400D02*
X4137500D01*
X3642847Y11258800D02*
X3839447Y11455400D01*
X2771798Y9518395D02*
X2974998Y9721595D01*
X901700Y4584700D02*
Y4838700D01*
Y4330700D02*
Y4584700D01*
Y4076700D02*
Y4330700D01*
Y3822700D02*
Y4076700D01*
Y7213600D02*
X2771798Y9083698D01*
X901700Y4838700D02*
Y7213600D01*
X2771798Y9083698D02*
Y9518395D01*
X863601Y2844799D02*
X2057400D01*
X1638300Y9105900D02*
Y9359900D01*
Y8851900D02*
Y9105900D01*
Y8597900D02*
Y8851900D01*
Y8343900D02*
Y8597900D01*
X3860800Y5207000D02*
Y9093200D01*
Y5207000D02*
X4089400Y4978400D01*
X3860800Y9093200D02*
X4140200Y9372600D01*
X3160700Y4805862D02*
X4089400Y4978400D01*
X5511800Y4711700D02*
X6489105D01*
X5308600Y8331200D02*
X6553200D01*
X5524501Y8839199D02*
X6553200D01*
X4902200Y9131300D02*
X5448300Y8585200D01*
X5156200Y9207500D02*
Y9372600D01*
X4648200Y8991600D02*
X5308600Y8331200D01*
X5410621Y9283279D02*
Y9372179D01*
X5600700Y9093200D02*
X6553200D01*
X5410621Y9283279D02*
X5600700Y9093200D01*
X5448300Y8585200D02*
X6553200D01*
X5156200Y9207500D02*
X5524501Y8839199D01*
X5410200Y9372600D02*
X5410621Y9372179D01*
X3149600Y4803800D02*
X3160700Y4805862D01*
X2044700Y4432300D02*
Y4686300D01*
X5105400Y3708400D02*
X5359400D01*
X5156200Y8102600D02*
X5410200D01*
X4648200Y8991600D02*
Y9372600D01*
X4902200Y9131300D02*
Y9372600D01*
X3186100Y9250224D02*
X4140200Y9372600D01*
X3175000Y9248800D02*
X3186100Y9250224D01*
X4137500Y11455400D02*
X4343400D01*
X4137500Y9375895D02*
Y11455400D01*
Y9375895D02*
X4140200Y9373195D01*
Y9372600D02*
Y9373195D01*
X4597400Y4622800D02*
X5257800Y3962400D01*
X6502400D01*
X4597400Y4622800D02*
Y4978400D01*
X4851400Y4699000D02*
X5334000Y4216400D01*
X4851400Y4699000D02*
Y4978400D01*
X5334000Y4216400D02*
X6502400D01*
X5422900Y4457700D02*
X6489105D01*
X5105400Y4775200D02*
X5422900Y4457700D01*
X5105400Y4775200D02*
Y4978400D01*
X6489105Y4457700D02*
X6501805Y4470400D01*
X6502400D01*
X5359820Y4863680D02*
Y4977979D01*
Y4863680D02*
X5511800Y4711700D01*
X5359399Y4978400D02*
X5359820Y4977979D01*
X6489105Y4711700D02*
X6501805Y4724400D01*
X6502400D01*
X2997200Y11258800D02*
X3225800D01*
X5278500Y11810400D02*
Y12598400D01*
X5177500Y11709400D02*
X5278500Y11810400D01*
X5994500Y12382400D02*
X6477000D01*
X5778500Y12598400D02*
X5994500Y12382400D01*
D34*
X1850400Y10922000D02*
X1952000Y11023600D01*
X2137821D02*
X2175921Y11061700D01*
X1952000Y11023600D02*
X2137821D01*
X2175921Y11061700D02*
X2212500D01*
D35*
X2876550Y11252200D02*
D03*
D36*
X901700Y8343900D02*
D03*
X4089400Y304800D02*
D03*
X901700Y8851900D02*
D03*
X3835400Y304800D02*
D03*
X901700Y9359900D02*
D03*
X4597400Y304800D02*
D03*
X901700Y8597900D02*
D03*
Y9105900D02*
D03*
X2044700Y6858000D02*
D03*
Y7112000D02*
D03*
Y7366000D02*
D03*
Y7620000D02*
D03*
X3162300Y6858000D02*
D03*
Y7112000D02*
D03*
Y7366000D02*
D03*
Y7620000D02*
D03*
Y5435600D02*
D03*
Y5689600D02*
D03*
Y5943600D02*
D03*
Y6197600D02*
D03*
X6629400Y304800D02*
D03*
X6375400Y304800D02*
D03*
X6121400D02*
D03*
X5867400D02*
D03*
X5613400D02*
D03*
X5359400Y304800D02*
D03*
X5105400Y304800D02*
D03*
X4851400D02*
D03*
X4343400Y304800D02*
D03*
X3581400Y304800D02*
D03*
X3327400D02*
D03*
X3073400Y304800D02*
D03*
X2819400Y304800D02*
D03*
X2565400D02*
D03*
X2311400D02*
D03*
X2057400Y304800D02*
D03*
Y2844799D02*
D03*
X2311400Y2844800D02*
D03*
X2565400D02*
D03*
X2819400D02*
D03*
X3073400Y2844799D02*
D03*
X3327400Y2844800D02*
D03*
X3581400D02*
D03*
X3835400D02*
D03*
X4089400D02*
D03*
X4343400Y2844799D02*
D03*
X4597400Y2844800D02*
D03*
X4851400D02*
D03*
X5105400D02*
D03*
X5359400Y2844799D02*
D03*
X5613400Y2844800D02*
D03*
X5867400D02*
D03*
X6121400D02*
D03*
X6375400D02*
D03*
X6629400Y2844799D02*
D03*
X2044700Y6197600D02*
D03*
Y5943600D02*
D03*
Y5689600D02*
D03*
Y5435600D02*
D03*
X1638300Y9359900D02*
D03*
Y8343900D02*
D03*
Y8597900D02*
D03*
Y8851900D02*
D03*
Y9105900D02*
D03*
X2044700Y3924300D02*
D03*
Y4178300D02*
D03*
Y4432300D02*
D03*
Y4686300D02*
D03*
X6553200Y9093200D02*
D03*
Y8839199D02*
D03*
Y8585200D02*
D03*
Y8331200D02*
D03*
X6502400Y4724400D02*
D03*
Y4470400D02*
D03*
Y4216400D02*
D03*
Y3962400D02*
D03*
X1282700Y4572000D02*
D03*
Y4318000D02*
D03*
Y4064000D02*
D03*
Y3810000D02*
D03*
Y4826000D02*
D03*
X1270000Y9105900D02*
D03*
Y8851900D02*
D03*
Y8597900D02*
D03*
Y8343900D02*
D03*
Y9359900D02*
D03*
X901700Y4076700D02*
D03*
Y4330700D02*
D03*
Y4584700D02*
D03*
Y4838700D02*
D03*
Y3822700D02*
D03*
X4140200Y9372600D02*
D03*
X4394200D02*
D03*
X4648200D02*
D03*
X4902200D02*
D03*
X5156200D02*
D03*
X5410200D02*
D03*
X5664200D02*
D03*
X5918200D02*
D03*
Y8102600D02*
D03*
X5664200Y8102600D02*
D03*
X5410200Y8102600D02*
D03*
X5156200D02*
D03*
X4902200D02*
D03*
X4648200Y8102600D02*
D03*
X4394200Y8102600D02*
D03*
X4140200D02*
D03*
X4089400Y3708400D02*
D03*
X4343400D02*
D03*
X4597400D02*
D03*
X4851400D02*
D03*
X5105400D02*
D03*
X5359400D02*
D03*
X5613400D02*
D03*
X5867400D02*
D03*
Y4978400D02*
D03*
X5613400D02*
D03*
X5359399Y4978400D02*
D03*
X5105400D02*
D03*
X4851400Y4978400D02*
D03*
X4597400D02*
D03*
X4343400Y4978400D02*
D03*
X4089400D02*
D03*
D37*
X5092700Y1765300D02*
D03*
X3378200Y10363200D02*
D03*
D38*
X6477000Y11582400D02*
D03*
Y12382400D02*
D03*
D39*
X5778500Y12598400D02*
D03*
X5278500D02*
D03*
D40*
X2921000Y11569700D02*
D03*
X2768600Y11557000D02*
D03*
X3225800Y11569700D02*
D03*
X3454400D02*
D03*
X3835400Y787400D02*
D03*
X3289300Y1422400D02*
D03*
X2857500Y1498600D02*
D03*
X1701800Y10642600D02*
D03*
X4445000Y4838700D02*
D03*
X4193308Y4812130D02*
D03*
X4343400Y4762500D02*
D03*
X2794000Y4076700D02*
D03*
X2895600Y3873500D02*
D03*
Y3975100D02*
D03*
Y4076700D02*
D03*
X3606800Y12395200D02*
D03*
X3238500Y10972800D02*
D03*
X1676400Y11303000D02*
D03*
X1600200Y10693400D02*
D03*
X596900Y11493500D02*
D03*
Y11607800D02*
D03*
Y11734800D02*
D03*
X165100Y11442700D02*
D03*
X330200D02*
D03*
X431800D02*
D03*
Y11798300D02*
D03*
X317500D02*
D03*
X165100D02*
D03*
X1828800Y12306300D02*
D03*
X1701800D02*
D03*
X1562100D02*
D03*
X1422400D02*
D03*
X1295400D02*
D03*
X1181100D02*
D03*
X3302000Y12192000D02*
D03*
X3200400D02*
D03*
X3111500D02*
D03*
X1651000Y11480800D02*
D03*
X2428400Y11362200D02*
D03*
X2538401Y11362200D02*
D03*
X2428400Y11252200D02*
D03*
X2538400D02*
D03*
X2428400Y11142200D02*
D03*
X2538400D02*
D03*
D41*
X1336198Y10921259D02*
D03*
X5969000Y11112500D02*
D03*
X3302000Y5207000D02*
D03*
X3556000Y4635500D02*
D03*
X381000Y825500D02*
D03*
Y1968500D02*
D03*
X1206500Y1651000D02*
D03*
X4445000Y10985500D02*
D03*
X5397500Y9969500D02*
D03*
X5207000Y10287000D02*
D03*
X4635500Y10477500D02*
D03*
X4381500Y2032000D02*
D03*
X7175500Y4445000D02*
D03*
X6960000Y5460000D02*
D03*
X7210000Y4960000D02*
D03*
Y3960000D02*
D03*
X6960000Y3460000D02*
D03*
X6710000Y11960000D02*
D03*
X6460000Y10460000D02*
D03*
X6710000Y9960000D02*
D03*
X6460000Y9460000D02*
D03*
X6710000Y8960000D02*
D03*
Y7960000D02*
D03*
X6460000Y5460000D02*
D03*
X6710000Y3960000D02*
D03*
X6210000Y11960000D02*
D03*
X5960000Y11460000D02*
D03*
Y10460000D02*
D03*
X6210000Y9960000D02*
D03*
X5960000Y5460000D02*
D03*
Y2460000D02*
D03*
Y1460000D02*
D03*
Y460000D02*
D03*
X5710000Y11960000D02*
D03*
Y10960000D02*
D03*
X5460000Y10460000D02*
D03*
X5710000Y9960000D02*
D03*
X5460000Y5460000D02*
D03*
Y2460000D02*
D03*
X5710000Y1960000D02*
D03*
X5460000Y1460000D02*
D03*
X5710000Y960000D02*
D03*
X5460000Y460000D02*
D03*
X4960000Y12460000D02*
D03*
X5210000Y10960000D02*
D03*
X4960000Y5460000D02*
D03*
Y2460000D02*
D03*
Y1460000D02*
D03*
X5210000Y960000D02*
D03*
X4960000Y460000D02*
D03*
X4460000Y12460000D02*
D03*
Y5460000D02*
D03*
X4710000Y3960000D02*
D03*
X4460000Y2460000D02*
D03*
X4710000Y1960000D02*
D03*
X4460000Y1460000D02*
D03*
X3960000Y10460000D02*
D03*
X4210000Y8960000D02*
D03*
X3960000Y4460000D02*
D03*
X4210000Y3960000D02*
D03*
X3960000Y2460000D02*
D03*
Y1460000D02*
D03*
X3460000Y12460000D02*
D03*
X3710000Y11960000D02*
D03*
Y10960000D02*
D03*
Y9960000D02*
D03*
X3460000Y9460000D02*
D03*
Y2460000D02*
D03*
Y1460000D02*
D03*
X3710000Y960000D02*
D03*
X2960000Y12460000D02*
D03*
X3210000Y11960000D02*
D03*
X2960000Y10460000D02*
D03*
X3210000Y9960000D02*
D03*
X2960000Y9460000D02*
D03*
X3210000Y8960000D02*
D03*
X2960000Y7460000D02*
D03*
Y6460000D02*
D03*
Y2460000D02*
D03*
Y1460000D02*
D03*
X2710000Y10960000D02*
D03*
X2460000Y10460000D02*
D03*
X2710000Y7960000D02*
D03*
Y3960000D02*
D03*
X2460000Y2460000D02*
D03*
Y460000D02*
D03*
X1960000Y12460000D02*
D03*
X2210000Y11960000D02*
D03*
Y10960000D02*
D03*
Y8960000D02*
D03*
Y7960000D02*
D03*
Y4960000D02*
D03*
Y3960000D02*
D03*
X1960000Y2460000D02*
D03*
Y460000D02*
D03*
X1710000Y11960000D02*
D03*
X1460000Y10460000D02*
D03*
Y8460000D02*
D03*
Y3460000D02*
D03*
X1710000Y960000D02*
D03*
X1210000Y11960000D02*
D03*
Y7960000D02*
D03*
Y6960000D02*
D03*
Y5960000D02*
D03*
Y4960000D02*
D03*
X960000Y3460000D02*
D03*
X1210000Y960000D02*
D03*
X460000Y12460000D02*
D03*
X710000Y11960000D02*
D03*
Y10960000D02*
D03*
X460000Y10460000D02*
D03*
X710000Y7960000D02*
D03*
Y6960000D02*
D03*
X460000Y2460000D02*
D03*
Y1460000D02*
D03*
D42*
X2974998Y9721595D02*
D03*
X2771798Y9518395D02*
D03*
%TF.MD5,b948eba605d3b761b4c1a86e8ca93e96*%
M02*
