%TF.GenerationSoftware,Altium Limited,Altium Designer,23.0.1 (38)*%
G04 Layer_Physical_Order=2*
G04 Layer_Color=16711680*
%FSLAX45Y45*%
%MOMM*%
%TF.SameCoordinates,0946520A-43BC-435E-BA57-7B8340C501A0*%
%TF.FilePolarity,Positive*%
%TF.FileFunction,Copper,L2,Bot,Signal*%
%TF.Part,Single*%
G01*
G75*
%TA.AperFunction,Conductor*%
%ADD10C,0.76200*%
%ADD33C,1.77800*%
%TA.AperFunction,ComponentPad*%
%ADD36C,1.80000*%
%ADD37C,5.00000*%
%ADD38C,6.00000*%
%ADD39C,3.50000*%
%TA.AperFunction,ViaPad*%
%ADD40C,0.60960*%
%ADD41C,0.70000*%
%ADD42C,1.27000*%
G36*
X1562756Y9447556D02*
X1545957Y9430757D01*
X1530765Y9404443D01*
X1522900Y9375093D01*
Y9344707D01*
X1523014Y9344284D01*
Y9121516D01*
X1522900Y9121093D01*
Y9090707D01*
X1523014Y9090284D01*
Y8867516D01*
X1522900Y8867093D01*
Y8836707D01*
X1523014Y8836284D01*
Y8613516D01*
X1522900Y8613093D01*
Y8582707D01*
X1523014Y8582284D01*
Y8359516D01*
X1522900Y8359093D01*
Y8328707D01*
X1530765Y8299357D01*
X1545957Y8273043D01*
X1567443Y8251557D01*
X1593757Y8236365D01*
X1623107Y8228500D01*
X1653493D01*
X1653916Y8228614D01*
X2911347D01*
X3288314Y7851647D01*
Y7644650D01*
X3275614Y7642978D01*
X3269835Y7664543D01*
X3254643Y7690857D01*
X3233157Y7712343D01*
X3206843Y7727535D01*
X3200400Y7729262D01*
Y7620000D01*
Y7510738D01*
X3206843Y7512465D01*
X3233157Y7527657D01*
X3254643Y7549143D01*
X3269835Y7575457D01*
X3275614Y7597022D01*
X3288314Y7595350D01*
Y7390650D01*
X3275614Y7388978D01*
X3269835Y7410542D01*
X3254643Y7436857D01*
X3233157Y7458342D01*
X3206843Y7473535D01*
X3177493Y7481400D01*
X3147107D01*
X3117757Y7473535D01*
X3091443Y7458342D01*
X3069957Y7436857D01*
X3054765Y7410542D01*
X3046900Y7381193D01*
Y7350807D01*
X3054765Y7321457D01*
X3069957Y7295143D01*
X3091443Y7273657D01*
X3117757Y7258464D01*
X3147107Y7250600D01*
X3177493D01*
X3206843Y7258464D01*
X3233157Y7273657D01*
X3254643Y7295143D01*
X3269835Y7321457D01*
X3275614Y7343021D01*
X3288314Y7341350D01*
Y7136650D01*
X3275614Y7134979D01*
X3269835Y7156543D01*
X3254643Y7182857D01*
X3233157Y7204343D01*
X3206843Y7219536D01*
X3177493Y7227400D01*
X3147107D01*
X3117757Y7219536D01*
X3091443Y7204343D01*
X3082166Y7195066D01*
X3080425Y7193996D01*
X3076233Y7190112D01*
X3072644Y7187378D01*
X3068690Y7184918D01*
X3064308Y7182719D01*
X3059442Y7180788D01*
X3054046Y7179143D01*
X3048094Y7177813D01*
X3041563Y7176828D01*
X3040593Y7176744D01*
X2947818D01*
X2306381Y7818181D01*
X2285376Y7832216D01*
X2260600Y7837144D01*
X2113812D01*
X2108282Y7838244D01*
X1981118D01*
X1975588Y7837144D01*
X1701800D01*
X1677024Y7832216D01*
X1656019Y7818181D01*
X673377Y6835539D01*
X661644Y6840400D01*
Y7567782D01*
X1123697Y8029835D01*
X1137732Y8050839D01*
X1142660Y8075616D01*
Y8324200D01*
X1155360Y8325872D01*
X1162465Y8299357D01*
X1177657Y8273043D01*
X1199143Y8251557D01*
X1225457Y8236365D01*
X1231900Y8234638D01*
Y8343900D01*
Y8453162D01*
X1225457Y8451435D01*
X1199143Y8436243D01*
X1177657Y8414757D01*
X1162465Y8388443D01*
X1155360Y8361928D01*
X1142660Y8363600D01*
Y8578200D01*
X1155360Y8579872D01*
X1162465Y8553357D01*
X1177657Y8527043D01*
X1199143Y8505557D01*
X1225457Y8490365D01*
X1231900Y8488638D01*
Y8597900D01*
Y8707162D01*
X1225457Y8705435D01*
X1199143Y8690243D01*
X1177657Y8668757D01*
X1162465Y8642443D01*
X1155360Y8615928D01*
X1142660Y8617600D01*
Y8832200D01*
X1155360Y8833872D01*
X1162465Y8807357D01*
X1177657Y8781043D01*
X1199143Y8759557D01*
X1225457Y8744365D01*
X1231900Y8742638D01*
Y8851900D01*
Y8961162D01*
X1225457Y8959435D01*
X1199143Y8944243D01*
X1177657Y8922757D01*
X1162465Y8896443D01*
X1155360Y8869928D01*
X1142660Y8871600D01*
Y9086200D01*
X1155360Y9087872D01*
X1162465Y9061357D01*
X1177657Y9035043D01*
X1199143Y9013557D01*
X1225457Y8998365D01*
X1231900Y8996638D01*
Y9105900D01*
Y9215162D01*
X1225457Y9213435D01*
X1199143Y9198243D01*
X1177657Y9176757D01*
X1162465Y9150443D01*
X1155360Y9123928D01*
X1142660Y9125600D01*
Y9183684D01*
X1137732Y9208461D01*
X1123697Y9229465D01*
X1033542Y9319620D01*
X1032913Y9320367D01*
X1028992Y9325682D01*
X1025724Y9330831D01*
X1023072Y9335809D01*
X1020997Y9340615D01*
X1019453Y9345268D01*
X1018396Y9349803D01*
X1017792Y9354276D01*
X1017574Y9359986D01*
X1017100Y9361973D01*
Y9375093D01*
X1009235Y9404443D01*
X994043Y9430757D01*
X977244Y9447556D01*
X982505Y9460256D01*
X1189195D01*
X1194456Y9447556D01*
X1177657Y9430757D01*
X1162465Y9404443D01*
X1160738Y9398000D01*
X1270000D01*
X1379262D01*
X1377535Y9404443D01*
X1362343Y9430757D01*
X1345544Y9447556D01*
X1350805Y9460256D01*
X1557495D01*
X1562756Y9447556D01*
D02*
G37*
G36*
X991960Y9352044D02*
X992895Y9345123D01*
X994500Y9338237D01*
X996774Y9331385D01*
X999717Y9324568D01*
X1003331Y9317785D01*
X1007614Y9311037D01*
X1012566Y9304324D01*
X1018188Y9297645D01*
X1024480Y9291001D01*
X970599Y9237120D01*
X963955Y9243412D01*
X957276Y9249034D01*
X950563Y9253986D01*
X943815Y9258269D01*
X937032Y9261883D01*
X930215Y9264826D01*
X923363Y9267100D01*
X916477Y9268705D01*
X909556Y9269640D01*
X902600Y9269904D01*
X991696Y9359000D01*
X991960Y9352044D01*
D02*
G37*
G36*
X826156Y9447556D02*
X809357Y9430757D01*
X794165Y9404443D01*
X786300Y9375093D01*
Y9344707D01*
X794165Y9315357D01*
X809357Y9289043D01*
X830843Y9267557D01*
X857157Y9252365D01*
X886507Y9244500D01*
X899627D01*
X901614Y9244026D01*
X907324Y9243808D01*
X911797Y9243204D01*
X916332Y9242148D01*
X920985Y9240603D01*
X925791Y9238528D01*
X930769Y9235876D01*
X935920Y9232607D01*
X941233Y9228687D01*
X941980Y9228058D01*
X942434Y9227604D01*
X935860Y9216218D01*
X916893Y9221300D01*
X886507D01*
X857157Y9213435D01*
X830843Y9198243D01*
X809357Y9176757D01*
X794165Y9150443D01*
X786300Y9121093D01*
Y9090707D01*
X794165Y9061357D01*
X809357Y9035043D01*
X830843Y9013557D01*
X857157Y8998365D01*
X886507Y8990500D01*
X916893D01*
X946243Y8998365D01*
X972557Y9013557D01*
X994043Y9035043D01*
X1000472Y9046178D01*
X1013172Y9042775D01*
Y8929933D01*
X1000472Y8926080D01*
X990622Y8940822D01*
X969617Y8954856D01*
X945224Y8959709D01*
X916893Y8967300D01*
X886507D01*
X857157Y8959435D01*
X830843Y8944243D01*
X809357Y8922757D01*
X794165Y8896443D01*
X786300Y8867093D01*
Y8853973D01*
X785826Y8851986D01*
X785608Y8846276D01*
X785004Y8841803D01*
X783948Y8837268D01*
X782403Y8832615D01*
X780328Y8827809D01*
X777676Y8822831D01*
X774407Y8817680D01*
X770487Y8812367D01*
X769858Y8811620D01*
X309819Y8351581D01*
X306044Y8345931D01*
X293344Y8349784D01*
Y8952082D01*
X801518Y9460256D01*
X820895D01*
X826156Y9447556D01*
D02*
G37*
G36*
X762191Y9587256D02*
X749924Y9584816D01*
X728919Y9570781D01*
X191744Y9033606D01*
X179044Y9038867D01*
Y9066382D01*
X712618Y9599956D01*
X760940D01*
X762191Y9587256D01*
D02*
G37*
G36*
X900800Y8761904D02*
X893844Y8761640D01*
X886923Y8760705D01*
X880037Y8759100D01*
X873185Y8756826D01*
X866368Y8753883D01*
X859585Y8750269D01*
X852837Y8745986D01*
X846124Y8741034D01*
X839445Y8735412D01*
X832801Y8729120D01*
X778920Y8783001D01*
X785212Y8789645D01*
X790834Y8796324D01*
X795786Y8803037D01*
X800069Y8809785D01*
X803683Y8816568D01*
X806626Y8823385D01*
X808900Y8830237D01*
X810505Y8837123D01*
X811440Y8844044D01*
X811704Y8851000D01*
X900800Y8761904D01*
D02*
G37*
G36*
X791382Y8632060D02*
X786300Y8613093D01*
Y8582707D01*
X794165Y8553357D01*
X809357Y8527043D01*
X830843Y8505557D01*
X857157Y8490365D01*
X886507Y8482500D01*
X916893D01*
X946243Y8490365D01*
X972557Y8505557D01*
X994043Y8527043D01*
X1000472Y8538178D01*
X1013172Y8534775D01*
Y8407025D01*
X1000472Y8403622D01*
X994043Y8414757D01*
X972557Y8436243D01*
X946243Y8451435D01*
X916893Y8459300D01*
X886507D01*
X857157Y8451435D01*
X830843Y8436243D01*
X809357Y8414757D01*
X794165Y8388443D01*
X786300Y8359093D01*
Y8345973D01*
X785826Y8343986D01*
X785608Y8338276D01*
X785004Y8333803D01*
X783948Y8329268D01*
X782403Y8324615D01*
X780328Y8319809D01*
X777676Y8314831D01*
X774407Y8309680D01*
X770487Y8304367D01*
X769858Y8303620D01*
X433044Y7966806D01*
X420344Y7972067D01*
Y8278982D01*
X779996Y8638634D01*
X791382Y8632060D01*
D02*
G37*
G36*
X900800Y8253904D02*
X893844Y8253640D01*
X886923Y8252705D01*
X880037Y8251100D01*
X873185Y8248826D01*
X866368Y8245883D01*
X859585Y8242269D01*
X852837Y8237986D01*
X846124Y8233034D01*
X839445Y8227412D01*
X832801Y8221120D01*
X778920Y8275001D01*
X785212Y8281645D01*
X790834Y8288324D01*
X795786Y8295037D01*
X800069Y8301785D01*
X803683Y8308568D01*
X806626Y8315385D01*
X808900Y8322237D01*
X810505Y8329123D01*
X811440Y8336044D01*
X811704Y8343000D01*
X900800Y8253904D01*
D02*
G37*
G36*
X3383219Y8425119D02*
X3404224Y8411084D01*
X3429000Y8406156D01*
X5523082D01*
X5704934Y8224304D01*
X5698359Y8212918D01*
X5679393Y8218000D01*
X5666273D01*
X5664286Y8218475D01*
X5658576Y8218692D01*
X5654103Y8219296D01*
X5649568Y8220353D01*
X5644915Y8221897D01*
X5640109Y8223972D01*
X5635131Y8226624D01*
X5629980Y8229894D01*
X5624667Y8233814D01*
X5623920Y8234442D01*
X5532181Y8326181D01*
X5511177Y8340216D01*
X5486400Y8345144D01*
X3405018D01*
X2179381Y9570781D01*
X2158376Y9584816D01*
X2146109Y9587256D01*
X2147360Y9599956D01*
X2208382D01*
X3383219Y8425119D01*
D02*
G37*
G36*
X5601945Y8219089D02*
X5608624Y8213466D01*
X5615337Y8208514D01*
X5622085Y8204231D01*
X5628868Y8200618D01*
X5635685Y8197674D01*
X5642537Y8195400D01*
X5649423Y8193795D01*
X5656344Y8192861D01*
X5663300Y8192596D01*
X5574204Y8103500D01*
X5573940Y8110456D01*
X5573005Y8117377D01*
X5571400Y8124264D01*
X5569126Y8131115D01*
X5566183Y8137933D01*
X5562569Y8144715D01*
X5558286Y8151463D01*
X5553334Y8158176D01*
X5547712Y8164855D01*
X5541420Y8171499D01*
X5595301Y8225381D01*
X5601945Y8219089D01*
D02*
G37*
G36*
X5855945Y8219088D02*
X5862624Y8213466D01*
X5869337Y8208514D01*
X5876085Y8204231D01*
X5882868Y8200617D01*
X5889685Y8197674D01*
X5896537Y8195400D01*
X5903423Y8193795D01*
X5910344Y8192860D01*
X5917300Y8192596D01*
X5828204Y8103500D01*
X5827940Y8110456D01*
X5827005Y8117377D01*
X5825400Y8124263D01*
X5823126Y8131115D01*
X5820183Y8137932D01*
X5816569Y8144715D01*
X5812286Y8151463D01*
X5807334Y8158176D01*
X5801712Y8164855D01*
X5795420Y8171499D01*
X5849301Y8225380D01*
X5855945Y8219088D01*
D02*
G37*
G36*
X4075927Y8039600D02*
X4070821Y8044331D01*
X4065266Y8048564D01*
X4059262Y8052299D01*
X4052810Y8055536D01*
X4045908Y8058275D01*
X4038557Y8060516D01*
X4030756Y8062259D01*
X4022508Y8063504D01*
X4013810Y8064251D01*
X4004663Y8064500D01*
Y8140700D01*
X4013810Y8140949D01*
X4022508Y8141696D01*
X4030756Y8142941D01*
X4038557Y8144684D01*
X4045908Y8146925D01*
X4052810Y8149664D01*
X4059262Y8152901D01*
X4065266Y8156636D01*
X4070821Y8160869D01*
X4075927Y8165600D01*
Y8039600D01*
D02*
G37*
G36*
X5353222Y8202956D02*
X5339343Y8194943D01*
X5317857Y8173457D01*
X5302665Y8147143D01*
X5294800Y8117793D01*
Y8087407D01*
X5302665Y8058057D01*
X5317857Y8031743D01*
X5339343Y8010257D01*
X5365657Y7995065D01*
X5395007Y7987200D01*
X5425393D01*
X5454743Y7995065D01*
X5481057Y8010257D01*
X5502543Y8031743D01*
X5517735Y8058057D01*
X5525600Y8087407D01*
Y8117793D01*
X5520518Y8136760D01*
X5531904Y8143334D01*
X5532358Y8142881D01*
X5532987Y8142133D01*
X5536908Y8136818D01*
X5540176Y8131669D01*
X5542828Y8126691D01*
X5544903Y8121885D01*
X5546447Y8117232D01*
X5547504Y8112697D01*
X5548108Y8108224D01*
X5548326Y8102515D01*
X5548800Y8100528D01*
Y8087407D01*
X5556665Y8058058D01*
X5571857Y8031743D01*
X5593343Y8010258D01*
X5619657Y7995065D01*
X5649007Y7987200D01*
X5679393D01*
X5708743Y7995065D01*
X5735057Y8010258D01*
X5756543Y8031743D01*
X5771735Y8058058D01*
X5779600Y8087407D01*
Y8117793D01*
X5774518Y8136760D01*
X5785904Y8143334D01*
X5786358Y8142880D01*
X5786987Y8142133D01*
X5790908Y8136818D01*
X5794176Y8131669D01*
X5796828Y8126691D01*
X5798903Y8121885D01*
X5800447Y8117232D01*
X5801504Y8112697D01*
X5802108Y8108224D01*
X5802326Y8102514D01*
X5802800Y8100527D01*
Y8087407D01*
X5810665Y8058057D01*
X5825857Y8031743D01*
X5847343Y8010257D01*
X5873657Y7995065D01*
X5903007Y7987200D01*
X5915267D01*
X5920127Y7975467D01*
X5870447Y7925786D01*
X3911600D01*
X3881762Y7921858D01*
X3853957Y7910341D01*
X3830080Y7892020D01*
X3830079Y7892019D01*
X3652280Y7714220D01*
X3633959Y7690343D01*
X3633444Y7689100D01*
X3620744Y7691626D01*
Y7745582D01*
X3913018Y8037856D01*
X4018494D01*
X4019463Y8037773D01*
X4025995Y8036787D01*
X4031946Y8035457D01*
X4037342Y8033812D01*
X4042208Y8031881D01*
X4046590Y8029683D01*
X4050546Y8027222D01*
X4054133Y8024488D01*
X4058325Y8020604D01*
X4060066Y8019534D01*
X4069343Y8010257D01*
X4095657Y7995065D01*
X4125007Y7987200D01*
X4155393D01*
X4184743Y7995065D01*
X4211057Y8010257D01*
X4232543Y8031743D01*
X4247735Y8058057D01*
X4255600Y8087407D01*
Y8117793D01*
X4247735Y8147143D01*
X4232543Y8173457D01*
X4211057Y8194943D01*
X4197178Y8202956D01*
X4200581Y8215656D01*
X4333819D01*
X4337222Y8202956D01*
X4323343Y8194943D01*
X4301857Y8173457D01*
X4286665Y8147143D01*
X4278800Y8117793D01*
Y8087407D01*
X4286665Y8058057D01*
X4301857Y8031743D01*
X4323343Y8010257D01*
X4349657Y7995065D01*
X4379007Y7987200D01*
X4409393D01*
X4438743Y7995065D01*
X4465057Y8010257D01*
X4486543Y8031743D01*
X4501735Y8058057D01*
X4509600Y8087407D01*
Y8117793D01*
X4501735Y8147143D01*
X4486543Y8173457D01*
X4465057Y8194943D01*
X4451178Y8202956D01*
X4454581Y8215656D01*
X4587818D01*
X4591221Y8202956D01*
X4577343Y8194943D01*
X4555857Y8173457D01*
X4540665Y8147143D01*
X4532800Y8117793D01*
Y8087407D01*
X4540665Y8058058D01*
X4555857Y8031743D01*
X4577343Y8010258D01*
X4603657Y7995065D01*
X4633007Y7987200D01*
X4663393D01*
X4692743Y7995065D01*
X4719057Y8010258D01*
X4740543Y8031743D01*
X4755735Y8058058D01*
X4763600Y8087407D01*
Y8117793D01*
X4755735Y8147143D01*
X4740543Y8173457D01*
X4719057Y8194943D01*
X4705179Y8202956D01*
X4708582Y8215656D01*
X4841819D01*
X4845222Y8202956D01*
X4831343Y8194943D01*
X4809857Y8173457D01*
X4794665Y8147143D01*
X4786800Y8117793D01*
Y8087407D01*
X4794665Y8058057D01*
X4809857Y8031743D01*
X4831343Y8010257D01*
X4857657Y7995065D01*
X4887007Y7987200D01*
X4917393D01*
X4946743Y7995065D01*
X4973057Y8010257D01*
X4994543Y8031743D01*
X5009735Y8058057D01*
X5017600Y8087407D01*
Y8117793D01*
X5009735Y8147143D01*
X4994543Y8173457D01*
X4973057Y8194943D01*
X4959178Y8202956D01*
X4962581Y8215656D01*
X5095819D01*
X5099222Y8202956D01*
X5085343Y8194943D01*
X5063857Y8173457D01*
X5048665Y8147143D01*
X5040800Y8117793D01*
Y8087407D01*
X5048665Y8058057D01*
X5063857Y8031743D01*
X5085343Y8010257D01*
X5111657Y7995065D01*
X5141007Y7987200D01*
X5171393D01*
X5200743Y7995065D01*
X5227057Y8010257D01*
X5248543Y8031743D01*
X5263735Y8058057D01*
X5271600Y8087407D01*
Y8117793D01*
X5263735Y8147143D01*
X5248543Y8173457D01*
X5227057Y8194943D01*
X5213178Y8202956D01*
X5216581Y8215656D01*
X5349819D01*
X5353222Y8202956D01*
D02*
G37*
G36*
X3332419Y8234619D02*
X3353423Y8220584D01*
X3378200Y8215656D01*
X4079819D01*
X4083222Y8202956D01*
X4069343Y8194943D01*
X4060066Y8185666D01*
X4058325Y8184596D01*
X4054133Y8180712D01*
X4050544Y8177977D01*
X4046590Y8175517D01*
X4042208Y8173319D01*
X4037342Y8171388D01*
X4031946Y8169743D01*
X4025994Y8168413D01*
X4019463Y8167427D01*
X4018493Y8167344D01*
X3886200D01*
X3861424Y8162416D01*
X3840419Y8148381D01*
X3530620Y7838581D01*
X3518886Y7843442D01*
Y7899398D01*
X3518887Y7899400D01*
X3514958Y7929238D01*
X3503441Y7957043D01*
X3485120Y7980920D01*
X3040620Y8425420D01*
X3016743Y8443741D01*
X2988938Y8455258D01*
X2959100Y8459186D01*
X1753586D01*
Y8582284D01*
X1753700Y8582707D01*
Y8613093D01*
X1753586Y8613516D01*
Y8836284D01*
X1753700Y8836707D01*
Y8867093D01*
X1753586Y8867516D01*
Y9090284D01*
X1753700Y9090707D01*
Y9121093D01*
X1753586Y9121516D01*
Y9344284D01*
X1753700Y9344707D01*
Y9375093D01*
X1745835Y9404443D01*
X1730643Y9430757D01*
X1713844Y9447556D01*
X1719105Y9460256D01*
X2106782D01*
X3332419Y8234619D01*
D02*
G37*
G36*
X1013172Y8280775D02*
Y8102434D01*
X551119Y7640381D01*
X547344Y7634731D01*
X534644Y7638584D01*
Y7885282D01*
X861420Y8212058D01*
X862167Y8212687D01*
X867482Y8216608D01*
X872631Y8219876D01*
X877609Y8222528D01*
X882415Y8224603D01*
X887068Y8226147D01*
X891603Y8227204D01*
X896076Y8227808D01*
X901786Y8228026D01*
X903773Y8228500D01*
X916893D01*
X946243Y8236365D01*
X972557Y8251557D01*
X994043Y8273043D01*
X1000472Y8284178D01*
X1013172Y8280775D01*
D02*
G37*
G36*
X3098027Y7049000D02*
X3092921Y7053731D01*
X3087366Y7057964D01*
X3081362Y7061699D01*
X3074910Y7064936D01*
X3068008Y7067675D01*
X3060657Y7069916D01*
X3052856Y7071659D01*
X3044608Y7072904D01*
X3035910Y7073651D01*
X3026763Y7073900D01*
Y7150100D01*
X3035910Y7150349D01*
X3044608Y7151096D01*
X3052856Y7152341D01*
X3060657Y7154084D01*
X3068008Y7156325D01*
X3074910Y7159064D01*
X3081362Y7162301D01*
X3087366Y7166036D01*
X3092921Y7170269D01*
X3098027Y7175000D01*
Y7049000D01*
D02*
G37*
G36*
X4088500Y3618404D02*
X4081544Y3618140D01*
X4074623Y3617205D01*
X4067736Y3615600D01*
X4060885Y3613326D01*
X4054067Y3610383D01*
X4047285Y3606769D01*
X4040537Y3602486D01*
X4033824Y3597534D01*
X4027145Y3591912D01*
X4020501Y3585620D01*
X3966619Y3639501D01*
X3972911Y3646145D01*
X3978534Y3652824D01*
X3983486Y3659537D01*
X3987769Y3666285D01*
X3991382Y3673068D01*
X3994326Y3679885D01*
X3996600Y3686737D01*
X3998205Y3693623D01*
X3999139Y3700544D01*
X3999404Y3707500D01*
X4088500Y3618404D01*
D02*
G37*
G36*
X6985000Y7500620D02*
X3997960D01*
Y5499100D01*
X7632700D01*
Y3403600D01*
X6312886D01*
Y4356100D01*
X6308958Y4385939D01*
X6297441Y4413743D01*
X6279120Y4437620D01*
X5865473Y4851267D01*
X5870333Y4863000D01*
X5882593D01*
X5911943Y4870865D01*
X5938257Y4886057D01*
X5959743Y4907543D01*
X5974935Y4933857D01*
X5976662Y4940300D01*
X5867400D01*
Y4978400D01*
X5829300D01*
Y5087662D01*
X5822857Y5085935D01*
X5796543Y5070743D01*
X5775057Y5049257D01*
X5759865Y5022943D01*
X5752000Y4993593D01*
Y4977791D01*
X5740610Y4972173D01*
X5733737Y4977448D01*
X5728800Y4979492D01*
Y4993593D01*
X5728265Y4995587D01*
Y5029621D01*
X5724337Y5059459D01*
X5712820Y5087264D01*
X5694499Y5111141D01*
X5440920Y5364720D01*
X5417043Y5383041D01*
X5389238Y5394558D01*
X5359400Y5398486D01*
X3921253D01*
X3849086Y5470653D01*
Y7584947D01*
X3959353Y7695214D01*
X5918200D01*
X5948038Y7699142D01*
X5975843Y7710659D01*
X5999720Y7728980D01*
X6317220Y8046480D01*
X6335541Y8070357D01*
X6347058Y8098162D01*
X6350986Y8128000D01*
Y8369300D01*
X6347058Y8399138D01*
X6335541Y8426943D01*
X6317220Y8450820D01*
X5779487Y8988553D01*
Y9356984D01*
X5779600Y9357407D01*
Y9387793D01*
X5779487Y9388216D01*
Y9525000D01*
X5775558Y9554838D01*
X5764041Y9582643D01*
X5745720Y9606520D01*
X5542520Y9809720D01*
X5518643Y9828041D01*
X5490838Y9839558D01*
X5461000Y9843486D01*
X2974998D01*
X2945160Y9839558D01*
X2917355Y9828041D01*
X2893479Y9809720D01*
X2875158Y9785843D01*
X2874415Y9784052D01*
X2690279Y9599915D01*
X2671958Y9576038D01*
X2660440Y9548233D01*
X2656512Y9518395D01*
X2660440Y9488557D01*
X2671958Y9460752D01*
X2690279Y9436875D01*
X2714155Y9418554D01*
X2741960Y9407037D01*
X2771798Y9403109D01*
X2801637Y9407037D01*
X2829441Y9418554D01*
X2853318Y9436875D01*
X3029357Y9612914D01*
X5413247D01*
X5548914Y9477246D01*
Y9388216D01*
X5548800Y9387793D01*
Y9357407D01*
X5548914Y9356984D01*
Y8940800D01*
X5552842Y8910961D01*
X5564359Y8883157D01*
X5582680Y8859280D01*
X6120414Y8321547D01*
Y8175753D01*
X6045333Y8100673D01*
X6033600Y8105533D01*
Y8117793D01*
X6025735Y8147143D01*
X6010543Y8173457D01*
X5989057Y8194943D01*
X5962743Y8210135D01*
X5933393Y8218000D01*
X5920273D01*
X5918286Y8218474D01*
X5912576Y8218692D01*
X5908103Y8219296D01*
X5903568Y8220352D01*
X5898915Y8221897D01*
X5894109Y8223972D01*
X5889131Y8226624D01*
X5883980Y8229893D01*
X5878667Y8233813D01*
X5877920Y8234442D01*
X5595681Y8516681D01*
X5574676Y8530716D01*
X5549900Y8535644D01*
X3455818D01*
X2280981Y9710481D01*
X2259976Y9724516D01*
X2235200Y9729444D01*
X685800D01*
X661024Y9724516D01*
X640019Y9710481D01*
X68519Y9138981D01*
X54484Y9117976D01*
X49556Y9093200D01*
Y3009900D01*
X54484Y2985123D01*
X68519Y2964119D01*
X2606134Y426504D01*
X2599560Y415117D01*
X2580593Y420200D01*
X2550207D01*
X2520857Y412335D01*
X2494543Y397142D01*
X2473057Y375657D01*
X2457865Y349342D01*
X2450000Y319993D01*
Y289607D01*
X2457865Y260257D01*
X2473057Y233943D01*
X2494543Y212457D01*
X2520857Y197264D01*
X2550207Y189400D01*
X2580593D01*
X2609943Y197264D01*
X2636257Y212457D01*
X2657743Y233943D01*
X2672935Y260257D01*
X2680800Y289607D01*
Y319993D01*
X2675718Y338960D01*
X2687104Y345534D01*
X2687558Y345080D01*
X2688187Y344333D01*
X2692108Y339018D01*
X2695376Y333869D01*
X2698028Y328890D01*
X2700103Y324084D01*
X2701647Y319432D01*
X2702704Y314896D01*
X2703308Y310423D01*
X2703526Y304714D01*
X2704000Y302727D01*
Y289607D01*
X2711865Y260257D01*
X2727057Y233943D01*
X2748543Y212457D01*
X2774857Y197264D01*
X2804207Y189400D01*
X2834593D01*
X2863943Y197264D01*
X2890257Y212457D01*
X2911743Y233943D01*
X2926935Y260257D01*
X2934800Y289607D01*
Y319993D01*
X2926935Y349342D01*
X2911743Y375657D01*
X2890257Y397142D01*
X2863943Y412335D01*
X2834593Y420200D01*
X2821473D01*
X2819486Y420674D01*
X2813776Y420891D01*
X2809303Y421495D01*
X2804768Y422552D01*
X2800115Y424096D01*
X2795309Y426172D01*
X2790331Y428824D01*
X2785180Y432093D01*
X2779867Y436013D01*
X2779120Y436642D01*
X179044Y3036718D01*
Y3051534D01*
X191744Y3056794D01*
X2760919Y487619D01*
X2781924Y473584D01*
X2806700Y468656D01*
X3325982D01*
X3368134Y426504D01*
X3361560Y415117D01*
X3342593Y420200D01*
X3312207D01*
X3282857Y412335D01*
X3256543Y397142D01*
X3235057Y375657D01*
X3219865Y349342D01*
X3212000Y319993D01*
Y289607D01*
X3219865Y260257D01*
X3235057Y233943D01*
X3256543Y212457D01*
X3282857Y197264D01*
X3312207Y189400D01*
X3342593D01*
X3371943Y197264D01*
X3398257Y212457D01*
X3419743Y233943D01*
X3434935Y260257D01*
X3442800Y289607D01*
Y319993D01*
X3437718Y338960D01*
X3449104Y345534D01*
X3449558Y345080D01*
X3450187Y344333D01*
X3454108Y339018D01*
X3457376Y333869D01*
X3460028Y328890D01*
X3462103Y324084D01*
X3463647Y319432D01*
X3464704Y314896D01*
X3465308Y310423D01*
X3465526Y304714D01*
X3466000Y302727D01*
Y289607D01*
X3473865Y260257D01*
X3489057Y233943D01*
X3510543Y212457D01*
X3536857Y197264D01*
X3566207Y189400D01*
X3596593D01*
X3625943Y197264D01*
X3652257Y212457D01*
X3673743Y233943D01*
X3688935Y260257D01*
X3696800Y289607D01*
Y297622D01*
X3709500Y304410D01*
X3720000Y297394D01*
Y289607D01*
X3727865Y260257D01*
X3743057Y233943D01*
X3764543Y212457D01*
X3790857Y197264D01*
X3820207Y189400D01*
X3850593D01*
X3879943Y197264D01*
X3906257Y212457D01*
X3927743Y233943D01*
X3942935Y260257D01*
X3950800Y289607D01*
Y297621D01*
X3963500Y304409D01*
X3974000Y297393D01*
Y289607D01*
X3981865Y260257D01*
X3997057Y233943D01*
X4018543Y212457D01*
X4044857Y197264D01*
X4074207Y189400D01*
X4104593D01*
X4133943Y197264D01*
X4160257Y212457D01*
X4181743Y233943D01*
X4196935Y260257D01*
X4204800Y289607D01*
Y319993D01*
X4196935Y349342D01*
X4181743Y375657D01*
X4160257Y397142D01*
X4133943Y412335D01*
X4104593Y420200D01*
X4074207D01*
X4044857Y412335D01*
X4041931Y410646D01*
X4036286Y414418D01*
X4033962Y414880D01*
X3526761Y922081D01*
X3505757Y936116D01*
X3480980Y941044D01*
X2960518D01*
X534644Y3366918D01*
Y3385016D01*
X547344Y3388869D01*
X551119Y3383219D01*
X2849819Y1084519D01*
X2870824Y1070484D01*
X2895600Y1065556D01*
X3745082D01*
X4384134Y426504D01*
X4377559Y415118D01*
X4358593Y420200D01*
X4328207D01*
X4298857Y412335D01*
X4272543Y397143D01*
X4251057Y375657D01*
X4235865Y349343D01*
X4228000Y319993D01*
Y289607D01*
X4235865Y260257D01*
X4251057Y233943D01*
X4272543Y212457D01*
X4298857Y197265D01*
X4328207Y189400D01*
X4358593D01*
X4387943Y197265D01*
X4414257Y212457D01*
X4435743Y233943D01*
X4450935Y260257D01*
X4458800Y289607D01*
Y319993D01*
X4453718Y338959D01*
X4465104Y345534D01*
X4465558Y345080D01*
X4466187Y344333D01*
X4470108Y339018D01*
X4473376Y333869D01*
X4476028Y328890D01*
X4478103Y324084D01*
X4479647Y319432D01*
X4480704Y314896D01*
X4481308Y310423D01*
X4481526Y304714D01*
X4482000Y302727D01*
Y289607D01*
X4489865Y260257D01*
X4505057Y233943D01*
X4526543Y212457D01*
X4552857Y197264D01*
X4582207Y189400D01*
X4612593D01*
X4641943Y197264D01*
X4668257Y212457D01*
X4689743Y233943D01*
X4704935Y260257D01*
X4712800Y289607D01*
Y319993D01*
X4707718Y338960D01*
X4719104Y345534D01*
X4719558Y345080D01*
X4720187Y344333D01*
X4724108Y339018D01*
X4727376Y333869D01*
X4730028Y328890D01*
X4732103Y324084D01*
X4733647Y319432D01*
X4734704Y314896D01*
X4735308Y310423D01*
X4735526Y304714D01*
X4736000Y302727D01*
Y289607D01*
X4743865Y260257D01*
X4759057Y233943D01*
X4780543Y212457D01*
X4806857Y197264D01*
X4836207Y189400D01*
X4866593D01*
X4895943Y197264D01*
X4922257Y212457D01*
X4943743Y233943D01*
X4958935Y260257D01*
X4966800Y289607D01*
Y319993D01*
X4958935Y349342D01*
X4943743Y375657D01*
X4922257Y397142D01*
X4895943Y412335D01*
X4866593Y420200D01*
X4853473D01*
X4851486Y420674D01*
X4845776Y420891D01*
X4841303Y421495D01*
X4836768Y422552D01*
X4832115Y424096D01*
X4827309Y426172D01*
X4822331Y428824D01*
X4817180Y432093D01*
X4811867Y436013D01*
X4811120Y436642D01*
X3487481Y1760281D01*
X3466476Y1774316D01*
X3441700Y1779244D01*
X2541418D01*
X763244Y3557418D01*
Y6742282D01*
X1728618Y7707656D01*
X1952563D01*
X1957423Y7695923D01*
X1952357Y7690857D01*
X1937165Y7664543D01*
X1935438Y7658100D01*
X2044700D01*
X2153962D01*
X2152235Y7664543D01*
X2137043Y7690857D01*
X2131977Y7695923D01*
X2136837Y7707656D01*
X2233782D01*
X2875219Y7066219D01*
X2896223Y7052185D01*
X2921000Y7047256D01*
X3040594D01*
X3041563Y7047173D01*
X3048095Y7046187D01*
X3054046Y7044857D01*
X3059442Y7043212D01*
X3064308Y7041281D01*
X3068690Y7039083D01*
X3072646Y7036622D01*
X3076233Y7033888D01*
X3080425Y7030004D01*
X3082166Y7028934D01*
X3091443Y7019658D01*
X3117757Y7004465D01*
X3147107Y6996600D01*
X3177493D01*
X3206843Y7004465D01*
X3233157Y7019658D01*
X3254643Y7041143D01*
X3269835Y7067458D01*
X3275614Y7089022D01*
X3288314Y7087350D01*
Y7045453D01*
X3216568Y6973707D01*
X3162721D01*
X3160386Y6973400D01*
X3147107D01*
X3146684Y6973286D01*
X2060316D01*
X2059893Y6973400D01*
X2029507D01*
X2000157Y6965535D01*
X1973843Y6950343D01*
X1952357Y6928857D01*
X1952138Y6928478D01*
X1734580Y6710920D01*
X1716259Y6687043D01*
X1704742Y6659238D01*
X1700814Y6629400D01*
Y5651500D01*
X1704742Y5621662D01*
X1716259Y5593857D01*
X1728715Y5577624D01*
X1729042Y5575138D01*
X1740559Y5547334D01*
X1758880Y5523457D01*
X1927835Y5354502D01*
X1927836Y5354501D01*
X1951713Y5336180D01*
X1979518Y5324663D01*
X1994581Y5322679D01*
X2246914Y5070347D01*
Y4340353D01*
X2200146Y4293586D01*
X2060316D01*
X2059893Y4293700D01*
X2029507D01*
X2000157Y4285835D01*
X1973843Y4270642D01*
X1952357Y4249157D01*
X1937165Y4222842D01*
X1929300Y4193493D01*
Y4163107D01*
X1937165Y4133757D01*
X1952357Y4107443D01*
X1973843Y4085957D01*
X2000157Y4070764D01*
X2029507Y4062900D01*
X2059893D01*
X2060316Y4063013D01*
X2247900D01*
X2277738Y4066942D01*
X2305543Y4078459D01*
X2329420Y4096780D01*
X2443719Y4211079D01*
X2443720Y4211080D01*
X2462041Y4234957D01*
X2473558Y4262762D01*
X2477487Y4292600D01*
X2477486Y4292602D01*
Y5118100D01*
X2473558Y5147938D01*
X2462041Y5175743D01*
X2443720Y5199620D01*
X2334759Y5308580D01*
X2339619Y5320314D01*
X3146684D01*
X3147107Y5320200D01*
X3177493D01*
X3206843Y5328065D01*
X3233157Y5343257D01*
X3254643Y5364743D01*
X3269835Y5391057D01*
X3277700Y5420407D01*
Y5450793D01*
X3269835Y5480143D01*
X3254643Y5506457D01*
X3233157Y5527943D01*
X3206843Y5543135D01*
X3177493Y5551000D01*
X3147107D01*
X3146684Y5550886D01*
X2060316D01*
X2059893Y5551000D01*
X2057416D01*
X2045949Y5562467D01*
X2050809Y5574200D01*
X2059893D01*
X2089243Y5582065D01*
X2115557Y5597258D01*
X2137043Y5618743D01*
X2152235Y5645058D01*
X2160100Y5674407D01*
Y5704793D01*
X2152235Y5734143D01*
X2137043Y5760457D01*
X2115557Y5781943D01*
X2089243Y5797136D01*
X2059893Y5805000D01*
X2029507D01*
X2000157Y5797136D01*
X1973843Y5781943D01*
X1952357Y5760457D01*
X1944086Y5746132D01*
X1931386Y5749535D01*
Y5883666D01*
X1944086Y5887069D01*
X1952357Y5872743D01*
X1973843Y5851258D01*
X2000157Y5836065D01*
X2029507Y5828200D01*
X2059893D01*
X2089243Y5836065D01*
X2115557Y5851258D01*
X2137043Y5872743D01*
X2152235Y5899058D01*
X2160100Y5928407D01*
Y5958793D01*
X2152235Y5988143D01*
X2137043Y6014457D01*
X2115557Y6035943D01*
X2089243Y6051136D01*
X2059893Y6059000D01*
X2029507D01*
X2000157Y6051136D01*
X1973843Y6035943D01*
X1952357Y6014457D01*
X1944086Y6000132D01*
X1931386Y6003535D01*
Y6137666D01*
X1944086Y6141069D01*
X1952357Y6126743D01*
X1973843Y6105258D01*
X2000157Y6090065D01*
X2006600Y6088338D01*
Y6197600D01*
Y6306862D01*
X2000157Y6305136D01*
X1973843Y6289943D01*
X1952357Y6268457D01*
X1944086Y6254132D01*
X1931386Y6257535D01*
Y6581647D01*
X2092453Y6742714D01*
X3146684D01*
X3147107Y6742600D01*
X3177493D01*
X3179487Y6743135D01*
X3264321D01*
X3294159Y6747063D01*
X3321964Y6758580D01*
X3345841Y6776901D01*
X3478556Y6909616D01*
X3491256Y6904356D01*
Y5030618D01*
X1973519Y3512881D01*
X1706819Y3246181D01*
X1692784Y3225176D01*
X1687856Y3200400D01*
Y2870200D01*
X1692784Y2845424D01*
X1706819Y2824419D01*
X2519619Y2011619D01*
X2540623Y1997584D01*
X2565400Y1992656D01*
X3579982D01*
X5146134Y426504D01*
X5143500Y421941D01*
Y342900D01*
X5222541D01*
X5227104Y345534D01*
X5227558Y345080D01*
X5228187Y344333D01*
X5232108Y339018D01*
X5235376Y333869D01*
X5238028Y328891D01*
X5240103Y324085D01*
X5241647Y319432D01*
X5242704Y314897D01*
X5243308Y310424D01*
X5243526Y304714D01*
X5244000Y302727D01*
Y289607D01*
X5251865Y260257D01*
X5267057Y233943D01*
X5288543Y212457D01*
X5314857Y197265D01*
X5344207Y189400D01*
X5374593D01*
X5403943Y197265D01*
X5430257Y212457D01*
X5451743Y233943D01*
X5466935Y260257D01*
X5474800Y289607D01*
Y319993D01*
X5466935Y349343D01*
X5451743Y375657D01*
X5430257Y397143D01*
X5403943Y412335D01*
X5374593Y420200D01*
X5361473D01*
X5359486Y420674D01*
X5353776Y420892D01*
X5349303Y421496D01*
X5344768Y422552D01*
X5340115Y424097D01*
X5335309Y426172D01*
X5330331Y428824D01*
X5325180Y432093D01*
X5319867Y436013D01*
X5319120Y436642D01*
X3652581Y2103181D01*
X3631576Y2117216D01*
X3606800Y2122144D01*
X2592218D01*
X1817344Y2897018D01*
Y3173582D01*
X2010969Y3367207D01*
X2019040Y3373666D01*
X2029232Y3380592D01*
X2039735Y3386555D01*
X2050580Y3391582D01*
X2061803Y3395696D01*
X2073448Y3398907D01*
X2085554Y3401217D01*
X2095823Y3402356D01*
X3848100D01*
X3872876Y3407284D01*
X3893881Y3421319D01*
X4049119Y3576558D01*
X4049867Y3577187D01*
X4055182Y3581108D01*
X4060331Y3584376D01*
X4065309Y3587028D01*
X4070115Y3589103D01*
X4074768Y3590647D01*
X4079303Y3591704D01*
X4083776Y3592308D01*
X4089485Y3592526D01*
X4091472Y3593000D01*
X4104593D01*
X4133942Y3600865D01*
X4160257Y3616057D01*
X4181742Y3637543D01*
X4196935Y3663857D01*
X4204800Y3693207D01*
Y3723593D01*
X4196935Y3752943D01*
X4181742Y3779257D01*
X4160257Y3800743D01*
X4133942Y3815935D01*
X4104593Y3823800D01*
X4074207D01*
X4044857Y3815935D01*
X4018543Y3800743D01*
X4010805Y3793005D01*
X3993339D01*
X3968563Y3788077D01*
X3947558Y3774042D01*
X3933523Y3753037D01*
X3928595Y3728261D01*
X3933523Y3703485D01*
X3947558Y3682480D01*
X3952536Y3679154D01*
X3952922Y3678306D01*
X3953004Y3663566D01*
X3821282Y3531844D01*
X2192200D01*
X2187339Y3543577D01*
X3601781Y4958019D01*
X3615816Y4979024D01*
X3620744Y5003800D01*
Y5363974D01*
X3633444Y5366500D01*
X3633959Y5365257D01*
X3652280Y5341380D01*
X3791979Y5201681D01*
X3791980Y5201680D01*
X3815857Y5183359D01*
X3843662Y5171842D01*
X3873500Y5167914D01*
X5311647D01*
X5373061Y5106500D01*
X5367800Y5093800D01*
X5344207D01*
X5314857Y5085935D01*
X5288542Y5070742D01*
X5267057Y5049257D01*
X5251864Y5022942D01*
X5244000Y4993593D01*
Y4963207D01*
X5251864Y4933857D01*
X5267057Y4907543D01*
X5288542Y4886057D01*
X5314857Y4870864D01*
X5344207Y4863000D01*
X5374592D01*
X5403942Y4870864D01*
X5430257Y4886057D01*
X5451742Y4907543D01*
X5466935Y4933857D01*
X5474799Y4963207D01*
Y4986801D01*
X5487499Y4992061D01*
X5497693Y4981868D01*
Y4978821D01*
X5498000Y4976486D01*
Y4963207D01*
X5501437Y4950380D01*
X5501621Y4948982D01*
X5502161Y4947680D01*
X5505865Y4933857D01*
X5513020Y4921464D01*
X5513138Y4921178D01*
X5513327Y4920932D01*
X5521057Y4907543D01*
X5542543Y4886057D01*
X5561106Y4875340D01*
X5564736Y4847768D01*
X5576253Y4819964D01*
X5594574Y4796087D01*
X6082314Y4308347D01*
Y3311523D01*
X6086242Y3281685D01*
X6097759Y3253880D01*
X6116080Y3230004D01*
X6184900Y3161184D01*
Y2954090D01*
X6173901Y2947740D01*
X6165943Y2952335D01*
X6136593Y2960200D01*
X6106207D01*
X6076857Y2952335D01*
X6050543Y2937142D01*
X6029057Y2915657D01*
X6013865Y2889342D01*
X6006000Y2859993D01*
Y2829607D01*
X6013865Y2800257D01*
X6029057Y2773943D01*
X6050543Y2752457D01*
X6076857Y2737264D01*
X6106207Y2729400D01*
X6136593D01*
X6165943Y2737264D01*
X6173901Y2741859D01*
X6184900Y2735509D01*
Y584200D01*
X6756400D01*
X6985000Y355600D01*
Y0D01*
X500380D01*
X0Y500380D01*
Y12506960D01*
X500380Y13007339D01*
Y13009880D01*
X6985000D01*
X6985000Y7500620D01*
D02*
G37*
G36*
X2155688Y3548844D02*
X2148814Y3539684D01*
X2144542Y3531602D01*
X2142871Y3524597D01*
X2143802Y3518670D01*
X2147335Y3513821D01*
X2153469Y3510049D01*
X2162205Y3507355D01*
X2173542Y3505739D01*
X2187482Y3505200D01*
X2111282Y3429000D01*
X2096265Y3428461D01*
X2081694Y3426845D01*
X2067570Y3424151D01*
X2053893Y3420379D01*
X2040661Y3415530D01*
X2027876Y3409603D01*
X2015537Y3402598D01*
X2003645Y3394516D01*
X1992199Y3385356D01*
X1981200Y3375118D01*
X1992359Y3494041D01*
X2165163Y3559082D01*
X2155688Y3548844D01*
D02*
G37*
G36*
X309819Y3167319D02*
X2824419Y652719D01*
X2845423Y638684D01*
X2870200Y633756D01*
X3377964D01*
X3570364Y441356D01*
X3569293Y424502D01*
X3566834Y422537D01*
X3566768Y422552D01*
X3562115Y424096D01*
X3557309Y426172D01*
X3552331Y428824D01*
X3547180Y432093D01*
X3541867Y436013D01*
X3541120Y436642D01*
X3398581Y579181D01*
X3377576Y593216D01*
X3352800Y598144D01*
X2833518D01*
X293344Y3138318D01*
Y3169116D01*
X306044Y3172969D01*
X309819Y3167319D01*
D02*
G37*
G36*
X2468819Y1668719D02*
X2489824Y1654684D01*
X2514600Y1649756D01*
X3414882D01*
X4638134Y426504D01*
X4631560Y415117D01*
X4612593Y420200D01*
X4599473D01*
X4597486Y420674D01*
X4591776Y420891D01*
X4587303Y421495D01*
X4582768Y422552D01*
X4578115Y424096D01*
X4573309Y426172D01*
X4568331Y428824D01*
X4563180Y432093D01*
X4557867Y436013D01*
X4557120Y436642D01*
X3817681Y1176081D01*
X3796676Y1190116D01*
X3771900Y1195044D01*
X2922418D01*
X668902Y3448560D01*
X669253Y3450325D01*
X683033Y3454505D01*
X2468819Y1668719D01*
D02*
G37*
G36*
X2887919Y830519D02*
X2908924Y816484D01*
X2933700Y811556D01*
X3454163D01*
X3833786Y431933D01*
X3828925Y420200D01*
X3820207D01*
X3790857Y412335D01*
X3787931Y410646D01*
X3782285Y414418D01*
X3779963Y414880D01*
X3450563Y744281D01*
X3429558Y758316D01*
X3404782Y763244D01*
X2897018D01*
X420344Y3239918D01*
Y3280134D01*
X433044Y3285394D01*
X2887919Y830519D01*
D02*
G37*
G36*
X5297145Y421288D02*
X5303824Y415666D01*
X5310537Y410714D01*
X5317285Y406431D01*
X5324068Y402817D01*
X5330885Y399874D01*
X5337737Y397600D01*
X5344623Y395995D01*
X5351544Y395060D01*
X5358500Y394796D01*
X5269404Y305700D01*
X5269140Y312656D01*
X5268205Y319577D01*
X5266600Y326463D01*
X5264326Y333315D01*
X5261383Y340132D01*
X5257769Y346915D01*
X5253486Y353663D01*
X5248534Y360376D01*
X5242912Y367055D01*
X5236620Y373699D01*
X5290501Y427580D01*
X5297145Y421288D01*
D02*
G37*
G36*
X4789145Y421288D02*
X4795824Y415666D01*
X4802537Y410713D01*
X4809285Y406430D01*
X4816068Y402817D01*
X4822885Y399873D01*
X4829737Y397599D01*
X4836623Y395995D01*
X4843544Y395060D01*
X4850500Y394795D01*
X4761404Y305700D01*
X4761140Y312655D01*
X4760205Y319577D01*
X4758600Y326463D01*
X4756326Y333315D01*
X4753383Y340132D01*
X4749769Y346915D01*
X4745486Y353662D01*
X4740534Y360376D01*
X4734912Y367054D01*
X4728620Y373699D01*
X4782501Y427580D01*
X4789145Y421288D01*
D02*
G37*
G36*
X4535145D02*
X4541824Y415666D01*
X4548537Y410713D01*
X4555285Y406430D01*
X4562068Y402817D01*
X4568885Y399873D01*
X4575737Y397599D01*
X4582623Y395995D01*
X4589544Y395060D01*
X4596500Y394795D01*
X4507404Y305700D01*
X4507140Y312655D01*
X4506205Y319577D01*
X4504600Y326463D01*
X4502326Y333315D01*
X4499383Y340132D01*
X4495769Y346915D01*
X4491486Y353662D01*
X4486534Y360376D01*
X4480912Y367054D01*
X4474620Y373699D01*
X4528501Y427580D01*
X4535145Y421288D01*
D02*
G37*
G36*
X3519145D02*
X3525824Y415666D01*
X3532537Y410713D01*
X3539285Y406430D01*
X3546068Y402817D01*
X3552885Y399873D01*
X3559737Y397599D01*
X3566623Y395995D01*
X3573544Y395060D01*
X3580500Y394795D01*
X3491404Y305700D01*
X3491140Y312655D01*
X3490205Y319577D01*
X3488600Y326463D01*
X3486326Y333315D01*
X3483383Y340132D01*
X3479769Y346915D01*
X3475486Y353662D01*
X3470534Y360376D01*
X3464912Y367054D01*
X3458620Y373699D01*
X3512501Y427580D01*
X3519145Y421288D01*
D02*
G37*
G36*
X2757145D02*
X2763824Y415666D01*
X2770537Y410713D01*
X2777285Y406430D01*
X2784068Y402817D01*
X2790885Y399873D01*
X2797737Y397599D01*
X2804623Y395995D01*
X2811544Y395060D01*
X2818500Y394795D01*
X2729404Y305700D01*
X2729140Y312655D01*
X2728205Y319577D01*
X2726600Y326463D01*
X2724326Y333315D01*
X2721383Y340132D01*
X2717769Y346915D01*
X2713486Y353662D01*
X2708534Y360376D01*
X2702912Y367054D01*
X2696620Y373699D01*
X2750501Y427580D01*
X2757145Y421288D01*
D02*
G37*
%LPC*%
G36*
X1379262Y9321800D02*
X1308100D01*
Y9250638D01*
X1314543Y9252365D01*
X1340857Y9267557D01*
X1362343Y9289043D01*
X1377535Y9315357D01*
X1379262Y9321800D01*
D02*
G37*
G36*
X1231900D02*
X1160738D01*
X1162465Y9315357D01*
X1177657Y9289043D01*
X1199143Y9267557D01*
X1225457Y9252365D01*
X1231900Y9250638D01*
Y9321800D01*
D02*
G37*
G36*
X1308100Y9215162D02*
Y9144000D01*
X1379262D01*
X1377535Y9150443D01*
X1362343Y9176757D01*
X1340857Y9198243D01*
X1314543Y9213435D01*
X1308100Y9215162D01*
D02*
G37*
G36*
X1379262Y9067800D02*
X1308100D01*
Y8996638D01*
X1314543Y8998365D01*
X1340857Y9013557D01*
X1362343Y9035043D01*
X1377535Y9061357D01*
X1379262Y9067800D01*
D02*
G37*
G36*
X1308100Y8961162D02*
Y8890000D01*
X1379262D01*
X1377535Y8896443D01*
X1362343Y8922757D01*
X1340857Y8944243D01*
X1314543Y8959435D01*
X1308100Y8961162D01*
D02*
G37*
G36*
X1379262Y8813800D02*
X1308100D01*
Y8742638D01*
X1314543Y8744365D01*
X1340857Y8759557D01*
X1362343Y8781043D01*
X1377535Y8807357D01*
X1379262Y8813800D01*
D02*
G37*
G36*
X1308100Y8707162D02*
Y8636000D01*
X1379262D01*
X1377535Y8642443D01*
X1362343Y8668757D01*
X1340857Y8690243D01*
X1314543Y8705435D01*
X1308100Y8707162D01*
D02*
G37*
G36*
X1379262Y8559800D02*
X1308100D01*
Y8488638D01*
X1314543Y8490365D01*
X1340857Y8505557D01*
X1362343Y8527043D01*
X1377535Y8553357D01*
X1379262Y8559800D01*
D02*
G37*
G36*
X1308100Y8453162D02*
Y8382000D01*
X1379262D01*
X1377535Y8388443D01*
X1362343Y8414757D01*
X1340857Y8436243D01*
X1314543Y8451435D01*
X1308100Y8453162D01*
D02*
G37*
G36*
X1379262Y8305800D02*
X1308100D01*
Y8234638D01*
X1314543Y8236365D01*
X1340857Y8251557D01*
X1362343Y8273043D01*
X1377535Y8299357D01*
X1379262Y8305800D01*
D02*
G37*
G36*
X3124200Y7729262D02*
X3117757Y7727535D01*
X3091443Y7712343D01*
X3069957Y7690857D01*
X3054765Y7664543D01*
X3053038Y7658100D01*
X3124200D01*
Y7729262D01*
D02*
G37*
G36*
Y7581900D02*
X3053038D01*
X3054765Y7575457D01*
X3069957Y7549143D01*
X3091443Y7527657D01*
X3117757Y7512465D01*
X3124200Y7510738D01*
Y7581900D01*
D02*
G37*
G36*
X5798238Y12798800D02*
X5758762D01*
X5720045Y12791099D01*
X5683575Y12775992D01*
X5650752Y12754061D01*
X5622839Y12726148D01*
X5600908Y12693325D01*
X5585801Y12656855D01*
X5578100Y12618138D01*
Y12578662D01*
X5585801Y12539945D01*
X5600908Y12503475D01*
X5622839Y12470652D01*
X5650752Y12442739D01*
X5683575Y12420808D01*
X5720045Y12405701D01*
X5758762Y12398000D01*
X5798238D01*
X5836955Y12405701D01*
X5873425Y12420808D01*
X5906248Y12442739D01*
X5934161Y12470652D01*
X5956092Y12503475D01*
X5971199Y12539945D01*
X5978900Y12578662D01*
Y12618138D01*
X5971199Y12656855D01*
X5956092Y12693325D01*
X5934161Y12726148D01*
X5906248Y12754061D01*
X5873425Y12775992D01*
X5836955Y12791099D01*
X5798238Y12798800D01*
D02*
G37*
G36*
X5298237D02*
X5258762D01*
X5220045Y12791099D01*
X5183575Y12775992D01*
X5150752Y12754061D01*
X5122839Y12726148D01*
X5100908Y12693325D01*
X5085801Y12656855D01*
X5078100Y12618138D01*
Y12578662D01*
X5085801Y12539945D01*
X5100908Y12503475D01*
X5122839Y12470652D01*
X5150752Y12442739D01*
X5183575Y12420808D01*
X5220045Y12405701D01*
X5258762Y12398000D01*
X5298237D01*
X5336954Y12405701D01*
X5373425Y12420808D01*
X5406247Y12442739D01*
X5434161Y12470652D01*
X5456092Y12503475D01*
X5471199Y12539945D01*
X5478900Y12578662D01*
Y12618138D01*
X5471199Y12656855D01*
X5456092Y12693325D01*
X5434161Y12726148D01*
X5406247Y12754061D01*
X5373425Y12775992D01*
X5336954Y12791099D01*
X5298237Y12798800D01*
D02*
G37*
G36*
X6502610Y12707800D02*
X6451390D01*
X6400802Y12699787D01*
X6352090Y12683960D01*
X6306453Y12660707D01*
X6265016Y12630601D01*
X6228799Y12594384D01*
X6198693Y12552947D01*
X6175440Y12507310D01*
X6159613Y12458598D01*
X6151600Y12408009D01*
Y12356790D01*
X6159613Y12306202D01*
X6175440Y12257490D01*
X6198693Y12211853D01*
X6228799Y12170416D01*
X6265016Y12134199D01*
X6306453Y12104093D01*
X6352090Y12080840D01*
X6400802Y12065012D01*
X6451390Y12057000D01*
X6502610D01*
X6553198Y12065012D01*
X6601910Y12080840D01*
X6647547Y12104093D01*
X6688984Y12134199D01*
X6725201Y12170416D01*
X6755307Y12211853D01*
X6778560Y12257490D01*
X6794387Y12306202D01*
X6802400Y12356790D01*
Y12408009D01*
X6794387Y12458598D01*
X6778560Y12507310D01*
X6755307Y12552947D01*
X6725201Y12594384D01*
X6688984Y12630601D01*
X6647547Y12660707D01*
X6601910Y12683960D01*
X6553198Y12699787D01*
X6502610Y12707800D01*
D02*
G37*
G36*
X6515100Y11905822D02*
Y11620500D01*
X6800422D01*
X6794387Y11658598D01*
X6778560Y11707310D01*
X6755307Y11752947D01*
X6725201Y11794384D01*
X6688984Y11830601D01*
X6647547Y11860707D01*
X6601910Y11883960D01*
X6553198Y11899787D01*
X6515100Y11905822D01*
D02*
G37*
G36*
X6438900D02*
X6400802Y11899787D01*
X6352090Y11883960D01*
X6306453Y11860707D01*
X6265016Y11830601D01*
X6228799Y11794384D01*
X6198693Y11752947D01*
X6175440Y11707310D01*
X6159613Y11658598D01*
X6153578Y11620500D01*
X6438900D01*
Y11905822D01*
D02*
G37*
G36*
X6800422Y11544300D02*
X6515100D01*
Y11258978D01*
X6553198Y11265013D01*
X6601910Y11280840D01*
X6647547Y11304093D01*
X6688984Y11334199D01*
X6725201Y11370416D01*
X6755307Y11411853D01*
X6778560Y11457490D01*
X6794387Y11506202D01*
X6800422Y11544300D01*
D02*
G37*
G36*
X6438900D02*
X6153578D01*
X6159613Y11506202D01*
X6175440Y11457490D01*
X6198693Y11411853D01*
X6228799Y11370416D01*
X6265016Y11334199D01*
X6306453Y11304093D01*
X6352090Y11280840D01*
X6400802Y11265013D01*
X6438900Y11258978D01*
Y11544300D01*
D02*
G37*
G36*
X2309800Y11545544D02*
X1651000D01*
X1626224Y11540616D01*
X1605219Y11526581D01*
X1591184Y11505576D01*
X1586256Y11480800D01*
X1591184Y11456024D01*
X1605219Y11435019D01*
X1626224Y11420984D01*
X1651000Y11416056D01*
X2282982D01*
X2382619Y11316419D01*
X2391856Y11310247D01*
X2392031Y11294857D01*
X2381027Y11283853D01*
X2372520Y11263315D01*
Y11241085D01*
X2381027Y11220547D01*
X2396747Y11204827D01*
X2399830Y11203550D01*
Y11190850D01*
X2396747Y11189573D01*
X2381027Y11173853D01*
X2372520Y11153315D01*
Y11131085D01*
X2381027Y11110546D01*
X2396747Y11094827D01*
X2417285Y11086320D01*
X2439515D01*
X2460053Y11094827D01*
X2475773Y11110546D01*
X2477050Y11113630D01*
X2489750D01*
X2491028Y11110546D01*
X2506747Y11094827D01*
X2527285Y11086320D01*
X2549516D01*
X2570054Y11094827D01*
X2585773Y11110546D01*
X2594280Y11131085D01*
Y11153315D01*
X2585773Y11173853D01*
X2570054Y11189573D01*
X2566970Y11190850D01*
Y11203550D01*
X2570054Y11204827D01*
X2585773Y11220547D01*
X2594280Y11241085D01*
Y11263315D01*
X2585773Y11283853D01*
X2570054Y11299573D01*
X2566970Y11300850D01*
Y11313550D01*
X2570054Y11314827D01*
X2585773Y11330547D01*
X2594281Y11351085D01*
Y11373315D01*
X2585773Y11393854D01*
X2570054Y11409573D01*
X2549516Y11418080D01*
X2527285D01*
X2506747Y11409573D01*
X2495744Y11398570D01*
X2480353Y11398744D01*
X2474181Y11407981D01*
X2355581Y11526581D01*
X2334577Y11540616D01*
X2309800Y11545544D01*
D02*
G37*
G36*
X5956300Y9481862D02*
Y9410700D01*
X6027462D01*
X6025735Y9417143D01*
X6010543Y9443457D01*
X5989057Y9464943D01*
X5962743Y9480135D01*
X5956300Y9481862D01*
D02*
G37*
G36*
X4432300D02*
Y9410700D01*
X4503462D01*
X4501735Y9417143D01*
X4486543Y9443457D01*
X4465057Y9464943D01*
X4438743Y9480135D01*
X4432300Y9481862D01*
D02*
G37*
G36*
X5880100D02*
X5873657Y9480135D01*
X5847343Y9464943D01*
X5825857Y9443457D01*
X5810665Y9417143D01*
X5808938Y9410700D01*
X5880100D01*
Y9481862D01*
D02*
G37*
G36*
X4356100D02*
X4349657Y9480135D01*
X4323343Y9464943D01*
X4301857Y9443457D01*
X4286665Y9417143D01*
X4284938Y9410700D01*
X4356100D01*
Y9481862D01*
D02*
G37*
G36*
X6027462Y9334500D02*
X5956300D01*
Y9263338D01*
X5962743Y9265065D01*
X5989057Y9280257D01*
X6010543Y9301743D01*
X6025735Y9328057D01*
X6027462Y9334500D01*
D02*
G37*
G36*
X4503462D02*
X4432300D01*
Y9263338D01*
X4438743Y9265065D01*
X4465057Y9280257D01*
X4486543Y9301743D01*
X4501735Y9328057D01*
X4503462Y9334500D01*
D02*
G37*
G36*
X5880100D02*
X5808938D01*
X5810665Y9328057D01*
X5825857Y9301743D01*
X5847343Y9280257D01*
X5873657Y9265065D01*
X5880100Y9263338D01*
Y9334500D01*
D02*
G37*
G36*
X4356100D02*
X4284938D01*
X4286665Y9328057D01*
X4301857Y9301743D01*
X4323343Y9280257D01*
X4349657Y9265065D01*
X4356100Y9263338D01*
Y9334500D01*
D02*
G37*
G36*
X5425393Y9488000D02*
X5395007D01*
X5365657Y9480135D01*
X5339343Y9464943D01*
X5317857Y9443457D01*
X5302665Y9417143D01*
X5294800Y9387793D01*
Y9357407D01*
X5302665Y9328057D01*
X5317857Y9301743D01*
X5339343Y9280257D01*
X5365657Y9265065D01*
X5395007Y9257200D01*
X5425393D01*
X5454743Y9265065D01*
X5481057Y9280257D01*
X5502543Y9301743D01*
X5517735Y9328057D01*
X5525600Y9357407D01*
Y9387793D01*
X5517735Y9417143D01*
X5502543Y9443457D01*
X5481057Y9464943D01*
X5454743Y9480135D01*
X5425393Y9488000D01*
D02*
G37*
G36*
X5171393D02*
X5141007D01*
X5111657Y9480135D01*
X5085343Y9464943D01*
X5063857Y9443457D01*
X5048665Y9417143D01*
X5040800Y9387793D01*
Y9357407D01*
X5048665Y9328057D01*
X5063857Y9301743D01*
X5085343Y9280257D01*
X5111657Y9265065D01*
X5141007Y9257200D01*
X5171393D01*
X5200743Y9265065D01*
X5227057Y9280257D01*
X5248543Y9301743D01*
X5263735Y9328057D01*
X5271600Y9357407D01*
Y9387793D01*
X5263735Y9417143D01*
X5248543Y9443457D01*
X5227057Y9464943D01*
X5200743Y9480135D01*
X5171393Y9488000D01*
D02*
G37*
G36*
X4917393D02*
X4887007D01*
X4857657Y9480135D01*
X4831343Y9464943D01*
X4809857Y9443457D01*
X4794665Y9417143D01*
X4786800Y9387793D01*
Y9357407D01*
X4794665Y9328057D01*
X4809857Y9301743D01*
X4831343Y9280257D01*
X4857657Y9265065D01*
X4887007Y9257200D01*
X4917393D01*
X4946743Y9265065D01*
X4973057Y9280257D01*
X4994543Y9301743D01*
X5009735Y9328057D01*
X5017600Y9357407D01*
Y9387793D01*
X5009735Y9417143D01*
X4994543Y9443457D01*
X4973057Y9464943D01*
X4946743Y9480135D01*
X4917393Y9488000D01*
D02*
G37*
G36*
X4663393D02*
X4633007D01*
X4603657Y9480135D01*
X4577343Y9464943D01*
X4555857Y9443457D01*
X4540664Y9417143D01*
X4532800Y9387793D01*
Y9357407D01*
X4540664Y9328057D01*
X4555857Y9301743D01*
X4577343Y9280257D01*
X4603657Y9265065D01*
X4633007Y9257200D01*
X4663393D01*
X4692742Y9265065D01*
X4719057Y9280257D01*
X4740542Y9301743D01*
X4755735Y9328057D01*
X4763600Y9357407D01*
Y9387793D01*
X4755735Y9417143D01*
X4740542Y9443457D01*
X4719057Y9464943D01*
X4692742Y9480135D01*
X4663393Y9488000D01*
D02*
G37*
G36*
X4155393D02*
X4125007D01*
X4095657Y9480135D01*
X4069343Y9464943D01*
X4047857Y9443457D01*
X4032665Y9417143D01*
X4024800Y9387793D01*
Y9357407D01*
X4032665Y9328057D01*
X4047857Y9301743D01*
X4069343Y9280257D01*
X4095657Y9265065D01*
X4125007Y9257200D01*
X4155393D01*
X4184743Y9265065D01*
X4211057Y9280257D01*
X4232543Y9301743D01*
X4247735Y9328057D01*
X4255600Y9357407D01*
Y9387793D01*
X4247735Y9417143D01*
X4232543Y9443457D01*
X4211057Y9464943D01*
X4184743Y9480135D01*
X4155393Y9488000D01*
D02*
G37*
G36*
X6568393Y9208600D02*
X6538007D01*
X6508657Y9200735D01*
X6482343Y9185542D01*
X6460857Y9164057D01*
X6445665Y9137742D01*
X6437800Y9108393D01*
Y9078007D01*
X6445665Y9048657D01*
X6460857Y9022343D01*
X6482343Y9000857D01*
X6508657Y8985664D01*
X6538007Y8977800D01*
X6568393D01*
X6597743Y8985664D01*
X6624057Y9000857D01*
X6645543Y9022343D01*
X6660735Y9048657D01*
X6668600Y9078007D01*
Y9108393D01*
X6660735Y9137742D01*
X6645543Y9164057D01*
X6624057Y9185542D01*
X6597743Y9200735D01*
X6568393Y9208600D01*
D02*
G37*
G36*
Y8954599D02*
X6538007D01*
X6508657Y8946735D01*
X6482343Y8931542D01*
X6460857Y8910057D01*
X6445665Y8883742D01*
X6437800Y8854392D01*
Y8824007D01*
X6445665Y8794657D01*
X6460857Y8768342D01*
X6482343Y8746857D01*
X6508657Y8731664D01*
X6538007Y8723800D01*
X6568393D01*
X6597743Y8731664D01*
X6624057Y8746857D01*
X6645543Y8768342D01*
X6660735Y8794657D01*
X6668600Y8824007D01*
Y8854392D01*
X6660735Y8883742D01*
X6645543Y8910057D01*
X6624057Y8931542D01*
X6597743Y8946735D01*
X6568393Y8954599D01*
D02*
G37*
G36*
Y8700600D02*
X6538007D01*
X6508657Y8692735D01*
X6482343Y8677543D01*
X6460857Y8656057D01*
X6445665Y8629743D01*
X6437800Y8600393D01*
Y8570007D01*
X6445665Y8540657D01*
X6460857Y8514343D01*
X6482343Y8492857D01*
X6508657Y8477665D01*
X6538007Y8469800D01*
X6568393D01*
X6597743Y8477665D01*
X6624057Y8492857D01*
X6645543Y8514343D01*
X6660735Y8540657D01*
X6668600Y8570007D01*
Y8600393D01*
X6660735Y8629743D01*
X6645543Y8656057D01*
X6624057Y8677543D01*
X6597743Y8692735D01*
X6568393Y8700600D01*
D02*
G37*
G36*
Y8446600D02*
X6538007D01*
X6508657Y8438735D01*
X6482343Y8423542D01*
X6460857Y8402057D01*
X6445665Y8375742D01*
X6437800Y8346393D01*
Y8316007D01*
X6445665Y8286657D01*
X6460857Y8260343D01*
X6482343Y8238857D01*
X6508657Y8223664D01*
X6538007Y8215800D01*
X6568393D01*
X6597743Y8223664D01*
X6624057Y8238857D01*
X6645543Y8260343D01*
X6660735Y8286657D01*
X6668600Y8316007D01*
Y8346393D01*
X6660735Y8375742D01*
X6645543Y8402057D01*
X6624057Y8423542D01*
X6597743Y8438735D01*
X6568393Y8446600D01*
D02*
G37*
G36*
X2153962Y7581900D02*
X2082800D01*
Y7510738D01*
X2089243Y7512465D01*
X2115557Y7527657D01*
X2137043Y7549143D01*
X2152235Y7575457D01*
X2153962Y7581900D01*
D02*
G37*
G36*
X2006600D02*
X1935438D01*
X1937165Y7575457D01*
X1952357Y7549143D01*
X1973843Y7527657D01*
X2000157Y7512465D01*
X2006600Y7510738D01*
Y7581900D01*
D02*
G37*
G36*
X2059893Y7481400D02*
X2029507D01*
X2000157Y7473535D01*
X1973843Y7458342D01*
X1952357Y7436857D01*
X1937165Y7410542D01*
X1929300Y7381193D01*
Y7350807D01*
X1937165Y7321457D01*
X1952357Y7295143D01*
X1973843Y7273657D01*
X2000157Y7258464D01*
X2029507Y7250600D01*
X2059893D01*
X2089243Y7258464D01*
X2115557Y7273657D01*
X2137043Y7295143D01*
X2152235Y7321457D01*
X2160100Y7350807D01*
Y7381193D01*
X2152235Y7410542D01*
X2137043Y7436857D01*
X2115557Y7458342D01*
X2089243Y7473535D01*
X2059893Y7481400D01*
D02*
G37*
G36*
Y7227400D02*
X2029507D01*
X2000157Y7219536D01*
X1973843Y7204343D01*
X1952357Y7182857D01*
X1937165Y7156543D01*
X1929300Y7127193D01*
Y7096807D01*
X1937165Y7067458D01*
X1952357Y7041143D01*
X1973843Y7019658D01*
X2000157Y7004465D01*
X2029507Y6996600D01*
X2059893D01*
X2089243Y7004465D01*
X2115557Y7019658D01*
X2137043Y7041143D01*
X2152235Y7067458D01*
X2160100Y7096807D01*
Y7127193D01*
X2152235Y7156543D01*
X2137043Y7182857D01*
X2115557Y7204343D01*
X2089243Y7219536D01*
X2059893Y7227400D01*
D02*
G37*
G36*
X2082800Y6306862D02*
Y6235700D01*
X2153962D01*
X2152235Y6242143D01*
X2137043Y6268457D01*
X2115557Y6289943D01*
X2089243Y6305136D01*
X2082800Y6306862D01*
D02*
G37*
G36*
X3200400D02*
Y6235700D01*
X3271562D01*
X3269835Y6242143D01*
X3254643Y6268457D01*
X3233157Y6289943D01*
X3206843Y6305136D01*
X3200400Y6306862D01*
D02*
G37*
G36*
X3124200D02*
X3117757Y6305136D01*
X3091443Y6289943D01*
X3069957Y6268457D01*
X3054765Y6242143D01*
X3053038Y6235700D01*
X3124200D01*
Y6306862D01*
D02*
G37*
G36*
X3271562Y6159500D02*
X3200400D01*
Y6088338D01*
X3206843Y6090065D01*
X3233157Y6105258D01*
X3254643Y6126743D01*
X3269835Y6153058D01*
X3271562Y6159500D01*
D02*
G37*
G36*
X2153962D02*
X2082800D01*
Y6088338D01*
X2089243Y6090065D01*
X2115557Y6105258D01*
X2137043Y6126743D01*
X2152235Y6153058D01*
X2153962Y6159500D01*
D02*
G37*
G36*
X3124200D02*
X3053038D01*
X3054765Y6153058D01*
X3069957Y6126743D01*
X3091443Y6105258D01*
X3117757Y6090065D01*
X3124200Y6088338D01*
Y6159500D01*
D02*
G37*
G36*
X3177493Y6059000D02*
X3147107D01*
X3117757Y6051136D01*
X3091443Y6035943D01*
X3069957Y6014457D01*
X3054765Y5988143D01*
X3046900Y5958793D01*
Y5928407D01*
X3054765Y5899058D01*
X3069957Y5872743D01*
X3091443Y5851258D01*
X3117757Y5836065D01*
X3147107Y5828200D01*
X3177493D01*
X3206843Y5836065D01*
X3233157Y5851258D01*
X3254643Y5872743D01*
X3269835Y5899058D01*
X3277700Y5928407D01*
Y5958793D01*
X3269835Y5988143D01*
X3254643Y6014457D01*
X3233157Y6035943D01*
X3206843Y6051136D01*
X3177493Y6059000D01*
D02*
G37*
G36*
Y5805000D02*
X3147107D01*
X3117757Y5797136D01*
X3091443Y5781943D01*
X3069957Y5760457D01*
X3054765Y5734143D01*
X3046900Y5704793D01*
Y5674407D01*
X3054765Y5645058D01*
X3069957Y5618743D01*
X3091443Y5597258D01*
X3117757Y5582065D01*
X3147107Y5574200D01*
X3177493D01*
X3206843Y5582065D01*
X3233157Y5597258D01*
X3254643Y5618743D01*
X3269835Y5645058D01*
X3277700Y5674407D01*
Y5704793D01*
X3269835Y5734143D01*
X3254643Y5760457D01*
X3233157Y5781943D01*
X3206843Y5797136D01*
X3177493Y5805000D01*
D02*
G37*
G36*
X4381500Y5087662D02*
Y5016500D01*
X4452662D01*
X4450936Y5022942D01*
X4435743Y5049257D01*
X4414257Y5070742D01*
X4387943Y5085935D01*
X4381500Y5087662D01*
D02*
G37*
G36*
X4305300D02*
X4298858Y5085935D01*
X4272543Y5070742D01*
X4251058Y5049257D01*
X4235865Y5022942D01*
X4234139Y5016500D01*
X4305300D01*
Y5087662D01*
D02*
G37*
G36*
X5905500Y5087662D02*
Y5016500D01*
X5976662D01*
X5974935Y5022943D01*
X5959743Y5049257D01*
X5938257Y5070743D01*
X5911943Y5085935D01*
X5905500Y5087662D01*
D02*
G37*
G36*
X4452662Y4940300D02*
X4381500D01*
Y4869138D01*
X4387943Y4870864D01*
X4414257Y4886057D01*
X4435743Y4907543D01*
X4450936Y4933857D01*
X4452662Y4940300D01*
D02*
G37*
G36*
X4305300D02*
X4234138D01*
X4235865Y4933857D01*
X4251058Y4907543D01*
X4272543Y4886057D01*
X4298858Y4870864D01*
X4305300Y4869138D01*
Y4940300D01*
D02*
G37*
G36*
X1320800Y4935262D02*
Y4864100D01*
X1391962D01*
X1390235Y4870543D01*
X1375043Y4896857D01*
X1353557Y4918343D01*
X1327243Y4933535D01*
X1320800Y4935262D01*
D02*
G37*
G36*
X1244600D02*
X1238157Y4933535D01*
X1211843Y4918343D01*
X1190357Y4896857D01*
X1175165Y4870543D01*
X1173438Y4864100D01*
X1244600D01*
Y4935262D01*
D02*
G37*
G36*
X4866593Y5093800D02*
X4836207D01*
X4806857Y5085935D01*
X4780543Y5070743D01*
X4759057Y5049257D01*
X4743865Y5022943D01*
X4736000Y4993593D01*
Y4963207D01*
X4743865Y4933857D01*
X4759057Y4907543D01*
X4780543Y4886057D01*
X4806857Y4870865D01*
X4836207Y4863000D01*
X4866593D01*
X4895943Y4870865D01*
X4922257Y4886057D01*
X4943743Y4907543D01*
X4958935Y4933857D01*
X4966800Y4963207D01*
Y4993593D01*
X4958935Y5022943D01*
X4943743Y5049257D01*
X4922257Y5070743D01*
X4895943Y5085935D01*
X4866593Y5093800D01*
D02*
G37*
G36*
X4612593D02*
X4582207D01*
X4552857Y5085935D01*
X4526543Y5070743D01*
X4505057Y5049257D01*
X4489865Y5022943D01*
X4482000Y4993593D01*
Y4963207D01*
X4489865Y4933857D01*
X4505057Y4907543D01*
X4526543Y4886057D01*
X4552857Y4870865D01*
X4582207Y4863000D01*
X4612593D01*
X4641943Y4870865D01*
X4668257Y4886057D01*
X4689743Y4907543D01*
X4704935Y4933857D01*
X4712800Y4963207D01*
Y4993593D01*
X4704935Y5022943D01*
X4689743Y5049257D01*
X4668257Y5070743D01*
X4641943Y5085935D01*
X4612593Y5093800D01*
D02*
G37*
G36*
X5120593Y5093800D02*
X5090207D01*
X5060858Y5085935D01*
X5034543Y5070742D01*
X5013058Y5049257D01*
X4997865Y5022942D01*
X4990000Y4993593D01*
Y4963207D01*
X4997865Y4933857D01*
X5013058Y4907543D01*
X5034543Y4886057D01*
X5060858Y4870864D01*
X5090207Y4863000D01*
X5120593D01*
X5149943Y4870864D01*
X5176257Y4886057D01*
X5197743Y4907543D01*
X5212936Y4933857D01*
X5220800Y4963207D01*
Y4993593D01*
X5212936Y5022942D01*
X5197743Y5049257D01*
X5176257Y5070742D01*
X5149943Y5085935D01*
X5120593Y5093800D01*
D02*
G37*
G36*
X4104593D02*
X4074207D01*
X4044858Y5085935D01*
X4018543Y5070742D01*
X3997058Y5049257D01*
X3981865Y5022942D01*
X3974000Y4993593D01*
Y4963207D01*
X3981865Y4933857D01*
X3997058Y4907543D01*
X4018543Y4886057D01*
X4044858Y4870864D01*
X4074207Y4863000D01*
X4104593D01*
X4133943Y4870864D01*
X4160257Y4886057D01*
X4181743Y4907543D01*
X4196936Y4933857D01*
X4204800Y4963207D01*
Y4993593D01*
X4196936Y5022942D01*
X4181743Y5049257D01*
X4160257Y5070742D01*
X4133943Y5085935D01*
X4104593Y5093800D01*
D02*
G37*
G36*
X2082800Y4795562D02*
Y4724400D01*
X2153962D01*
X2152235Y4730843D01*
X2137043Y4757157D01*
X2115557Y4778643D01*
X2089243Y4793835D01*
X2082800Y4795562D01*
D02*
G37*
G36*
X2006600D02*
X2000157Y4793835D01*
X1973843Y4778643D01*
X1952357Y4757157D01*
X1937165Y4730843D01*
X1935438Y4724400D01*
X2006600D01*
Y4795562D01*
D02*
G37*
G36*
X1391962Y4787900D02*
X1320800D01*
Y4716738D01*
X1327243Y4718465D01*
X1353557Y4733657D01*
X1375043Y4755143D01*
X1390235Y4781457D01*
X1391962Y4787900D01*
D02*
G37*
G36*
X1244600D02*
X1173438D01*
X1175165Y4781457D01*
X1190357Y4755143D01*
X1211843Y4733657D01*
X1238157Y4718465D01*
X1244600Y4716738D01*
Y4787900D01*
D02*
G37*
G36*
X1320800Y4681262D02*
Y4610100D01*
X1391962D01*
X1390235Y4616543D01*
X1375043Y4642857D01*
X1353557Y4664343D01*
X1327243Y4679535D01*
X1320800Y4681262D01*
D02*
G37*
G36*
X1244600D02*
X1238157Y4679535D01*
X1211843Y4664343D01*
X1190357Y4642857D01*
X1175165Y4616543D01*
X1173438Y4610100D01*
X1244600D01*
Y4681262D01*
D02*
G37*
G36*
X6517593Y4839800D02*
X6487207D01*
X6457857Y4831935D01*
X6431543Y4816743D01*
X6410057Y4795257D01*
X6394865Y4768943D01*
X6387000Y4739593D01*
Y4709207D01*
X6394865Y4679857D01*
X6410057Y4653543D01*
X6431543Y4632057D01*
X6457857Y4616865D01*
X6487207Y4609000D01*
X6517593D01*
X6546943Y4616865D01*
X6573257Y4632057D01*
X6594743Y4653543D01*
X6609935Y4679857D01*
X6617800Y4709207D01*
Y4739593D01*
X6609935Y4768943D01*
X6594743Y4795257D01*
X6573257Y4816743D01*
X6546943Y4831935D01*
X6517593Y4839800D01*
D02*
G37*
G36*
X2153962Y4648200D02*
X2082800D01*
Y4577038D01*
X2089243Y4578765D01*
X2115557Y4593957D01*
X2137043Y4615443D01*
X2152235Y4641757D01*
X2153962Y4648200D01*
D02*
G37*
G36*
X2006600D02*
X1935438D01*
X1937165Y4641757D01*
X1952357Y4615443D01*
X1973843Y4593957D01*
X2000157Y4578765D01*
X2006600Y4577038D01*
Y4648200D01*
D02*
G37*
G36*
X2082800Y4541562D02*
Y4470400D01*
X2153962D01*
X2152235Y4476843D01*
X2137043Y4503157D01*
X2115557Y4524643D01*
X2089243Y4539835D01*
X2082800Y4541562D01*
D02*
G37*
G36*
X2006600D02*
X2000157Y4539835D01*
X1973843Y4524643D01*
X1952357Y4503157D01*
X1937165Y4476843D01*
X1935438Y4470400D01*
X2006600D01*
Y4541562D01*
D02*
G37*
G36*
X1391962Y4533900D02*
X1320800D01*
Y4462738D01*
X1327243Y4464465D01*
X1353557Y4479657D01*
X1375043Y4501143D01*
X1390235Y4527457D01*
X1391962Y4533900D01*
D02*
G37*
G36*
X1244600D02*
X1173438D01*
X1175165Y4527457D01*
X1190357Y4501143D01*
X1211843Y4479657D01*
X1238157Y4464465D01*
X1244600Y4462738D01*
Y4533900D01*
D02*
G37*
G36*
X1320800Y4427262D02*
Y4356100D01*
X1391962D01*
X1390235Y4362543D01*
X1375043Y4388857D01*
X1353557Y4410343D01*
X1327243Y4425535D01*
X1320800Y4427262D01*
D02*
G37*
G36*
X1244600D02*
X1238157Y4425535D01*
X1211843Y4410343D01*
X1190357Y4388857D01*
X1175165Y4362543D01*
X1173438Y4356100D01*
X1244600D01*
Y4427262D01*
D02*
G37*
G36*
X6517593Y4585800D02*
X6487207D01*
X6457857Y4577935D01*
X6431543Y4562743D01*
X6410057Y4541257D01*
X6394865Y4514943D01*
X6387000Y4485593D01*
Y4455207D01*
X6394865Y4425857D01*
X6410057Y4399543D01*
X6431543Y4378057D01*
X6457857Y4362865D01*
X6487207Y4355000D01*
X6517593D01*
X6546943Y4362865D01*
X6573257Y4378057D01*
X6594743Y4399543D01*
X6609935Y4425857D01*
X6617800Y4455207D01*
Y4485593D01*
X6609935Y4514943D01*
X6594743Y4541257D01*
X6573257Y4562743D01*
X6546943Y4577935D01*
X6517593Y4585800D01*
D02*
G37*
G36*
X2153962Y4394200D02*
X2082800D01*
Y4323038D01*
X2089243Y4324765D01*
X2115557Y4339957D01*
X2137043Y4361443D01*
X2152235Y4387757D01*
X2153962Y4394200D01*
D02*
G37*
G36*
X2006600D02*
X1935438D01*
X1937165Y4387757D01*
X1952357Y4361443D01*
X1973843Y4339957D01*
X2000157Y4324765D01*
X2006600Y4323038D01*
Y4394200D01*
D02*
G37*
G36*
X1391962Y4279900D02*
X1320800D01*
Y4208738D01*
X1327243Y4210465D01*
X1353557Y4225657D01*
X1375043Y4247143D01*
X1390235Y4273457D01*
X1391962Y4279900D01*
D02*
G37*
G36*
X1244600D02*
X1173438D01*
X1175165Y4273457D01*
X1190357Y4247143D01*
X1211843Y4225657D01*
X1238157Y4210465D01*
X1244600Y4208738D01*
Y4279900D01*
D02*
G37*
G36*
X1320800Y4173262D02*
Y4102100D01*
X1391962D01*
X1390235Y4108543D01*
X1375043Y4134857D01*
X1353557Y4156343D01*
X1327243Y4171535D01*
X1320800Y4173262D01*
D02*
G37*
G36*
X1244600D02*
X1238157Y4171535D01*
X1211843Y4156343D01*
X1190357Y4134857D01*
X1175165Y4108543D01*
X1173438Y4102100D01*
X1244600D01*
Y4173262D01*
D02*
G37*
G36*
X6517593Y4331800D02*
X6487207D01*
X6457857Y4323935D01*
X6431543Y4308743D01*
X6410057Y4287257D01*
X6394865Y4260943D01*
X6387000Y4231593D01*
Y4201207D01*
X6394865Y4171857D01*
X6410057Y4145543D01*
X6431543Y4124057D01*
X6457857Y4108865D01*
X6487207Y4101000D01*
X6517593D01*
X6546943Y4108865D01*
X6573257Y4124057D01*
X6594743Y4145543D01*
X6609935Y4171857D01*
X6617800Y4201207D01*
Y4231593D01*
X6609935Y4260943D01*
X6594743Y4287257D01*
X6573257Y4308743D01*
X6546943Y4323935D01*
X6517593Y4331800D01*
D02*
G37*
G36*
X1391962Y4025900D02*
X1320800D01*
Y3954738D01*
X1327243Y3956465D01*
X1353557Y3971657D01*
X1375043Y3993143D01*
X1390235Y4019457D01*
X1391962Y4025900D01*
D02*
G37*
G36*
X1244600D02*
X1173438D01*
X1175165Y4019457D01*
X1190357Y3993143D01*
X1211843Y3971657D01*
X1238157Y3956465D01*
X1244600Y3954738D01*
Y4025900D01*
D02*
G37*
G36*
X1320800Y3919262D02*
Y3848100D01*
X1391962D01*
X1390235Y3854543D01*
X1375043Y3880857D01*
X1353557Y3902343D01*
X1327243Y3917535D01*
X1320800Y3919262D01*
D02*
G37*
G36*
X1244600D02*
X1238157Y3917535D01*
X1211843Y3902343D01*
X1190357Y3880857D01*
X1175165Y3854543D01*
X1173438Y3848100D01*
X1244600D01*
Y3919262D01*
D02*
G37*
G36*
X6517593Y4077800D02*
X6487207D01*
X6457857Y4069935D01*
X6431543Y4054743D01*
X6410057Y4033257D01*
X6394865Y4006943D01*
X6387000Y3977593D01*
Y3947207D01*
X6394865Y3917857D01*
X6410057Y3891543D01*
X6431543Y3870057D01*
X6457857Y3854865D01*
X6487207Y3847000D01*
X6517593D01*
X6546943Y3854865D01*
X6573257Y3870057D01*
X6594743Y3891543D01*
X6609935Y3917857D01*
X6617800Y3947207D01*
Y3977593D01*
X6609935Y4006943D01*
X6594743Y4033257D01*
X6573257Y4054743D01*
X6546943Y4069935D01*
X6517593Y4077800D01*
D02*
G37*
G36*
X2059893Y4039700D02*
X2029507D01*
X2000157Y4031835D01*
X1973843Y4016643D01*
X1952357Y3995157D01*
X1937165Y3968843D01*
X1929300Y3939493D01*
Y3909107D01*
X1937165Y3879757D01*
X1952357Y3853443D01*
X1973843Y3831957D01*
X2000157Y3816765D01*
X2029507Y3808900D01*
X2059893D01*
X2089243Y3816765D01*
X2115557Y3831957D01*
X2137043Y3853443D01*
X2152235Y3879757D01*
X2160100Y3909107D01*
Y3939493D01*
X2152235Y3968843D01*
X2137043Y3995157D01*
X2115557Y4016643D01*
X2089243Y4031835D01*
X2059893Y4039700D01*
D02*
G37*
G36*
X1391962Y3771900D02*
X1320800D01*
Y3700738D01*
X1327243Y3702465D01*
X1353557Y3717657D01*
X1375043Y3739143D01*
X1390235Y3765457D01*
X1391962Y3771900D01*
D02*
G37*
G36*
X1244600D02*
X1173438D01*
X1175165Y3765457D01*
X1190357Y3739143D01*
X1211843Y3717657D01*
X1238157Y3702465D01*
X1244600Y3700738D01*
Y3771900D01*
D02*
G37*
G36*
X916893Y4954100D02*
X886507D01*
X857157Y4946235D01*
X830843Y4931043D01*
X809357Y4909557D01*
X794165Y4883243D01*
X786300Y4853893D01*
Y4823507D01*
X786414Y4823084D01*
Y4600316D01*
X786300Y4599893D01*
Y4569507D01*
X786414Y4569084D01*
Y4346316D01*
X786300Y4345893D01*
Y4315507D01*
X786414Y4315084D01*
Y4092316D01*
X786300Y4091893D01*
Y4061507D01*
X786414Y4061084D01*
Y3838316D01*
X786300Y3837893D01*
Y3807507D01*
X787169Y3804266D01*
X790342Y3780162D01*
X801859Y3752357D01*
X820180Y3728480D01*
X844057Y3710159D01*
X871862Y3698642D01*
X901700Y3694714D01*
X931538Y3698642D01*
X959343Y3710159D01*
X983220Y3728480D01*
X1001541Y3752357D01*
X1013058Y3780162D01*
X1016231Y3804266D01*
X1017100Y3807507D01*
Y3837893D01*
X1016986Y3838316D01*
Y4061084D01*
X1017100Y4061507D01*
Y4091893D01*
X1016986Y4092316D01*
Y4315084D01*
X1017100Y4315507D01*
Y4345893D01*
X1016986Y4346316D01*
Y4569084D01*
X1017100Y4569507D01*
Y4599893D01*
X1016986Y4600316D01*
Y4823084D01*
X1017100Y4823507D01*
Y4853893D01*
X1009235Y4883243D01*
X994043Y4909557D01*
X972557Y4931043D01*
X946243Y4946235D01*
X916893Y4954100D01*
D02*
G37*
G36*
X5882593Y3823800D02*
X5852207D01*
X5822857Y3815935D01*
X5796543Y3800743D01*
X5775057Y3779257D01*
X5759865Y3752943D01*
X5752000Y3723593D01*
Y3693207D01*
X5759865Y3663857D01*
X5775057Y3637543D01*
X5796543Y3616057D01*
X5822857Y3600865D01*
X5852207Y3593000D01*
X5882593D01*
X5911943Y3600865D01*
X5938257Y3616057D01*
X5959743Y3637543D01*
X5974935Y3663857D01*
X5982800Y3693207D01*
Y3723593D01*
X5974935Y3752943D01*
X5959743Y3779257D01*
X5938257Y3800743D01*
X5911943Y3815935D01*
X5882593Y3823800D01*
D02*
G37*
G36*
X5628593D02*
X5598207D01*
X5568857Y3815935D01*
X5542543Y3800743D01*
X5521057Y3779257D01*
X5505865Y3752943D01*
X5498000Y3723593D01*
Y3693207D01*
X5505865Y3663857D01*
X5521057Y3637543D01*
X5542543Y3616057D01*
X5568857Y3600865D01*
X5598207Y3593000D01*
X5628593D01*
X5657943Y3600865D01*
X5684257Y3616057D01*
X5705743Y3637543D01*
X5720935Y3663857D01*
X5728800Y3693207D01*
Y3723593D01*
X5720935Y3752943D01*
X5705743Y3779257D01*
X5684257Y3800743D01*
X5657943Y3815935D01*
X5628593Y3823800D01*
D02*
G37*
G36*
X5374593D02*
X5344207D01*
X5314858Y3815935D01*
X5288543Y3800743D01*
X5267058Y3779257D01*
X5251865Y3752943D01*
X5244000Y3723593D01*
Y3693207D01*
X5251865Y3663857D01*
X5267058Y3637543D01*
X5288543Y3616057D01*
X5314858Y3600865D01*
X5344207Y3593000D01*
X5374593D01*
X5403943Y3600865D01*
X5430257Y3616057D01*
X5451743Y3637543D01*
X5466936Y3663857D01*
X5474800Y3693207D01*
Y3723593D01*
X5466936Y3752943D01*
X5451743Y3779257D01*
X5430257Y3800743D01*
X5403943Y3815935D01*
X5374593Y3823800D01*
D02*
G37*
G36*
X5120593D02*
X5090207D01*
X5060858Y3815935D01*
X5034543Y3800743D01*
X5013058Y3779257D01*
X4997865Y3752943D01*
X4990000Y3723593D01*
Y3693207D01*
X4997865Y3663857D01*
X5013058Y3637543D01*
X5034543Y3616057D01*
X5060858Y3600865D01*
X5090207Y3593000D01*
X5120593D01*
X5149943Y3600865D01*
X5176257Y3616057D01*
X5197743Y3637543D01*
X5212936Y3663857D01*
X5220800Y3693207D01*
Y3723593D01*
X5212936Y3752943D01*
X5197743Y3779257D01*
X5176257Y3800743D01*
X5149943Y3815935D01*
X5120593Y3823800D01*
D02*
G37*
G36*
X4866593D02*
X4836207D01*
X4806857Y3815935D01*
X4780543Y3800743D01*
X4759057Y3779257D01*
X4743865Y3752943D01*
X4736000Y3723593D01*
Y3693207D01*
X4743865Y3663857D01*
X4759057Y3637543D01*
X4780543Y3616057D01*
X4806857Y3600865D01*
X4836207Y3593000D01*
X4866593D01*
X4895943Y3600865D01*
X4922257Y3616057D01*
X4943743Y3637543D01*
X4958935Y3663857D01*
X4966800Y3693207D01*
Y3723593D01*
X4958935Y3752943D01*
X4943743Y3779257D01*
X4922257Y3800743D01*
X4895943Y3815935D01*
X4866593Y3823800D01*
D02*
G37*
G36*
X4612593D02*
X4582207D01*
X4552857Y3815935D01*
X4526543Y3800743D01*
X4505057Y3779257D01*
X4489865Y3752943D01*
X4482000Y3723593D01*
Y3693207D01*
X4489865Y3663857D01*
X4505057Y3637543D01*
X4526543Y3616057D01*
X4552857Y3600865D01*
X4582207Y3593000D01*
X4612593D01*
X4641943Y3600865D01*
X4668257Y3616057D01*
X4689743Y3637543D01*
X4704935Y3663857D01*
X4712800Y3693207D01*
Y3723593D01*
X4704935Y3752943D01*
X4689743Y3779257D01*
X4668257Y3800743D01*
X4641943Y3815935D01*
X4612593Y3823800D01*
D02*
G37*
G36*
X4358593D02*
X4328207D01*
X4298857Y3815935D01*
X4272543Y3800743D01*
X4251057Y3779257D01*
X4235865Y3752943D01*
X4228000Y3723593D01*
Y3693207D01*
X4235865Y3663857D01*
X4251057Y3637543D01*
X4272543Y3616057D01*
X4298857Y3600865D01*
X4328207Y3593000D01*
X4358593D01*
X4387943Y3600865D01*
X4414257Y3616057D01*
X4435743Y3637543D01*
X4450935Y3663857D01*
X4458800Y3693207D01*
Y3723593D01*
X4450935Y3752943D01*
X4435743Y3779257D01*
X4414257Y3800743D01*
X4387943Y3815935D01*
X4358593Y3823800D01*
D02*
G37*
G36*
X3365500Y2954062D02*
Y2882900D01*
X3436662D01*
X3434935Y2889342D01*
X3419743Y2915657D01*
X3398257Y2937142D01*
X3371943Y2952335D01*
X3365500Y2954062D01*
D02*
G37*
G36*
X3289300Y2954061D02*
X3282857Y2952335D01*
X3256543Y2937142D01*
X3235057Y2915657D01*
X3219865Y2889342D01*
X3218138Y2882900D01*
X3289300D01*
Y2954061D01*
D02*
G37*
G36*
Y2806700D02*
X3218138D01*
X3219865Y2800257D01*
X3235057Y2773943D01*
X3256543Y2752457D01*
X3282857Y2737264D01*
X3289300Y2735538D01*
Y2806700D01*
D02*
G37*
G36*
X3436662D02*
X3365500D01*
Y2735538D01*
X3371943Y2737264D01*
X3398257Y2752457D01*
X3419743Y2773943D01*
X3434935Y2800257D01*
X3436662Y2806700D01*
D02*
G37*
G36*
X5882593Y2960200D02*
X5852207D01*
X5822857Y2952335D01*
X5796543Y2937142D01*
X5775057Y2915657D01*
X5759865Y2889342D01*
X5752000Y2859993D01*
Y2829607D01*
X5759865Y2800257D01*
X5775057Y2773943D01*
X5796543Y2752457D01*
X5822857Y2737264D01*
X5852207Y2729400D01*
X5882593D01*
X5911943Y2737264D01*
X5938257Y2752457D01*
X5959743Y2773943D01*
X5974935Y2800257D01*
X5982800Y2829607D01*
Y2859993D01*
X5974935Y2889342D01*
X5959743Y2915657D01*
X5938257Y2937142D01*
X5911943Y2952335D01*
X5882593Y2960200D01*
D02*
G37*
G36*
X5628593D02*
X5598207D01*
X5568857Y2952335D01*
X5542543Y2937142D01*
X5521057Y2915657D01*
X5505865Y2889342D01*
X5498000Y2859993D01*
Y2829607D01*
X5505865Y2800257D01*
X5521057Y2773943D01*
X5542543Y2752457D01*
X5568857Y2737264D01*
X5598207Y2729400D01*
X5628593D01*
X5657943Y2737264D01*
X5684257Y2752457D01*
X5705743Y2773943D01*
X5720935Y2800257D01*
X5728800Y2829607D01*
Y2859993D01*
X5720935Y2889342D01*
X5705743Y2915657D01*
X5684257Y2937142D01*
X5657943Y2952335D01*
X5628593Y2960200D01*
D02*
G37*
G36*
X5120593D02*
X5090207D01*
X5060857Y2952335D01*
X5034543Y2937142D01*
X5013057Y2915657D01*
X4997865Y2889342D01*
X4990000Y2859993D01*
Y2829607D01*
X4997865Y2800257D01*
X5013057Y2773943D01*
X5034543Y2752457D01*
X5060857Y2737264D01*
X5090207Y2729400D01*
X5120593D01*
X5149943Y2737264D01*
X5176257Y2752457D01*
X5197743Y2773943D01*
X5212935Y2800257D01*
X5220800Y2829607D01*
Y2859993D01*
X5212935Y2889342D01*
X5197743Y2915657D01*
X5176257Y2937142D01*
X5149943Y2952335D01*
X5120593Y2960200D01*
D02*
G37*
G36*
X4866593D02*
X4836207D01*
X4806857Y2952335D01*
X4780543Y2937142D01*
X4759057Y2915657D01*
X4743865Y2889342D01*
X4736000Y2859993D01*
Y2829607D01*
X4743865Y2800257D01*
X4759057Y2773943D01*
X4780543Y2752457D01*
X4806857Y2737264D01*
X4836207Y2729400D01*
X4866593D01*
X4895943Y2737264D01*
X4922257Y2752457D01*
X4943743Y2773943D01*
X4958935Y2800257D01*
X4966800Y2829607D01*
Y2859993D01*
X4958935Y2889342D01*
X4943743Y2915657D01*
X4922257Y2937142D01*
X4895943Y2952335D01*
X4866593Y2960200D01*
D02*
G37*
G36*
X4612593D02*
X4582207D01*
X4552857Y2952335D01*
X4526543Y2937142D01*
X4505057Y2915657D01*
X4489865Y2889342D01*
X4482000Y2859993D01*
Y2829607D01*
X4489865Y2800257D01*
X4505057Y2773943D01*
X4526543Y2752457D01*
X4552857Y2737264D01*
X4582207Y2729400D01*
X4612593D01*
X4641943Y2737264D01*
X4668257Y2752457D01*
X4689743Y2773943D01*
X4704935Y2800257D01*
X4712800Y2829607D01*
Y2859993D01*
X4704935Y2889342D01*
X4689743Y2915657D01*
X4668257Y2937142D01*
X4641943Y2952335D01*
X4612593Y2960200D01*
D02*
G37*
G36*
X4104593D02*
X4074207D01*
X4044857Y2952335D01*
X4018543Y2937142D01*
X3997057Y2915657D01*
X3981865Y2889342D01*
X3974000Y2859993D01*
Y2829607D01*
X3981865Y2800257D01*
X3997057Y2773943D01*
X4018543Y2752457D01*
X4044857Y2737264D01*
X4074207Y2729400D01*
X4104593D01*
X4133943Y2737264D01*
X4160257Y2752457D01*
X4181743Y2773943D01*
X4196935Y2800257D01*
X4204800Y2829607D01*
Y2859993D01*
X4196935Y2889342D01*
X4181743Y2915657D01*
X4160257Y2937142D01*
X4133943Y2952335D01*
X4104593Y2960200D01*
D02*
G37*
G36*
X3850593D02*
X3820207D01*
X3790857Y2952335D01*
X3764543Y2937142D01*
X3743057Y2915657D01*
X3727865Y2889342D01*
X3720000Y2859993D01*
Y2829607D01*
X3727865Y2800257D01*
X3743057Y2773943D01*
X3764543Y2752457D01*
X3790857Y2737264D01*
X3820207Y2729400D01*
X3850593D01*
X3879943Y2737264D01*
X3906257Y2752457D01*
X3927743Y2773943D01*
X3942935Y2800257D01*
X3950800Y2829607D01*
Y2859993D01*
X3942935Y2889342D01*
X3927743Y2915657D01*
X3906257Y2937142D01*
X3879943Y2952335D01*
X3850593Y2960200D01*
D02*
G37*
G36*
X3596593D02*
X3566207D01*
X3536857Y2952335D01*
X3510543Y2937142D01*
X3489057Y2915657D01*
X3473865Y2889342D01*
X3466000Y2859993D01*
Y2829607D01*
X3473865Y2800257D01*
X3489057Y2773943D01*
X3510543Y2752457D01*
X3536857Y2737264D01*
X3566207Y2729400D01*
X3596593D01*
X3625943Y2737264D01*
X3652257Y2752457D01*
X3673743Y2773943D01*
X3688935Y2800257D01*
X3696800Y2829607D01*
Y2859993D01*
X3688935Y2889342D01*
X3673743Y2915657D01*
X3652257Y2937142D01*
X3625943Y2952335D01*
X3596593Y2960200D01*
D02*
G37*
G36*
X2834593D02*
X2804207D01*
X2774857Y2952335D01*
X2748543Y2937142D01*
X2727057Y2915657D01*
X2711865Y2889342D01*
X2704000Y2859993D01*
Y2829607D01*
X2711865Y2800257D01*
X2727057Y2773943D01*
X2748543Y2752457D01*
X2774857Y2737264D01*
X2804207Y2729400D01*
X2834593D01*
X2863943Y2737264D01*
X2890257Y2752457D01*
X2911743Y2773943D01*
X2926935Y2800257D01*
X2934800Y2829607D01*
Y2859993D01*
X2926935Y2889342D01*
X2911743Y2915657D01*
X2890257Y2937142D01*
X2863943Y2952335D01*
X2834593Y2960200D01*
D02*
G37*
G36*
X2580593D02*
X2550207D01*
X2520857Y2952335D01*
X2494543Y2937142D01*
X2473057Y2915657D01*
X2457865Y2889342D01*
X2450000Y2859993D01*
Y2829607D01*
X2457865Y2800257D01*
X2473057Y2773943D01*
X2494543Y2752457D01*
X2520857Y2737264D01*
X2550207Y2729400D01*
X2580593D01*
X2609943Y2737264D01*
X2636257Y2752457D01*
X2657743Y2773943D01*
X2672935Y2800257D01*
X2680800Y2829607D01*
Y2859993D01*
X2672935Y2889342D01*
X2657743Y2915657D01*
X2636257Y2937142D01*
X2609943Y2952335D01*
X2580593Y2960200D01*
D02*
G37*
G36*
X2326593D02*
X2296207D01*
X2266857Y2952335D01*
X2240543Y2937142D01*
X2219057Y2915657D01*
X2203865Y2889342D01*
X2196000Y2859993D01*
Y2829607D01*
X2203865Y2800257D01*
X2219057Y2773943D01*
X2240543Y2752457D01*
X2266857Y2737264D01*
X2296207Y2729400D01*
X2326593D01*
X2355943Y2737264D01*
X2382257Y2752457D01*
X2403743Y2773943D01*
X2418935Y2800257D01*
X2426800Y2829607D01*
Y2859993D01*
X2418935Y2889342D01*
X2403743Y2915657D01*
X2382257Y2937142D01*
X2355943Y2952335D01*
X2326593Y2960200D01*
D02*
G37*
G36*
X5374593Y2960199D02*
X5344207D01*
X5314857Y2952335D01*
X5288543Y2937142D01*
X5267057Y2915657D01*
X5251865Y2889342D01*
X5244000Y2859992D01*
Y2829607D01*
X5251865Y2800257D01*
X5267057Y2773942D01*
X5288543Y2752457D01*
X5314857Y2737264D01*
X5344207Y2729400D01*
X5374593D01*
X5403943Y2737264D01*
X5430257Y2752457D01*
X5451743Y2773942D01*
X5466935Y2800257D01*
X5474800Y2829607D01*
Y2859992D01*
X5466935Y2889342D01*
X5451743Y2915657D01*
X5430257Y2937142D01*
X5403943Y2952335D01*
X5374593Y2960199D01*
D02*
G37*
G36*
X4358593D02*
X4328207D01*
X4298857Y2952335D01*
X4272543Y2937142D01*
X4251057Y2915657D01*
X4235865Y2889342D01*
X4228000Y2859992D01*
Y2829607D01*
X4235865Y2800257D01*
X4251057Y2773942D01*
X4272543Y2752457D01*
X4298857Y2737264D01*
X4328207Y2729400D01*
X4358593D01*
X4387943Y2737264D01*
X4414257Y2752457D01*
X4435743Y2773942D01*
X4450935Y2800257D01*
X4458800Y2829607D01*
Y2859992D01*
X4450935Y2889342D01*
X4435743Y2915657D01*
X4414257Y2937142D01*
X4387943Y2952335D01*
X4358593Y2960199D01*
D02*
G37*
G36*
X3088593D02*
X3058207D01*
X3028857Y2952335D01*
X3002543Y2937142D01*
X2981057Y2915657D01*
X2965865Y2889342D01*
X2958000Y2859992D01*
Y2829607D01*
X2965865Y2800257D01*
X2981057Y2773942D01*
X3002543Y2752457D01*
X3028857Y2737264D01*
X3058207Y2729400D01*
X3088593D01*
X3117943Y2737264D01*
X3144257Y2752457D01*
X3165743Y2773942D01*
X3180935Y2800257D01*
X3188800Y2829607D01*
Y2859992D01*
X3180935Y2889342D01*
X3165743Y2915657D01*
X3144257Y2937142D01*
X3117943Y2952335D01*
X3088593Y2960199D01*
D02*
G37*
G36*
X2072593D02*
X2042207D01*
X2012857Y2952335D01*
X1986543Y2937142D01*
X1965057Y2915657D01*
X1949865Y2889342D01*
X1942000Y2859992D01*
Y2829607D01*
X1949865Y2800257D01*
X1965057Y2773942D01*
X1986543Y2752457D01*
X2012857Y2737264D01*
X2042207Y2729400D01*
X2072593D01*
X2101943Y2737264D01*
X2128257Y2752457D01*
X2149743Y2773942D01*
X2164935Y2800257D01*
X2172800Y2829607D01*
Y2859992D01*
X2164935Y2889342D01*
X2149743Y2915657D01*
X2128257Y2937142D01*
X2101943Y2952335D01*
X2072593Y2960199D01*
D02*
G37*
G36*
X6667500Y414062D02*
Y342900D01*
X6738662D01*
X6736935Y349343D01*
X6721743Y375657D01*
X6700257Y397143D01*
X6673943Y412335D01*
X6667500Y414062D01*
D02*
G37*
G36*
X6591300D02*
X6584857Y412335D01*
X6558543Y397143D01*
X6537057Y375657D01*
X6521865Y349343D01*
X6520138Y342900D01*
X6591300D01*
Y414062D01*
D02*
G37*
G36*
X5067300Y414062D02*
X5060857Y412335D01*
X5034543Y397142D01*
X5013057Y375657D01*
X4997865Y349342D01*
X4996138Y342900D01*
X5067300D01*
Y414062D01*
D02*
G37*
G36*
X6738662Y266700D02*
X6667500D01*
Y195538D01*
X6673943Y197265D01*
X6700257Y212457D01*
X6721743Y233943D01*
X6736935Y260257D01*
X6738662Y266700D01*
D02*
G37*
G36*
X6591300D02*
X6520138D01*
X6521865Y260257D01*
X6537057Y233943D01*
X6558543Y212457D01*
X6584857Y197265D01*
X6591300Y195538D01*
Y266700D01*
D02*
G37*
G36*
X5214662Y266700D02*
X5143500D01*
Y195538D01*
X5149943Y197264D01*
X5176257Y212457D01*
X5197743Y233943D01*
X5212935Y260257D01*
X5214662Y266700D01*
D02*
G37*
G36*
X5067300D02*
X4996138D01*
X4997865Y260257D01*
X5013057Y233943D01*
X5034543Y212457D01*
X5060857Y197264D01*
X5067300Y195538D01*
Y266700D01*
D02*
G37*
G36*
X3088593Y420200D02*
X3058207D01*
X3028857Y412335D01*
X3002543Y397143D01*
X2981057Y375657D01*
X2965865Y349343D01*
X2958000Y319993D01*
Y289607D01*
X2965865Y260257D01*
X2981057Y233943D01*
X3002543Y212457D01*
X3028857Y197265D01*
X3058207Y189400D01*
X3088593D01*
X3117943Y197265D01*
X3144257Y212457D01*
X3165743Y233943D01*
X3180935Y260257D01*
X3188800Y289607D01*
Y319993D01*
X3180935Y349343D01*
X3165743Y375657D01*
X3144257Y397143D01*
X3117943Y412335D01*
X3088593Y420200D01*
D02*
G37*
G36*
X2072593D02*
X2042207D01*
X2012857Y412335D01*
X1986543Y397143D01*
X1965057Y375657D01*
X1949865Y349343D01*
X1942000Y319993D01*
Y289607D01*
X1949865Y260257D01*
X1965057Y233943D01*
X1986543Y212457D01*
X2012857Y197265D01*
X2042207Y189400D01*
X2072593D01*
X2101943Y197265D01*
X2128257Y212457D01*
X2149743Y233943D01*
X2164935Y260257D01*
X2172800Y289607D01*
Y319993D01*
X2164935Y349343D01*
X2149743Y375657D01*
X2128257Y397143D01*
X2101943Y412335D01*
X2072593Y420200D01*
D02*
G37*
G36*
X6390593Y420200D02*
X6360207D01*
X6330857Y412335D01*
X6304543Y397142D01*
X6283057Y375657D01*
X6267865Y349342D01*
X6260000Y319993D01*
Y289607D01*
X6267865Y260257D01*
X6283057Y233943D01*
X6304543Y212457D01*
X6330857Y197264D01*
X6360207Y189400D01*
X6390593D01*
X6419943Y197264D01*
X6446257Y212457D01*
X6467743Y233943D01*
X6482935Y260257D01*
X6490800Y289607D01*
Y319993D01*
X6482935Y349342D01*
X6467743Y375657D01*
X6446257Y397142D01*
X6419943Y412335D01*
X6390593Y420200D01*
D02*
G37*
G36*
X6136593D02*
X6106207D01*
X6076857Y412335D01*
X6050543Y397142D01*
X6029057Y375657D01*
X6013865Y349342D01*
X6006000Y319993D01*
Y289607D01*
X6013865Y260257D01*
X6029057Y233943D01*
X6050543Y212457D01*
X6076857Y197264D01*
X6106207Y189400D01*
X6136593D01*
X6165943Y197264D01*
X6192257Y212457D01*
X6213743Y233943D01*
X6228935Y260257D01*
X6236800Y289607D01*
Y319993D01*
X6228935Y349342D01*
X6213743Y375657D01*
X6192257Y397142D01*
X6165943Y412335D01*
X6136593Y420200D01*
D02*
G37*
G36*
X5882593D02*
X5852207D01*
X5822857Y412335D01*
X5796543Y397142D01*
X5775057Y375657D01*
X5759865Y349342D01*
X5752000Y319993D01*
Y289607D01*
X5759865Y260257D01*
X5775057Y233943D01*
X5796543Y212457D01*
X5822857Y197264D01*
X5852207Y189400D01*
X5882593D01*
X5911943Y197264D01*
X5938257Y212457D01*
X5959743Y233943D01*
X5974935Y260257D01*
X5982800Y289607D01*
Y319993D01*
X5974935Y349342D01*
X5959743Y375657D01*
X5938257Y397142D01*
X5911943Y412335D01*
X5882593Y420200D01*
D02*
G37*
G36*
X5628593D02*
X5598207D01*
X5568857Y412335D01*
X5542543Y397142D01*
X5521057Y375657D01*
X5505865Y349342D01*
X5498000Y319993D01*
Y289607D01*
X5505865Y260257D01*
X5521057Y233943D01*
X5542543Y212457D01*
X5568857Y197264D01*
X5598207Y189400D01*
X5628593D01*
X5657943Y197264D01*
X5684257Y212457D01*
X5705743Y233943D01*
X5720935Y260257D01*
X5728800Y289607D01*
Y319993D01*
X5720935Y349342D01*
X5705743Y375657D01*
X5684257Y397142D01*
X5657943Y412335D01*
X5628593Y420200D01*
D02*
G37*
G36*
X2326593D02*
X2296207D01*
X2266857Y412335D01*
X2240543Y397142D01*
X2219057Y375657D01*
X2203865Y349342D01*
X2196000Y319993D01*
Y289607D01*
X2203865Y260257D01*
X2219057Y233943D01*
X2240543Y212457D01*
X2266857Y197264D01*
X2296207Y189400D01*
X2326593D01*
X2355943Y197264D01*
X2382257Y212457D01*
X2403743Y233943D01*
X2418935Y260257D01*
X2426800Y289607D01*
Y319993D01*
X2418935Y349342D01*
X2403743Y375657D01*
X2382257Y397142D01*
X2355943Y412335D01*
X2326593Y420200D01*
D02*
G37*
%LPD*%
D10*
X4061312Y304800D02*
X4089400D01*
X4011509Y354602D02*
X4061312Y304800D01*
X4002678Y354602D02*
X4011509D01*
X3480980Y876300D02*
X4002678Y354602D01*
X2933700Y876300D02*
X3480980D01*
X469900Y3340100D02*
X2933700Y876300D01*
X469900Y3340100D02*
Y7912100D01*
X901700Y8343900D01*
X3807312Y304800D02*
X3835400D01*
X3757509Y354603D02*
X3807312Y304800D01*
X3748679Y354603D02*
X3757509D01*
X3404782Y698500D02*
X3748679Y354603D01*
X2870200Y698500D02*
X3404782D01*
X355600Y3213100D02*
X2870200Y698500D01*
X355600Y3213100D02*
Y8305800D01*
X944841Y8895041D01*
X3771900Y1130300D02*
X4597400Y304800D01*
X2895600Y1130300D02*
X3771900D01*
X901700Y9359900D02*
X1077916Y9183684D01*
Y8075616D02*
Y9183684D01*
X596900Y7594600D02*
X1077916Y8075616D01*
X596900Y3429000D02*
Y7594600D01*
Y3429000D02*
X2895600Y1130300D01*
X2019300Y3467100D02*
X3556000Y5003800D01*
X2235200Y9664700D02*
X3429000Y8470900D01*
X2133600Y9525000D02*
X3378200Y8280400D01*
X3556000Y5003800D02*
Y7772400D01*
X3886200Y8102600D02*
X4140200D01*
X3556000Y7772400D02*
X3886200Y8102600D01*
X3993339Y3728261D02*
X4069539D01*
X4089400Y3708400D01*
X3378200Y8280400D02*
X5486400D01*
X5549900Y8470900D02*
X5918200Y8102600D01*
X5486400Y8280400D02*
X5664200Y8102600D01*
X3429000Y8470900D02*
X5549900D01*
X228600Y3111500D02*
X2806700Y533400D01*
X228600Y8978900D02*
X774700Y9525000D01*
X228600Y3111500D02*
Y8978900D01*
X698500Y3530600D02*
X2514600Y1714500D01*
X698500Y3530600D02*
Y6769100D01*
X1701800Y7772400D01*
X2514600Y1714500D02*
X3441700D01*
X114300Y3009900D02*
X2819400Y304800D01*
X114300Y9093200D02*
X685800Y9664700D01*
X114300Y3009900D02*
Y9093200D01*
X2260600Y7772400D02*
X2921000Y7112000D01*
X1701800Y7772400D02*
X1980018D01*
X1981118Y7773500D02*
X2108282D01*
X2109382Y7772400D02*
X2260600D01*
X2108282Y7773500D02*
X2109382Y7772400D01*
X1980018D02*
X1981118Y7773500D01*
X2921000Y7112000D02*
X3162300D01*
X774700Y9525000D02*
X2133600D01*
X685800Y9664700D02*
X2235200D01*
X1752600Y2870200D02*
X2565400Y2057400D01*
X3606800D01*
X3441700Y1714500D02*
X4851400Y304800D01*
X3848100Y3467100D02*
X4089400Y3708400D01*
X2019300Y3467100D02*
X3848100D01*
X1752600Y3200400D02*
X2019300Y3467100D01*
X1752600Y2870200D02*
Y3200400D01*
X3606800Y2057400D02*
X5359400Y304800D01*
X2806700Y533400D02*
X3352800D01*
X3581400Y304800D01*
X2309800Y11480800D02*
X2428400Y11362200D01*
X1651000Y11480800D02*
X2309800D01*
D33*
X1638300Y8343900D02*
X2959100D01*
X1638300D02*
Y8597900D01*
Y9105900D02*
Y9359900D01*
Y8851900D02*
Y9105900D01*
Y8597900D02*
Y8851900D01*
X2974998Y9728200D02*
X5461000D01*
X2771798Y9518395D02*
X2974998Y9721595D01*
X901700Y4584700D02*
Y4826000D01*
Y4330700D02*
Y4584700D01*
Y4076700D02*
Y4330700D01*
Y3822700D02*
Y4076700D01*
Y3810000D02*
Y3822700D01*
X5461000Y9728200D02*
X5664200Y9525000D01*
Y9372600D02*
Y9525000D01*
X5359400Y5283200D02*
X5612979Y5029621D01*
X3873500Y5283200D02*
X5359400D01*
X5612979Y4978821D02*
Y5029621D01*
Y4978821D02*
X5613400Y4978400D01*
X3733800Y5422900D02*
X3873500Y5283200D01*
X5676094Y4877607D02*
X6197600Y4356100D01*
Y3311523D02*
Y4356100D01*
X3733800Y5422900D02*
Y7632700D01*
X3911600Y7810500D01*
X5918200D01*
X6235700Y8128000D01*
Y8369300D01*
X5664200Y8940800D02*
X6235700Y8369300D01*
X5664200Y8940800D02*
Y9372600D01*
X3162721Y6858421D02*
X3264321D01*
X3403600Y6997700D01*
X3162300Y6858000D02*
X3162721Y6858421D01*
X3403600Y6997700D02*
Y7899400D01*
X2959100Y8343900D02*
X3403600Y7899400D01*
X1840400Y5604977D02*
X2009356Y5436021D01*
X1816100Y5651500D02*
X1840400Y5627200D01*
X2044279Y5436021D02*
X2044700Y5435600D01*
X2009356Y5436021D02*
X2044279D01*
X1840400Y5604977D02*
Y5627200D01*
X1816100Y5651500D02*
Y6629400D01*
X2044700Y6858000D01*
X3162300D01*
X2044700Y4178300D02*
X2247900D01*
X2362200Y4292600D01*
Y5118100D01*
X2044700Y5435600D02*
X2362200Y5118100D01*
X2044700Y5435600D02*
X3162300D01*
X6579700Y2895095D02*
X6629400Y2845395D01*
X6579700Y2895095D02*
Y2929423D01*
X6197600Y3311523D02*
X6579700Y2929423D01*
X6629400Y2844799D02*
Y2845395D01*
D36*
X901700Y8343900D02*
D03*
X4089400Y304800D02*
D03*
X901700Y8851900D02*
D03*
X3835400Y304800D02*
D03*
X901700Y9359900D02*
D03*
X4597400Y304800D02*
D03*
X901700Y8597900D02*
D03*
Y9105900D02*
D03*
X2044700Y6858000D02*
D03*
Y7112000D02*
D03*
Y7366000D02*
D03*
Y7620000D02*
D03*
X3162300Y6858000D02*
D03*
Y7112000D02*
D03*
Y7366000D02*
D03*
Y7620000D02*
D03*
Y5435600D02*
D03*
Y5689600D02*
D03*
Y5943600D02*
D03*
Y6197600D02*
D03*
X6629400Y304800D02*
D03*
X6375400Y304800D02*
D03*
X6121400D02*
D03*
X5867400D02*
D03*
X5613400D02*
D03*
X5359400Y304800D02*
D03*
X5105400Y304800D02*
D03*
X4851400D02*
D03*
X4343400Y304800D02*
D03*
X3581400Y304800D02*
D03*
X3327400D02*
D03*
X3073400Y304800D02*
D03*
X2819400Y304800D02*
D03*
X2565400D02*
D03*
X2311400D02*
D03*
X2057400Y304800D02*
D03*
Y2844799D02*
D03*
X2311400Y2844800D02*
D03*
X2565400D02*
D03*
X2819400D02*
D03*
X3073400Y2844799D02*
D03*
X3327400Y2844800D02*
D03*
X3581400D02*
D03*
X3835400D02*
D03*
X4089400D02*
D03*
X4343400Y2844799D02*
D03*
X4597400Y2844800D02*
D03*
X4851400D02*
D03*
X5105400D02*
D03*
X5359400Y2844799D02*
D03*
X5613400Y2844800D02*
D03*
X5867400D02*
D03*
X6121400D02*
D03*
X6375400D02*
D03*
X6629400Y2844799D02*
D03*
X2044700Y6197600D02*
D03*
Y5943600D02*
D03*
Y5689600D02*
D03*
Y5435600D02*
D03*
X1638300Y9359900D02*
D03*
Y8343900D02*
D03*
Y8597900D02*
D03*
Y8851900D02*
D03*
Y9105900D02*
D03*
X2044700Y3924300D02*
D03*
Y4178300D02*
D03*
Y4432300D02*
D03*
Y4686300D02*
D03*
X6553200Y9093200D02*
D03*
Y8839199D02*
D03*
Y8585200D02*
D03*
Y8331200D02*
D03*
X6502400Y4724400D02*
D03*
Y4470400D02*
D03*
Y4216400D02*
D03*
Y3962400D02*
D03*
X1282700Y4572000D02*
D03*
Y4318000D02*
D03*
Y4064000D02*
D03*
Y3810000D02*
D03*
Y4826000D02*
D03*
X1270000Y9105900D02*
D03*
Y8851900D02*
D03*
Y8597900D02*
D03*
Y8343900D02*
D03*
Y9359900D02*
D03*
X901700Y4076700D02*
D03*
Y4330700D02*
D03*
Y4584700D02*
D03*
Y4838700D02*
D03*
Y3822700D02*
D03*
X4140200Y9372600D02*
D03*
X4394200D02*
D03*
X4648200D02*
D03*
X4902200D02*
D03*
X5156200D02*
D03*
X5410200D02*
D03*
X5664200D02*
D03*
X5918200D02*
D03*
Y8102600D02*
D03*
X5664200Y8102600D02*
D03*
X5410200Y8102600D02*
D03*
X5156200D02*
D03*
X4902200D02*
D03*
X4648200Y8102600D02*
D03*
X4394200Y8102600D02*
D03*
X4140200D02*
D03*
X4089400Y3708400D02*
D03*
X4343400D02*
D03*
X4597400D02*
D03*
X4851400D02*
D03*
X5105400D02*
D03*
X5359400D02*
D03*
X5613400D02*
D03*
X5867400D02*
D03*
Y4978400D02*
D03*
X5613400D02*
D03*
X5359399Y4978400D02*
D03*
X5105400D02*
D03*
X4851400Y4978400D02*
D03*
X4597400D02*
D03*
X4343400Y4978400D02*
D03*
X4089400D02*
D03*
D37*
X5092700Y1765300D02*
D03*
X3378200Y10363200D02*
D03*
D38*
X6477000Y11582400D02*
D03*
Y12382400D02*
D03*
D39*
X5778500Y12598400D02*
D03*
X5278500D02*
D03*
D40*
X2921000Y11569700D02*
D03*
X2768600Y11557000D02*
D03*
X3225800Y11569700D02*
D03*
X3454400D02*
D03*
X3835400Y787400D02*
D03*
X3289300Y1422400D02*
D03*
X2857500Y1498600D02*
D03*
X1701800Y10642600D02*
D03*
X4445000Y4838700D02*
D03*
X4193308Y4812130D02*
D03*
X4343400Y4762500D02*
D03*
X2794000Y4076700D02*
D03*
X2895600Y3873500D02*
D03*
Y3975100D02*
D03*
Y4076700D02*
D03*
X3606800Y12395200D02*
D03*
X3238500Y10972800D02*
D03*
X1676400Y11303000D02*
D03*
X1600200Y10693400D02*
D03*
X596900Y11493500D02*
D03*
Y11607800D02*
D03*
Y11734800D02*
D03*
X165100Y11442700D02*
D03*
X330200D02*
D03*
X431800D02*
D03*
Y11798300D02*
D03*
X317500D02*
D03*
X165100D02*
D03*
X1828800Y12306300D02*
D03*
X1701800D02*
D03*
X1562100D02*
D03*
X1422400D02*
D03*
X1295400D02*
D03*
X1181100D02*
D03*
X3302000Y12192000D02*
D03*
X3200400D02*
D03*
X3111500D02*
D03*
X1651000Y11480800D02*
D03*
X2428400Y11362200D02*
D03*
X2538401Y11362200D02*
D03*
X2428400Y11252200D02*
D03*
X2538400D02*
D03*
X2428400Y11142200D02*
D03*
X2538400D02*
D03*
D41*
X1336198Y10921259D02*
D03*
X5969000Y11112500D02*
D03*
X3302000Y5207000D02*
D03*
X3556000Y4635500D02*
D03*
X381000Y825500D02*
D03*
Y1968500D02*
D03*
X1206500Y1651000D02*
D03*
X4445000Y10985500D02*
D03*
X5397500Y9969500D02*
D03*
X5207000Y10287000D02*
D03*
X4635500Y10477500D02*
D03*
X4381500Y2032000D02*
D03*
X7175500Y4445000D02*
D03*
X6960000Y5460000D02*
D03*
X7210000Y4960000D02*
D03*
Y3960000D02*
D03*
X6960000Y3460000D02*
D03*
X6710000Y11960000D02*
D03*
X6460000Y10460000D02*
D03*
X6710000Y9960000D02*
D03*
X6460000Y9460000D02*
D03*
X6710000Y8960000D02*
D03*
Y7960000D02*
D03*
X6460000Y5460000D02*
D03*
X6710000Y3960000D02*
D03*
X6210000Y11960000D02*
D03*
X5960000Y11460000D02*
D03*
Y10460000D02*
D03*
X6210000Y9960000D02*
D03*
X5960000Y5460000D02*
D03*
Y2460000D02*
D03*
Y1460000D02*
D03*
Y460000D02*
D03*
X5710000Y11960000D02*
D03*
Y10960000D02*
D03*
X5460000Y10460000D02*
D03*
X5710000Y9960000D02*
D03*
X5460000Y5460000D02*
D03*
Y2460000D02*
D03*
X5710000Y1960000D02*
D03*
X5460000Y1460000D02*
D03*
X5710000Y960000D02*
D03*
X5460000Y460000D02*
D03*
X4960000Y12460000D02*
D03*
X5210000Y10960000D02*
D03*
X4960000Y5460000D02*
D03*
Y2460000D02*
D03*
Y1460000D02*
D03*
X5210000Y960000D02*
D03*
X4960000Y460000D02*
D03*
X4460000Y12460000D02*
D03*
Y5460000D02*
D03*
X4710000Y3960000D02*
D03*
X4460000Y2460000D02*
D03*
X4710000Y1960000D02*
D03*
X4460000Y1460000D02*
D03*
X3960000Y10460000D02*
D03*
X4210000Y8960000D02*
D03*
X3960000Y4460000D02*
D03*
X4210000Y3960000D02*
D03*
X3960000Y2460000D02*
D03*
Y1460000D02*
D03*
X3460000Y12460000D02*
D03*
X3710000Y11960000D02*
D03*
Y10960000D02*
D03*
Y9960000D02*
D03*
X3460000Y9460000D02*
D03*
Y2460000D02*
D03*
Y1460000D02*
D03*
X3710000Y960000D02*
D03*
X2960000Y12460000D02*
D03*
X3210000Y11960000D02*
D03*
X2960000Y10460000D02*
D03*
X3210000Y9960000D02*
D03*
X2960000Y9460000D02*
D03*
X3210000Y8960000D02*
D03*
X2960000Y7460000D02*
D03*
Y6460000D02*
D03*
Y2460000D02*
D03*
Y1460000D02*
D03*
X2710000Y10960000D02*
D03*
X2460000Y10460000D02*
D03*
X2710000Y7960000D02*
D03*
Y3960000D02*
D03*
X2460000Y2460000D02*
D03*
Y460000D02*
D03*
X1960000Y12460000D02*
D03*
X2210000Y11960000D02*
D03*
Y10960000D02*
D03*
Y8960000D02*
D03*
Y7960000D02*
D03*
Y4960000D02*
D03*
Y3960000D02*
D03*
X1960000Y2460000D02*
D03*
Y460000D02*
D03*
X1710000Y11960000D02*
D03*
X1460000Y10460000D02*
D03*
Y8460000D02*
D03*
Y3460000D02*
D03*
X1710000Y960000D02*
D03*
X1210000Y11960000D02*
D03*
Y7960000D02*
D03*
Y6960000D02*
D03*
Y5960000D02*
D03*
Y4960000D02*
D03*
X960000Y3460000D02*
D03*
X1210000Y960000D02*
D03*
X460000Y12460000D02*
D03*
X710000Y11960000D02*
D03*
Y10960000D02*
D03*
X460000Y10460000D02*
D03*
X710000Y7960000D02*
D03*
Y6960000D02*
D03*
X460000Y2460000D02*
D03*
Y1460000D02*
D03*
D42*
X2974998Y9721595D02*
D03*
X2771798Y9518395D02*
D03*
%TF.MD5,72207a473fc8297d8f54b7ca75d95198*%
M02*
